<svg width="48" height="59" viewBox="0 0 48 59" fill="none" xmlns="http://www.w3.org/2000/svg">
<path d="M27.4686 59H5.53138C5.23793 59 5 58.8265 5 58.6126V38H28V58.6126C28 58.8265 27.7621 59 27.4686 59Z" fill="#FFD93B"/>
<path d="M27.4686 56H5.53138C5.23793 56 5 55.8265 5 55.6126V35H28V55.6126C28 55.8265 27.7621 56 27.4686 56Z" fill="#F4C534"/>
<path d="M16.4095 27.974L13.6739 4.62631C13.4075 2.35324 15.035 0.294672 17.3088 0.0285371C19.5827 -0.237727 21.6419 1.3891 21.9083 3.66217L24.2556 23.7633C24.343 24.5111 25.4094 24.5635 25.5697 23.8279L29.9316 3.80656C30.4185 1.57023 32.6266 0.151966 34.8637 0.638564C37.1009 1.12516 38.5196 3.33264 38.0328 5.56885L33.6081 25.9139C33.3103 27.2833 33.1601 28.6808 33.1601 30.0822V44.7464C33.1601 49.3711 29.4066 53.1213 24.7778 53.1213H9.98707C4.47096 53.1213 0.000488281 48.6532 0.000488281 43.1436V27.974H16.4095Z" fill="#FFD93B"/>
<path d="M17.9082 3.66217L19.795 19.8184C20.05 22.0017 22.0193 23.5703 24.2052 23.3312L21.9083 3.66217C21.6419 1.3891 19.5827 -0.237727 17.3088 0.0285371C16.7587 0.0929684 16.2469 0.263103 15.79 0.515006C16.9219 1.13914 17.7465 2.28078 17.9082 3.66217Z" fill="#F4C534"/>
<path d="M34.8635 0.638677C33.8438 0.41692 32.8306 0.591842 31.9832 1.05864C33.5483 1.92032 34.4318 3.73448 34.0326 5.56896L29.6079 25.914C29.3101 27.2835 29.1599 28.6809 29.1599 30.0823V44.7465C29.1599 49.3712 25.4064 53.1213 20.7776 53.1213H24.7776C29.4065 53.1213 33.1599 49.3712 33.1599 44.7465V30.0823C33.1599 28.6809 33.3101 27.2835 33.6079 25.914L38.0326 5.56896C38.5193 3.33276 37.1006 1.1254 34.8635 0.638677Z" fill="#F4C534"/>
<path d="M29.1598 33.5827C29.1598 33.5827 17.7537 34.5441 15.3811 41.7928C12.1264 51.7368 21.9014 54.5529 29.1598 48.5132V33.5827Z" fill="#F4C534"/>
<path d="M20.9733 39.6292C23.207 36.6828 26.6453 35.1846 30.08 35.3015C31.2669 35.3418 32.4032 34.8184 33.1191 33.87L39.6851 25.1731C41.2269 23.1309 44.1324 22.7249 46.1702 24.267C48.2049 25.8069 48.6032 28.7059 47.0594 30.7421L33.6594 48.4176C28.5343 55.1728 23.9733 53.7421 17.8891 53.1171C17.8891 53.1171 16.8876 49.1346 17.5511 45.2953C17.9762 42.835 20.9733 39.6292 20.9733 39.6292Z" fill="#FFD93B"/>
<path d="M46.1703 24.2671C44.7443 23.188 42.8938 23.064 41.3826 23.7861C41.6555 23.9174 41.9195 24.0775 42.1703 24.2671C44.205 25.807 44.6033 28.706 43.0595 30.7422L29.6595 48.4176C27.019 51.8979 24.5283 53.2053 21.9019 53.5696C26.1189 53.9654 29.7227 53.6064 33.6595 48.4176L47.0595 30.7422C48.6032 28.7059 48.2051 25.8069 46.1703 24.2671Z" fill="#F4C534"/>
<path d="M12.4355 33.9862H12.437C14.726 33.9862 16.5817 32.1306 16.5817 29.8415V19.725C16.5817 17.436 14.7261 15.5803 12.437 15.5803H12.4355C10.1465 15.5803 8.29077 17.4359 8.29077 19.725V29.8415C8.29077 32.1306 10.1465 33.9862 12.4355 33.9862Z" fill="#FFD93B"/>
<path d="M12.4362 15.5803C12.2428 15.5803 12.0529 15.5947 11.8666 15.6202C12.3177 16.2835 12.5817 17.0844 12.5817 17.9471V28.0651C12.5817 30.1604 11.0256 31.8915 9.00586 32.169C9.75174 33.2657 11.0097 33.986 12.4362 33.986C14.7257 33.986 16.5817 32.1307 16.5817 29.8421V19.7241C16.5817 17.4356 14.7257 15.5803 12.4362 15.5803Z" fill="#F4C534"/>
<path d="M4.14456 36.1734H4.14611C6.4351 36.1734 8.29067 34.3178 8.29067 32.0288V21.9122C8.29067 19.6232 6.4351 17.7676 4.14611 17.7676H4.14456C1.85557 17.7676 0 19.6232 0 21.9122V32.0288C0 34.3177 1.85557 36.1734 4.14456 36.1734Z" fill="#FFD93B"/>
<path d="M4.1455 17.7675C4.03165 17.7675 3.91921 17.7733 3.80769 17.7824C4.11574 18.3616 4.29092 19.0224 4.29092 19.7241V29.8423C4.29092 32.017 2.61468 33.7993 0.483398 33.9713C1.17985 35.2812 2.55827 36.1734 4.14563 36.1734C6.43501 36.1734 8.29096 34.3181 8.29096 32.0295V21.9113C8.29096 19.6228 6.43501 17.7675 4.1455 17.7675Z" fill="#F4C534"/>
</svg>
