<svg width="69" height="27" viewBox="0 0 69 27" fill="none" xmlns="http://www.w3.org/2000/svg">
<path d="M5.308 21.248H15.928V26H0.34V0.799998H15.748V5.552H5.308V10.916H14.848V15.596H5.308V21.248ZM34.0098 0.799998H38.9778V26H35.1978L24.3978 10.592V26H19.4298V0.799998H23.2098L34.0098 16.172V0.799998ZM68.3845 12.464V14.408C68.3845 18.008 67.2325 20.924 64.9285 23.156C62.6245 25.388 59.6485 26.504 56.0005 26.504C52.1125 26.504 48.8845 25.244 46.3165 22.724C43.7725 20.18 42.5005 17.084 42.5005 13.436C42.5005 9.764 43.7605 6.656 46.2805 4.112C48.8245 1.568 51.9685 0.295998 55.7125 0.295998C58.0645 0.295998 60.2125 0.835999 62.1565 1.916C64.1005 2.972 65.6125 4.388 66.6925 6.164L62.4445 8.612C61.8445 7.58 60.9325 6.74 59.7085 6.092C58.5085 5.444 57.1645 5.12 55.6765 5.12C53.2765 5.12 51.2965 5.912 49.7365 7.496C48.2005 9.056 47.4325 11.036 47.4325 13.436C47.4325 15.812 48.2125 17.78 49.7725 19.34C51.3565 20.876 53.4445 21.644 56.0365 21.644C57.9565 21.644 59.5405 21.224 60.7885 20.384C62.0605 19.52 62.9245 18.344 63.3805 16.856H55.7485V12.464H68.3845Z" fill="#3F4545"/>
</svg>
