<svg width="67" height="27" viewBox="0 0 67 27" fill="none" xmlns="http://www.w3.org/2000/svg">
<path d="M15.6836 14.9082H5.55859V21.7637H17.4414V26H0.285156V0.40625H17.4062V4.67773H5.55859V10.7773H15.6836V14.9082ZM41.3477 26H36.0742L25.8086 9.16016V26H20.5352V0.40625H25.8086L36.0918 17.2812V0.40625H41.3477V26ZM66.2031 22.7656C65.2539 23.9023 63.9121 24.7871 62.1777 25.4199C60.4434 26.041 58.5215 26.3516 56.4121 26.3516C54.1973 26.3516 52.252 25.8711 50.5762 24.9102C48.9121 23.9375 47.623 22.5312 46.709 20.6914C45.8066 18.8516 45.3438 16.6895 45.3203 14.2051V12.4648C45.3203 9.91016 45.748 7.70117 46.6035 5.83789C47.4707 3.96289 48.7129 2.5332 50.3301 1.54883C51.959 0.552734 53.8633 0.0546875 56.043 0.0546875C59.0781 0.0546875 61.4512 0.78125 63.1621 2.23438C64.873 3.67578 65.8867 5.7793 66.2031 8.54492H61.0703C60.8359 7.08008 60.3145 6.00781 59.5059 5.32812C58.709 4.64844 57.6074 4.30859 56.2012 4.30859C54.4082 4.30859 53.043 4.98242 52.1055 6.33008C51.168 7.67773 50.6934 9.68164 50.6816 12.3418V13.9766C50.6816 16.6602 51.1914 18.6875 52.2109 20.0586C53.2305 21.4297 54.7246 22.1152 56.6934 22.1152C58.6738 22.1152 60.0859 21.6934 60.9297 20.8496V16.4375H56.1309V12.5527H66.2031V22.7656Z" fill="#EEEEEE"/>
</svg>
