<svg width="59" height="59" viewBox="0 0 59 59" fill="none" xmlns="http://www.w3.org/2000/svg">
<path d="M43.0401 18.8765C41.8105 17.5341 39.899 15.7223 39.0858 19.8133C38.8092 21.2043 38.1631 22.2766 37.6094 23.1399C37.0126 20.1194 35.217 16.993 33.5252 14.885C32.8921 14.0963 30.6457 10.9612 30.2141 5.71615C30.1497 4.93336 29.2199 4.56576 28.6383 5.09377C23.0803 10.1392 20.0296 17.0784 19.9163 24.8905C19.9163 24.8905 17.602 22.9397 16.3446 19.3105C16.0061 18.3332 14.6959 18.1467 14.1274 19.0109C14.0183 19.1768 13.9171 19.343 13.8259 19.5043C9.53763 27.0867 7.47482 36.2945 9.38184 44.861C12.5704 59.2074 33.6622 63.2182 44.8283 54.2012C55.7531 45.3794 52.2804 28.9597 43.0401 18.8765Z" fill="#ED694A"/>
<path d="M12.3497 45.7616C10.4648 37.1035 12.46 27.806 16.6475 20.1049C16.5416 19.8494 16.4397 19.5852 16.3445 19.3105C16.006 18.3332 14.6958 18.1467 14.1273 19.0109C14.0182 19.1768 13.9171 19.343 13.8259 19.5043C9.53763 27.0867 7.47482 36.2945 9.38184 44.8611C10.8362 51.4048 16.0158 55.7968 22.2789 57.7845C17.3929 55.4177 13.5667 51.3604 12.3497 45.7616Z" fill="#D8553A"/>
<path d="M22.8989 24.7466C23.1304 17.6565 25.6948 11.299 30.2846 6.41519C30.253 6.14623 30.2296 5.90574 30.2145 5.7232C30.1487 4.93373 29.2529 4.53779 28.6738 5.06118C23.3056 9.91462 20.0337 16.7836 19.9163 24.8901L20.921 25.6704C21.4158 26.0547 22.0862 26.038 22.5588 25.6859C22.8408 25.4469 22.8812 25.0863 22.8989 24.7466Z" fill="#D8553A"/>
<path d="M39.6686 29.3638C38.7605 28.3723 37.3486 27.034 36.748 30.0558C36.5438 31.0831 36.0663 31.8752 35.6576 32.5129C35.2168 30.2819 33.8905 27.9726 32.6409 26.4157C32.1733 25.8332 30.5141 23.5175 30.1953 19.6432C30.1477 19.065 29.461 18.7936 29.0314 19.1836C24.9262 22.9101 22.6728 28.0357 22.5892 33.8058C22.5892 33.8058 20.8797 32.3649 19.9512 29.6843C19.7011 28.9625 18.7333 28.8248 18.3135 29.463C18.2329 29.5855 18.1581 29.7084 18.0907 29.8275C14.9233 35.428 13.3996 42.229 14.8081 48.5566C17.1633 59.1531 32.7421 62.1156 40.9896 55.4554C49.0588 48.9395 46.4938 36.8116 39.6686 29.3638Z" fill="#F4A32C"/>
<path d="M17.7453 49.3877C16.4983 43.2023 17.7899 36.5654 20.5285 31.0388C20.3198 30.6302 20.122 30.1784 19.9508 29.6843C19.7007 28.9625 18.7329 28.8247 18.3131 29.4629C18.2325 29.5854 18.1578 29.7083 18.0903 29.8275C14.923 35.4281 13.3995 42.2291 14.8078 48.5565C15.9032 53.4848 19.8593 56.7607 24.6074 58.1863C21.2339 56.4945 18.5778 53.5222 17.7453 49.3877Z" fill="#E89528"/>
<path d="M36.5909 38.9382C35.9762 38.267 35.0202 37.361 34.6137 39.4066C34.4755 40.1021 34.1523 40.6382 33.8755 41.0699C33.577 39.5595 32.6793 37.9964 31.8333 36.9424C31.5169 36.5481 30.3937 34.9806 30.1777 32.3579C30.1455 31.9665 29.6807 31.7827 29.3899 32.0468C26.6109 34.5695 25.0855 38.0392 25.0289 41.9451C25.0289 41.9451 23.8716 40.9696 23.2431 39.1552C23.0739 38.6666 22.4188 38.5733 22.1346 39.0053C22.08 39.0882 22.0295 39.1714 21.9837 39.2521C19.8397 43.0433 18.8082 47.6471 19.7617 51.9305C21.3559 59.1037 31.9019 61.1091 37.4849 56.6006C39.3967 55.0567 40.5821 52.8812 40.8225 50.4747C41.1854 46.8299 39.7826 42.4211 36.5909 38.9382Z" fill="#F4D44E"/>
<path d="M33.7347 47.823C33.3922 47.4491 32.8597 46.9443 32.6332 48.0839C32.5562 48.4714 32.3762 48.7701 32.2219 49.0106C32.0556 48.1692 31.5555 47.2982 31.0842 46.7111C30.9079 46.4913 30.282 45.618 30.1617 44.1569C30.1438 43.9388 29.8847 43.8366 29.7228 43.9835C28.1746 45.389 27.3247 47.3221 27.2932 49.4982C27.2932 49.4982 26.6485 48.9547 26.2983 47.9438C26.2039 47.6715 25.8389 47.6195 25.6807 47.8603C25.6503 47.9065 25.6222 47.9529 25.5968 47.9978C24.4023 50.11 23.8276 52.6749 24.3589 55.0613C25.5686 60.504 35.4843 60.3389 36.0925 54.2502C36.2944 52.2196 35.5129 49.7633 33.7347 47.823Z" fill="#EAE9E8"/>
<path d="M26.6611 56.1414C26.1299 54.0067 26.7046 51.7123 27.8991 49.8229C27.9245 49.7827 27.9527 49.7413 27.983 49.6999C28.1413 49.4846 28.5063 49.531 28.6005 49.7745C28.9507 50.6788 29.5955 51.165 29.5955 51.165C29.6214 49.5656 30.2008 48.1136 31.265 46.9491C31.027 46.6195 30.299 45.8248 30.1617 44.157C30.1437 43.9389 29.8847 43.8367 29.7228 43.9836C28.1746 45.3891 27.3247 47.3222 27.2932 49.4983C27.2932 49.4983 26.6485 48.9548 26.2983 47.944C26.204 47.6717 25.8389 47.6197 25.6807 47.8606C25.6503 47.9068 25.6222 47.9531 25.5968 47.998C24.4023 50.1102 23.8276 52.6752 24.3589 55.0616C24.8505 57.2735 26.8701 58.6028 29.1028 58.9236C27.8984 58.3321 26.9727 57.3955 26.6611 56.1414Z" fill="#F7E7A1"/>
<path d="M21.2722 7.84112C23.7641 5.81427 23.7586 2.02225 21.2722 0C18.7803 2.02674 18.7857 5.81887 21.2722 7.84112Z" fill="#D8553A"/>
<path d="M51.1402 24.1086C53.6322 22.0817 53.6266 18.2897 51.1402 16.2675C50.0012 17.1937 48.6538 22.0863 51.1402 24.1086Z" fill="#D8553A"/>
<path d="M7.00454 25.6519C8.80047 24.1911 8.79655 21.4583 7.00454 20.0007C6.18372 20.6683 5.21253 24.1945 7.00454 25.6519Z" fill="#D8553A"/>
<path d="M38.1091 13.4923C39.905 12.0314 39.9011 9.29866 38.1091 7.84106C36.3132 9.30178 36.3172 12.0348 38.1091 13.4923Z" fill="#D8553A"/>
<path d="M24.8803 32.8792C25.2927 28.0103 27.152 23.6811 30.274 20.3807C30.2424 20.1414 30.2158 19.8959 30.195 19.6434C30.1474 19.0652 29.4608 18.7938 29.0312 19.1837C25.7781 22.1367 23.6903 25.969 22.9212 30.3035L22.92 30.3032C22.863 30.6247 22.7923 31.093 22.7475 31.4609C22.7477 31.4613 22.7478 31.4615 22.748 31.4618C22.6546 32.2298 22.6004 33.0115 22.5889 33.8061C22.6758 33.823 24.6426 34.834 24.8803 32.8792Z" fill="#E89528"/>
<path d="M22.6355 52.948C21.788 48.9465 22.5098 44.6794 24.1867 40.9821C23.8618 40.5266 23.5063 39.9147 23.2433 39.1551C23.0739 38.6665 22.4189 38.5732 22.1346 39.0052C22.0801 39.0881 22.0294 39.1713 21.9837 39.252C19.8397 43.0432 18.8082 47.647 19.7617 51.9304C20.5084 55.2897 23.2184 57.5156 26.4623 58.4698C24.5741 57.2163 23.1458 55.3609 22.6355 52.948Z" fill="#E8C842"/>
<path d="M28.0884 40.1965C28.3694 38.1886 29.1907 35.9762 30.4835 34.1266C30.3427 33.6043 30.2319 33.0142 30.1779 32.3579C30.1456 31.9665 29.6807 31.7827 29.39 32.0468C27.6585 33.6187 26.4157 35.559 25.7096 37.7426L25.7078 37.7422C25.5967 38.0852 25.4396 38.6535 25.3445 39.1021C25.3453 39.1019 25.3461 39.1019 25.3469 39.1016C25.1519 40.017 25.0435 40.967 25.0293 41.945C26.584 42.139 27.8702 41.754 28.0884 40.1965Z" fill="#E8C842"/>
</svg>
