<svg width="59" height="59" viewBox="0 0 59 59" fill="none" xmlns="http://www.w3.org/2000/svg">
<g clip-path="url(#clip0)">
<path d="M29.5 59C45.7924 59 59 45.7924 59 29.5C59 13.2076 45.7924 0 29.5 0C13.2076 0 0 13.2076 0 29.5C0 45.7924 13.2076 59 29.5 59Z" fill="#FFD93B"/>
<path d="M59 29.5C59 45.7988 45.7896 59 29.5 59C20.226 59 11.9475 54.7225 6.53613 48.0205C11.5972 52.1136 18.0411 54.5566 25.0566 54.5566C41.3461 54.5566 54.5566 41.3554 54.5566 25.0566C54.5566 18.0411 52.1136 11.5972 48.0205 6.53613C54.7133 11.9475 59 20.226 59 29.5Z" fill="#F4C534"/>
<path d="M26.7639 23.1962C26.7639 28.8639 18.2015 34.0485 18.2015 34.0485C18.2015 34.0485 9.63916 28.8639 9.63916 23.1962C9.63916 20.7754 11.5954 18.821 14.0144 18.821C15.9946 18.821 17.6558 20.1282 18.2071 21.913C18.7454 20.1282 20.4067 18.821 22.3868 18.821C24.7948 18.821 26.7639 20.7772 26.7639 23.1962Z" fill="#E24B4B"/>
<path d="M11.079 19.9715C10.1995 20.7717 9.64087 21.913 9.64087 23.1981C9.64087 28.8657 18.2032 34.0504 18.2032 34.0504C9.23709 26.4781 11.0126 20.1909 11.079 19.9715Z" fill="#D03F3F"/>
<path d="M24.7985 23.0505C24.3818 23.388 23.6738 23.163 23.2092 22.5693C22.728 21.9756 22.6782 21.2529 23.0654 20.9468C23.4821 20.626 24.1901 20.8657 24.6713 21.4612C25.1359 22.0531 25.2005 22.7758 24.7985 23.0505Z" fill="white"/>
<path d="M49.3608 23.1962C49.3608 28.8639 40.7985 34.0485 40.7985 34.0485C40.7985 34.0485 32.2361 28.8639 32.2361 23.1962C32.2361 20.7754 34.1923 18.821 36.6113 18.821C38.5915 18.821 40.2527 20.1282 40.804 21.913C41.3424 20.1282 43.0036 18.821 44.9838 18.821C47.3917 18.821 49.3608 20.7772 49.3608 23.1962Z" fill="#E24B4B"/>
<path d="M33.6762 19.9715C32.7967 20.7717 32.238 21.913 32.238 23.1981C32.238 28.8657 40.8004 34.0504 40.8004 34.0504C31.8343 26.4781 33.6098 20.1909 33.6762 19.9715Z" fill="#D03F3F"/>
<path d="M47.3955 23.0505C46.9788 23.388 46.2708 23.163 45.8061 22.5693C45.3249 21.9756 45.2751 21.2529 45.6623 20.9468C46.079 20.626 46.787 20.8657 47.2682 21.4612C47.7329 22.0531 47.7974 22.7758 47.3955 23.0505Z" fill="white"/>
<path d="M43.9882 43.1106C40.5035 47.2406 35.3097 50.5335 29.5019 50.5335C23.694 50.5335 18.5076 47.2406 15.0045 43.129C13.7876 41.6909 15.0229 39.4968 16.9035 39.8287C25.2004 41.2852 33.5895 41.3037 42.1076 39.8102C43.9698 39.4968 45.2235 41.6724 43.9882 43.1106Z" fill="#3E4347"/>
<path d="M29.5018 50.5335C32.4647 50.5335 35.2654 49.6688 37.7636 48.2804C36.7164 44.3957 33.0676 43.2894 30.5454 44.6298C27.1289 46.4533 23.3068 44.0933 21.8318 48.5828C24.1789 49.7849 26.7657 50.5335 29.5018 50.5335Z" fill="#E24B4B"/>
</g>
<defs>
<clipPath id="clip0">
<rect width="59" height="59" fill="white"/>
</clipPath>
</defs>
</svg>
