<svg width="59" height="59" viewBox="0 0 59 59" fill="none" xmlns="http://www.w3.org/2000/svg">
<path d="M29.5 58.9998C45.7924 58.9998 59 45.7922 59 29.4999C59 13.2075 45.7924 0 29.5 0C13.2076 0 0 13.2075 0 29.4999C0 45.7922 13.2076 58.9998 29.5 58.9998Z" fill="#FFD93B"/>
<path d="M33.7886 54.7168C17.4931 54.7168 4.28304 41.5068 4.28304 25.2113C4.28304 18.1546 6.76346 11.6791 10.896 6.60181C4.24869 12.0119 0 20.2557 0 29.4944C0 45.7898 13.2101 58.9998 29.5056 58.9998C38.7444 58.9998 46.9882 54.751 52.3985 48.1038C47.3211 52.2363 40.8455 54.7168 33.7886 54.7168Z" fill="#F4C534"/>
<path d="M20.9394 58.9998C21.9864 58.9998 22.843 58.1432 22.843 57.0962C22.843 56.0493 21.9864 55.1927 20.9394 55.1927H21.8912C22.9382 55.1927 23.7947 54.3361 23.7947 53.2891C23.7947 52.2421 22.9382 51.3856 21.8912 51.3856H22.843C23.8899 51.3856 24.7465 50.529 24.7465 49.482C24.7465 48.435 23.8899 47.5784 22.843 47.5784H33.3127C34.3641 47.5784 35.2163 46.7261 35.2163 45.6749C35.2163 44.6235 34.364 43.7713 33.3127 43.7713H16.1805C14.6035 43.7713 13.3251 42.4929 13.3251 40.916V35.2053C13.3251 34.1539 12.4728 33.3017 11.4215 33.3017C10.3702 33.3017 9.51795 34.154 9.51795 35.2053V39.8646C9.51795 41.1613 9.07664 42.4195 8.2665 43.4321L7.37926 44.5411C6.29919 45.8912 5.71069 47.5687 5.71069 49.2977V53.2892C5.71069 56.4432 8.26754 58.9999 11.4214 58.9999L20.9394 58.9998Z" fill="#F4C534"/>
<path d="M20.9396 57.0963H22.8432C22.8432 58.1433 21.9865 58.9999 20.9396 59H11.4217C8.26767 59 5.71094 56.4433 5.71094 53.2893V49.2977C5.71094 47.5687 6.29944 45.8912 7.3795 44.5411L8.26674 43.4321C9.07676 42.4195 8.86585 42.9217 9.2206 41.6539V42.5183L9.16297 42.9793L9.04771 43.4321L8.64431 44.5411L8.47143 44.9963L8.26674 45.5726C7.77989 46.898 7.61451 48.0058 7.61451 49.2976V53.2892C7.61451 55.3885 9.32238 57.0963 11.4217 57.0963H20.9396Z" fill="#FFD93B"/>
<path d="M19.0361 54.241C19.0361 54.7666 19.4622 55.1928 19.9879 55.1928H20.9397H21.8915C22.9385 55.1928 23.7951 54.3362 23.7951 53.2892H19.9879C19.4622 53.2892 19.0361 53.7153 19.0361 54.241Z" fill="#FFD93B"/>
<path d="M34.2626 39.2502C34.0832 39.2502 33.901 39.2092 33.7291 39.1228C33.6639 39.0903 27.138 35.8464 19.9244 35.6809C19.2672 35.666 18.7467 35.1214 18.7615 34.4643C18.7764 33.8076 19.322 33.2634 19.9782 33.3024C27.745 33.4803 34.5163 36.8549 34.8007 36.9985C35.3872 37.2942 35.6224 38.0093 35.3269 38.5958C35.1178 39.0109 34.6985 39.2502 34.2626 39.2502Z" fill="#3E4347"/>
<path d="M21.8902 15.4555C21.6309 15.4555 21.3697 15.3709 21.1513 15.1971C20.972 15.0563 16.8794 11.9156 11.9532 14.3782C11.3676 14.6724 10.6501 14.4331 10.3572 13.8461C10.0636 13.2582 10.3015 12.5439 10.8898 12.2497C17.2085 9.08764 22.4164 13.1615 22.6348 13.3367C23.1479 13.747 23.2306 14.4957 22.8207 15.0088C22.5856 15.3026 22.2398 15.4555 21.8902 15.4555Z" fill="#3E4347"/>
<path d="M35.2154 17.3595C34.6595 17.3595 34.1632 16.9682 34.0498 16.4026C33.9206 15.7585 34.3389 15.1316 34.983 15.0029L44.501 13.0993C45.1488 12.9706 45.7716 13.3879 45.9008 14.0325C46.03 14.6767 45.6117 15.3036 44.9676 15.4323L35.4496 17.3359C35.3706 17.3515 35.2926 17.3595 35.2154 17.3595Z" fill="#3E4347"/>
<path d="M17.522 23.9817C16.2594 23.8205 15.3619 22.6296 15.5175 21.3218L15.7431 19.4275C15.8987 18.1197 17.0486 17.1902 18.3113 17.3514C19.574 17.5126 20.4714 18.7036 20.3158 20.0113L20.0903 21.9057C19.9346 23.2134 18.7847 24.1429 17.522 23.9817Z" fill="#3E4347"/>
<path d="M18.3472 17.351C18.1933 17.3312 18.0413 17.3284 17.8924 17.3405L17.5103 20.5756C17.4186 21.3525 17.9474 22.06 18.6917 22.1558C19.4359 22.2515 20.1136 21.6994 20.2053 20.9225L20.3161 19.9847C20.469 18.6898 19.5876 17.5106 18.3472 17.351Z" fill="white"/>
<path d="M37.4253 25.9817C36.119 25.8205 35.1906 24.6296 35.3516 23.3218L35.5849 21.4275C35.746 20.1197 36.9355 19.1902 38.2417 19.3514C39.548 19.5126 40.4764 20.7035 40.3153 22.0113L40.0821 23.9057C39.921 25.2135 38.7315 26.143 37.4253 25.9817Z" fill="#3E4347"/>
<path d="M38.2305 19.3516C38.0676 19.3312 37.9066 19.3282 37.749 19.3407L37.3444 22.6874C37.2473 23.4911 37.8073 24.223 38.5953 24.3221C39.3832 24.4211 40.1008 23.85 40.1979 23.0463L40.3152 22.0761C40.4771 20.7365 39.5439 19.5169 38.2305 19.3516Z" fill="white"/>
</svg>
