<svg width="59" height="59" viewBox="0 0 59 59" fill="none" xmlns="http://www.w3.org/2000/svg">
<path d="M29.5 0C26.8722 0 24.7419 2.13022 24.7419 4.75803V9.51606H34.2581V4.75803C34.258 2.13022 32.1278 0 29.5 0Z" fill="#FAC97A"/>
<path d="M27.5968 2.85484V0.401733C25.9177 1.13658 24.7419 2.80806 24.7419 4.75805V9.51608H34.2581V5.70966H30.4517C28.8749 5.70966 27.5968 4.43159 27.5968 2.85484Z" fill="#FAB667"/>
<path d="M39.0161 7.61304H19.9838C18.9327 7.61304 18.0806 8.46508 18.0806 9.51625V12.3711H40.9193V9.51625C40.9193 8.46508 40.0672 7.61304 39.0161 7.61304Z" fill="#9C969E"/>
<path d="M40.9186 9.51611H18.0803V12.3709H40.9186V9.51611Z" fill="#867E88"/>
<path d="M56.1452 42.8226H2.85487C1.8037 42.8226 0.95166 41.9704 0.95166 40.9194V29.5C0.95166 28.4488 1.80382 27.5968 2.85487 27.5968H56.1452C57.1964 27.5968 58.0484 28.449 58.0484 29.5V40.9194C58.0484 41.9704 57.1963 42.8226 56.1452 42.8226Z" fill="#E6646E"/>
<path d="M55.1938 27.5963H3.80615V42.8222H55.1938V27.5963Z" fill="#DC4655"/>
<path d="M47.5806 58.9999H11.4193C8.26596 58.9999 5.70972 56.4436 5.70972 53.2903V17.1289C5.70972 13.9756 8.26608 11.4193 11.4193 11.4193H47.5806C50.734 11.4193 53.2902 13.9757 53.2902 17.1289V53.2902C53.2903 56.4436 50.734 58.9999 47.5806 58.9999Z" fill="#C4DEFF"/>
<path d="M19.0321 38.0643C23.2363 38.0643 26.6444 34.6561 26.6444 30.4519C26.6444 26.2477 23.2363 22.8395 19.0321 22.8395C14.8279 22.8395 11.4197 26.2477 11.4197 30.4519C11.4197 34.6561 14.8279 38.0643 19.0321 38.0643Z" fill="#A5CDFF"/>
<path d="M19.0321 36.1615C22.1855 36.1615 24.7418 33.6052 24.7418 30.4518C24.7418 27.2985 22.1855 24.7422 19.0321 24.7422C15.8788 24.7422 13.3225 27.2985 13.3225 30.4518C13.3225 33.6052 15.8788 36.1615 19.0321 36.1615Z" fill="white"/>
<path d="M19.0322 37.1129C18.5061 37.1129 18.0806 36.6873 18.0806 36.1613V24.742C18.0806 24.2159 18.5062 23.7903 19.0322 23.7903C19.5581 23.7903 19.9838 24.216 19.9838 24.742V36.1613C19.9838 36.6873 19.5582 37.1129 19.0322 37.1129Z" fill="#E6646E"/>
<path d="M41.871 50.4354H17.129C16.0779 50.4354 15.2258 49.5832 15.2258 48.5322V46.629C15.2258 45.5778 16.078 44.7258 17.129 44.7258H41.871C42.9222 44.7258 43.7742 45.5779 43.7742 46.629V48.5322C43.7742 49.5834 42.9221 50.4354 41.871 50.4354Z" fill="white"/>
<path d="M39.9679 38.0643C44.1721 38.0643 47.5802 34.6561 47.5802 30.4519C47.5802 26.2477 44.1721 22.8395 39.9679 22.8395C35.7636 22.8395 32.3555 26.2477 32.3555 30.4519C32.3555 34.6561 35.7636 38.0643 39.9679 38.0643Z" fill="#A5CDFF"/>
<path d="M39.9679 36.1615C43.1213 36.1615 45.6776 33.6052 45.6776 30.4518C45.6776 27.2985 43.1213 24.7422 39.9679 24.7422C36.8146 24.7422 34.2583 27.2985 34.2583 30.4518C34.2583 33.6052 36.8146 36.1615 39.9679 36.1615Z" fill="white"/>
<path d="M39.9677 37.1129C39.4417 37.1129 39.0161 36.6873 39.0161 36.1613V24.742C39.0161 24.2159 39.4418 23.7903 39.9677 23.7903C40.4937 23.7903 40.9193 24.216 40.9193 24.742V36.1613C40.9193 36.6873 40.4937 37.1129 39.9677 37.1129Z" fill="#E6646E"/>
<path d="M20.9352 44.7259H19.032V50.4355H20.9352V44.7259Z" fill="#DCEBFF"/>
<path d="M25.6933 44.7259H23.79V50.4355H25.6933V44.7259Z" fill="#DCEBFF"/>
<path d="M30.4513 44.7259H28.5481V50.4355H30.4513V44.7259Z" fill="#DCEBFF"/>
<path d="M35.2094 44.7259H33.3062V50.4355H35.2094V44.7259Z" fill="#DCEBFF"/>
<path d="M39.9672 44.7259H38.064V50.4355H39.9672V44.7259Z" fill="#DCEBFF"/>
<path d="M17.1291 55.1935C12.9247 55.1935 9.51614 51.7851 9.51614 47.5806V11.7512C7.29995 12.5359 5.70972 14.6441 5.70972 17.129V53.2902C5.70972 56.4436 8.26608 58.9998 11.4193 58.9998H47.5806C50.0656 58.9998 52.1737 57.4096 52.9583 55.1934H17.1291V55.1935Z" fill="#A5CDFF"/>
</svg>
