<svg width="43" height="27" viewBox="0 0 43 27" fill="none" xmlns="http://www.w3.org/2000/svg">
<path d="M9.75977 16.6309H5.55859V26H0.285156V0.40625H9.79492C12.8184 0.40625 15.1504 1.08008 16.791 2.42773C18.4316 3.77539 19.252 5.67969 19.252 8.14062C19.252 9.88672 18.8711 11.3457 18.1094 12.5176C17.3594 13.6777 16.2168 14.6035 14.6816 15.2949L20.2188 25.7539V26H14.5586L9.75977 16.6309ZM5.55859 12.3594H9.8125C11.1367 12.3594 12.1621 12.0254 12.8887 11.3574C13.6152 10.6777 13.9785 9.74609 13.9785 8.5625C13.9785 7.35547 13.6328 6.40625 12.9414 5.71484C12.2617 5.02344 11.2129 4.67773 9.79492 4.67773H5.55859V12.3594ZM42.6484 0.40625V17.2637C42.6484 20.0645 41.7695 22.2793 40.0117 23.9082C38.2656 25.5371 35.875 26.3516 32.8398 26.3516C29.8516 26.3516 27.4785 25.5605 25.7207 23.9785C23.9629 22.3965 23.0664 20.2227 23.0312 17.457V0.40625H28.3047V17.2988C28.3047 18.9746 28.7031 20.1992 29.5 20.9727C30.3086 21.7344 31.4219 22.1152 32.8398 22.1152C35.8047 22.1152 37.3105 20.5566 37.3574 17.4395V0.40625H42.6484Z" fill="white"/>
</svg>
