<svg width="59" height="59" viewBox="0 0 59 59" fill="none" xmlns="http://www.w3.org/2000/svg">
<g clip-path="url(#clip0)">
<path d="M29.5 59C45.7924 59 59 45.7924 59 29.5C59 13.2076 45.7924 0 29.5 0C13.2076 0 0 13.2076 0 29.5C0 45.7924 13.2076 59 29.5 59Z" fill="#E6646E"/>
<path d="M33.7822 54.7178C17.4898 54.7178 4.28222 41.5102 4.28222 25.2178C4.28222 18.1623 6.76218 11.688 10.8939 6.61169C4.24789 12.0208 0 20.263 0 29.5C0 45.7924 13.2076 59 29.5 59C38.7371 59 46.9793 54.752 52.3885 48.106C47.3121 52.2377 40.8378 54.7178 33.7822 54.7178Z" fill="#DC4655"/>
<path d="M19.5079 30.4516C18.194 30.4516 17.1289 29.3865 17.1289 28.0726V26.1694C17.1289 24.8555 18.194 23.7903 19.5079 23.7903C20.8218 23.7903 21.8869 24.8555 21.8869 26.1694V28.0726C21.8869 29.3865 20.8218 30.4516 19.5079 30.4516Z" fill="#3E4347"/>
<path d="M19.508 23.7903C19.3451 23.7903 19.1861 23.8071 19.0322 23.8383V27.121C19.0322 27.9093 19.6713 28.5484 20.4596 28.5484C21.248 28.5484 21.887 27.9093 21.887 27.121V26.1694C21.887 24.8555 20.822 23.7903 19.508 23.7903Z" fill="#6E5A64"/>
<path d="M39.4921 30.4516C38.1781 30.4516 37.113 29.3865 37.113 28.0726V26.1694C37.113 24.8555 38.1781 23.7903 39.4921 23.7903C40.806 23.7903 41.8711 24.8555 41.8711 26.1694V28.0726C41.8711 29.3865 40.806 30.4516 39.4921 30.4516Z" fill="#3E4347"/>
<path d="M39.4919 23.7903C39.329 23.7903 39.17 23.8071 39.0161 23.8383V27.121C39.0161 27.9093 39.6552 28.5484 40.4435 28.5484C41.2318 28.5484 41.8709 27.9093 41.8709 27.121V26.1694C41.8709 24.8555 40.8058 23.7903 39.4919 23.7903Z" fill="#6E5A64"/>
<path d="M23.784 22.1249C23.6595 22.1249 23.5332 22.1055 23.4077 22.0636L14.8431 19.2088C14.2205 19.0016 13.8831 18.3278 14.0913 17.7043C14.2976 17.0817 14.9677 16.7434 15.5958 16.9525L24.1604 19.8073C24.783 20.0145 25.1204 20.6883 24.9122 21.3118C24.7468 21.8099 24.2822 22.1249 23.784 22.1249Z" fill="#3E4347"/>
<path d="M35.2033 22.1249C34.7052 22.1249 34.2405 21.8099 34.0752 21.3118C33.8671 20.6883 34.2044 20.0145 34.827 19.8073L43.3915 16.9525C44.0132 16.7434 44.6888 17.0817 44.896 17.7043C45.1041 18.3278 44.7669 19.0016 44.1442 19.2088L35.5797 22.0636C35.4551 22.1055 35.3279 22.1249 35.2033 22.1249Z" fill="#3E4347"/>
<path d="M49.4839 35.2095H9.51625C8.46508 35.2095 7.61304 36.0617 7.61304 37.1127V50.4353C7.61304 51.4865 8.4652 52.3385 9.51625 52.3385H49.484C50.5352 52.3385 51.3872 51.4864 51.3872 50.4353V37.1129C51.3871 36.0617 50.5351 35.2095 49.4839 35.2095Z" fill="#3E4347"/>
<path d="M45.5956 46.153L46.3502 45.3985C46.7219 45.0267 46.7219 44.4245 46.3502 44.0529C45.9784 43.6811 45.3762 43.6811 45.0046 44.0529L44.25 44.8074L43.5833 44.1407C44.2727 43.619 44.7258 42.8001 44.7258 41.8708C44.7258 40.2966 43.4452 39.016 41.871 39.016C40.2968 39.016 39.0162 40.2966 39.0162 41.8708C39.0162 42.1757 39.0769 42.464 39.1659 42.7398C38.409 43.4296 37.9889 44.4434 38.0767 45.4895C38.2216 47.1957 39.7421 48.5321 41.5383 48.5321C42.5321 48.5321 43.4966 48.1446 44.2347 47.4833L45.0046 48.2532C45.1905 48.4391 45.4339 48.5319 45.6774 48.5319C45.9209 48.5319 46.1644 48.4391 46.3503 48.2532C46.722 47.8814 46.722 47.2792 46.3503 46.9076L45.5956 46.153ZM41.871 40.9192C42.396 40.9192 42.8226 41.3458 42.8226 41.8708C42.8226 42.3958 42.396 42.8224 41.871 42.8224C41.346 42.8224 40.9194 42.3958 40.9194 41.8708C40.9194 41.3457 41.3459 40.9192 41.871 40.9192ZM41.5383 46.6288C40.7363 46.6288 40.0338 46.0452 39.9724 45.3297C39.9392 44.9286 40.0737 44.5519 40.3259 44.2647C40.6546 44.4775 41.03 44.6186 41.4327 44.6814L42.889 46.1377C42.5084 46.4465 42.0311 46.6288 41.5383 46.6288Z" fill="white"/>
<path d="M20.5545 39.2064C20.1345 38.8922 19.5378 38.9759 19.2229 39.3969L13.5133 47.0098C13.1973 47.4298 13.2828 48.0265 13.7037 48.3415C13.8747 48.4697 14.0746 48.5319 14.2735 48.5319C14.5634 48.5319 14.8487 48.4009 15.0355 48.151L20.7451 40.538C21.061 40.118 20.9755 39.5214 20.5545 39.2064Z" fill="white"/>
<path d="M24.7421 45.6772C25.2682 45.6772 25.6937 45.2516 25.6937 44.7256V39.9676C25.6937 39.4416 25.2681 39.016 24.7421 39.016C24.2161 39.016 23.7905 39.4417 23.7905 39.9676V44.7256C23.7905 45.2517 24.2161 45.6772 24.7421 45.6772Z" fill="white"/>
<path d="M24.7421 46.629C24.2161 46.629 23.7905 47.0546 23.7905 47.5806C23.7905 48.1065 24.2162 48.5322 24.7421 48.5322H24.7515C25.2775 48.5322 25.6985 48.1065 25.6985 47.5806C25.6985 47.0546 25.2681 46.629 24.7421 46.629Z" fill="white"/>
<path d="M36.1614 40.9194H35.9522L36.1326 40.1983C36.2608 39.6891 35.9504 39.1724 35.4402 39.045C34.9301 38.9131 34.4143 39.2263 34.287 39.7373L33.9914 40.9194H32.1459L32.3263 40.1983C32.4545 39.6891 32.1441 39.1724 31.6339 39.045C31.1218 38.9131 30.6071 39.2263 30.4807 39.7373L30.1851 40.9194H29.5001C28.9741 40.9194 28.5485 41.3451 28.5485 41.871C28.5485 42.397 28.9742 42.8226 29.5001 42.8226H29.7093L29.2335 44.7258H28.5485C28.0225 44.7258 27.5969 45.1515 27.5969 45.6775C27.5969 46.2034 28.0226 46.6291 28.5485 46.6291H28.7577L28.5773 47.3502C28.4491 47.8594 28.7595 48.3761 29.2697 48.5035C29.3468 48.5229 29.4249 48.5323 29.5011 48.5323C29.9277 48.5323 30.3152 48.2442 30.4229 47.8111L30.7185 46.6291H32.5641L32.3838 47.3502C32.2555 47.8594 32.566 48.3761 33.0761 48.5035C33.1532 48.5229 33.2313 48.5323 33.3075 48.5323C33.7341 48.5323 34.1216 48.2442 34.2294 47.8111L34.5249 46.6291H35.2099C35.7359 46.6291 36.1615 46.2034 36.1615 45.6775C36.1615 45.1515 35.7358 44.7258 35.2099 44.7258H35.0007L35.4765 42.8226H36.1615C36.6875 42.8226 37.1131 42.397 37.1131 41.871C37.1131 41.3451 36.6874 40.9194 36.1614 40.9194ZM33.0399 44.7258H31.1943L31.6701 42.8226H33.5157L33.0399 44.7258Z" fill="white"/>
<path d="M16.1775 40.9192C16.1775 39.87 15.3235 39.016 14.2743 39.016C13.2251 39.016 12.3711 39.87 12.3711 40.9192C12.3711 41.9684 13.2251 42.8224 14.2743 42.8224C15.3235 42.8224 16.1775 41.9684 16.1775 40.9192Z" fill="white"/>
<path d="M19.984 44.726C18.9348 44.726 18.0808 45.58 18.0808 46.6292C18.0808 47.6784 18.9348 48.5324 19.984 48.5324C21.0332 48.5324 21.8872 47.6784 21.8872 46.6292C21.8872 45.58 21.0332 44.726 19.984 44.726Z" fill="white"/>
</g>
<defs>
<clipPath id="clip0">
<rect width="59" height="59" fill="white"/>
</clipPath>
</defs>
</svg>
