<svg width="66" height="27" viewBox="0 0 66 27" fill="none" xmlns="http://www.w3.org/2000/svg">
<path d="M9.736 26.504C6.928 26.504 4.624 25.712 2.824 24.128C1.024 22.544 0.124 20.42 0.124 17.756V0.799998H5.056V17.36C5.056 18.68 5.428 19.724 6.172 20.492C6.94 21.26 8.128 21.644 9.736 21.644C11.344 21.644 12.52 21.26 13.264 20.492C14.032 19.724 14.416 18.68 14.416 17.36V0.799998H19.384V17.756C19.384 20.42 18.484 22.544 16.684 24.128C14.884 25.712 12.568 26.504 9.736 26.504ZM43.5515 26H37.8275L28.8275 14.192V26H23.8595V0.799998H28.8275V11.924L37.4675 0.799998H43.1915L33.8675 13.04L43.5515 26ZM59.832 26L54.756 17.252H50.976V26H46.008V0.799998H56.088C58.416 0.799998 60.396 1.616 62.028 3.248C63.66 4.88 64.476 6.848 64.476 9.152C64.476 10.712 64.032 12.164 63.144 13.508C62.256 14.828 61.08 15.824 59.616 16.496L65.196 26H59.832ZM50.976 5.444V12.896H56.088C57.024 12.896 57.828 12.536 58.5 11.816C59.172 11.072 59.508 10.184 59.508 9.152C59.508 8.12 59.172 7.244 58.5 6.524C57.828 5.804 57.024 5.444 56.088 5.444H50.976Z" fill="#3F4545"/>
</svg>
