<?xml version="1.0" encoding="utf-8"?>
<!-- Generator: Adobe Illustrator 16.0.0, SVG Export Plug-In . SVG Version: 6.00 Build 0)  -->
<!DOCTYPE svg PUBLIC "-//W3C//DTD SVG 1.1//EN" "http://www.w3.org/Graphics/SVG/1.1/DTD/svg11.dtd">
<svg version="1.1" id="Layer_1" xmlns="http://www.w3.org/2000/svg" xmlns:xlink="http://www.w3.org/1999/xlink" x="0px" y="0px"
	 width="1440px" height="768px" viewBox="0 0 1440 768" enable-background="new 0 0 1440 768" xml:space="preserve">
<g>
	<defs>
		<rect id="SVGID_1_" width="1440" height="768"/>
	</defs>
	<clipPath id="SVGID_2_">
		<use xlink:href="#SVGID_1_"  overflow="visible"/>
	</clipPath>
	<rect clip-path="url(#SVGID_2_)" fill="#FFE800" width="1440" height="768"/>
	<g clip-path="url(#SVGID_2_)">
		<circle fill="none" stroke="#C3D600" stroke-width="2" stroke-miterlimit="10" cx="1480.569" cy="67.439" r="593.567"/>
		<circle fill="#F4004D" cx="1136.778" cy="551.107" r="15.5"/>
		<g>
			<path fill="#F4004D" d="M1136.778,531.107c11.028,0,20,8.972,20,20c0,11.028-8.972,20-20,20s-20-8.972-20-20
				C1116.778,540.08,1125.75,531.107,1136.778,531.107 M1136.778,528.607c-12.427,0-22.5,10.074-22.5,22.5
				c0,12.427,10.073,22.5,22.5,22.5s22.5-10.073,22.5-22.5C1159.278,538.681,1149.205,528.607,1136.778,528.607L1136.778,528.607z"
				/>
		</g>
		<circle fill="none" stroke="#F4004D" stroke-width="2" stroke-miterlimit="10" cx="1352.456" cy="889.822" r="401.696"/>
		<circle fill="none" stroke="#C3D600" stroke-width="2" stroke-miterlimit="10" cx="-13.19" cy="156.633" r="339.949"/>
		<circle fill="none" stroke="#C3D600" stroke-width="2" stroke-miterlimit="10" cx="1071.468" cy="749.975" r="590.583"/>
		<g>
			
				<circle fill="none" stroke="#F4004D" stroke-width="2" stroke-miterlimit="10" stroke-dasharray="6.0735,6.0735" cx="172.582" cy="686.76" r="508.405"/>
		</g>
		<g>
			<circle fill="#C3D600" cx="322.658" cy="202.203" r="13.5"/>
			<g>
				<path fill="#C3D600" d="M322.658,180.194c12.136,0,22.008,9.873,22.008,22.008c0,12.135-9.873,22.008-22.008,22.008
					s-22.008-9.873-22.008-22.008C300.65,190.067,310.522,180.194,322.658,180.194 M322.658,177.443
					c-13.674,0-24.759,11.085-24.759,24.76s11.085,24.759,24.759,24.759s24.759-11.085,24.759-24.759
					S336.333,177.443,322.658,177.443L322.658,177.443z"/>
			</g>
		</g>
	</g>
</g>
<rect display="none" fill="#C3D600" width="106" height="768"/>
<g display="none">
	<g display="inline">
		<text transform="matrix(0.95 0 0 1 9.3789 751.1689)" font-family="'Gilroy-Regular'" font-size="12">Ассистент для Вип</text>
	</g>
	<path display="inline" fill="#FFFFFF" d="M63,737.498H43c-2.761,0-5-2.238-5-5v-20c0-2.762,2.239-5,5-5h20c2.761,0,5,2.238,5,5v20
		C68,735.26,65.761,737.498,63,737.498z"/>
	<g display="inline">
		<text transform="matrix(1 0 0 1 44.3613 727.4355)" fill="#181716" font-family="'Gilroy-Black'" font-size="13">VIP</text>
	</g>
</g>
<rect x="160.481" y="20.5" display="none" fill="#FFFFFF" stroke="#C3D600" stroke-miterlimit="10" width="486" height="44"/>
<circle display="none" fill="#FFFFFF" stroke="#C3D600" stroke-miterlimit="10" cx="1379.582" cy="42.5" r="27"/>
<g display="none">
	<g display="inline">
		<text transform="matrix(1 0 0 1 23.2822 234.4902)" font-family="'Gilroy-Regular'" font-size="12">Программа</text>
	</g>
	<g display="inline">
		<path fill="#FFFFFF" d="M63,220.819H43c-2.761,0-5-2.239-5-5v-20c0-2.761,2.239-5,5-5h20c2.761,0,5,2.239,5,5v20
			C68,218.58,65.761,220.819,63,220.819z"/>
		<path d="M45.46,198.011h-2.848c-0.509,0-0.922-0.413-0.922-0.922v-2.848c0-0.509,0.413-0.922,0.922-0.922h2.848
			c0.509,0,0.922,0.413,0.922,0.922v2.848C46.382,197.598,45.97,198.011,45.46,198.011z"/>
		<rect x="48.273" y="194.915" width="16.037" height="1.5"/>
		<path d="M45.46,218.319h-2.848c-0.509,0-0.922-0.413-0.922-0.922v-2.848c0-0.509,0.413-0.922,0.922-0.922h2.848
			c0.509,0,0.922,0.413,0.922,0.922v2.848C46.382,217.906,45.97,218.319,45.46,218.319z"/>
		<rect x="48.273" y="215.223" width="16.037" height="1.5"/>
		<path d="M45.46,204.78h-2.848c-0.509,0-0.922-0.413-0.922-0.922v-2.848c0-0.51,0.413-0.922,0.922-0.922h2.848
			c0.509,0,0.922,0.413,0.922,0.922v2.848C46.382,204.368,45.97,204.78,45.46,204.78z"/>
		<rect x="48.273" y="201.685" width="16.037" height="1.5"/>
		<path d="M45.46,211.55h-2.848c-0.509,0-0.922-0.413-0.922-0.922v-2.848c0-0.509,0.413-0.922,0.922-0.922h2.848
			c0.509,0,0.922,0.413,0.922,0.922v2.848C46.382,211.137,45.97,211.55,45.46,211.55z"/>
		<rect x="48.273" y="208.454" width="16.037" height="1.5"/>
	</g>
</g>
<g display="none">
	<path display="inline" fill="#FFFFFF" d="M63,393.045H43c-2.761,0-5-2.238-5-5v-20c0-2.761,2.239-5,5-5h20c2.761,0,5,2.239,5,5v20
		C68,390.807,65.761,393.045,63,393.045z"/>
	<g display="inline">
		<text transform="matrix(1 0 0 1 22.1245 406.7158)" font-family="'Gilroy-Regular'" font-size="12">Нетворкинг</text>
	</g>
	<g display="inline">
		<path d="M55.586,371.136c1.156,0.725,1.966,1.951,2.114,3.375c0.471,0.22,0.995,0.347,1.549,0.347
			c2.025,0,3.667-1.641,3.667-3.666c0-2.025-1.642-3.667-3.667-3.667C57.244,367.526,55.617,369.138,55.586,371.136z
			 M53.185,378.644c2.025,0,3.667-1.642,3.667-3.667c0-2.025-1.642-3.667-3.667-3.667c-2.025,0-3.667,1.642-3.667,3.667
			S51.16,378.644,53.185,378.644z M54.74,378.893h-3.111c-2.588,0-4.694,2.106-4.694,4.695v3.805l0.009,0.06l0.262,0.082
			c2.47,0.772,4.617,1.029,6.383,1.029c3.45,0,5.45-0.984,5.573-1.046l0.245-0.124h0.026v-3.805
			C59.434,381,57.328,378.893,54.74,378.893z M60.806,375.108h-3.087c-0.034,1.235-0.561,2.347-1.395,3.147
			c2.301,0.685,3.984,2.818,3.984,5.338v1.172c3.048-0.111,4.805-0.976,4.92-1.034l0.245-0.124H65.5v-3.806
			C65.5,377.214,63.394,375.108,60.806,375.108z M46.751,374.858c0.717,0,1.384-0.209,1.95-0.566
			c0.18-1.172,0.808-2.196,1.706-2.894c0.004-0.068,0.01-0.137,0.01-0.206c0-2.025-1.642-3.667-3.666-3.667
			c-2.026,0-3.667,1.642-3.667,3.667C43.084,373.217,44.725,374.858,46.751,374.858z M50.043,378.255
			c-0.83-0.796-1.355-1.902-1.394-3.13c-0.115-0.008-0.228-0.017-0.345-0.017h-3.11c-2.589,0-4.695,2.106-4.695,4.694v3.806
			l0.01,0.059l0.262,0.083c1.982,0.619,3.75,0.904,5.287,0.994v-1.149C46.059,381.073,47.742,378.94,50.043,378.255z"/>
	</g>
</g>
<g display="none">
	<path display="inline" fill="#FFFFFF" d="M63,163.41H43c-2.761,0-5-2.239-5-5v-20c0-2.762,2.239-5,5-5h20c2.761,0,5,2.238,5,5v20
		C68,161.171,65.761,163.41,63,163.41z"/>
	<g display="inline">
		<text transform="matrix(1 0 0 1 35.9482 177.0815)" font-family="'Gilroy-Regular'" font-size="12">Сцены</text>
	</g>
	<g display="inline">
		<g>
			<g>
				<rect x="52.583" y="153.306" width="0.833" height="0.833"/>
			</g>
		</g>
		<g>
			<g>
				<rect x="51.75" y="154.973" width="2.5" height="0.833"/>
			</g>
		</g>
		<g>
			<g>
				<path d="M65.083,137.264H40.917c-0.23,0-0.417,0.187-0.417,0.417v1.667c0,0.23,0.187,0.417,0.417,0.417h0.833v15.625
					c0,0.23,0.187,0.417,0.417,0.417h7.655l0.192,1.25h-0.347c-0.23,0-0.417,0.187-0.417,0.417v1.667
					c0,0.23,0.187,0.417,0.417,0.417h6.667c0.23,0,0.417-0.187,0.417-0.417v-1.667c0-0.23-0.187-0.417-0.417-0.417h-0.348
					l0.192-1.25h7.655c0.23,0,0.417-0.187,0.417-0.417v-15.625h0.833c0.23,0,0.417-0.187,0.417-0.417v-1.667
					C65.5,137.451,65.313,137.264,65.083,137.264z M50.153,152.473h5.695l-0.705,4.583h-4.285L50.153,152.473z M63.417,154.973
					h-7.11l0.384-2.5h0.893c0.191,0,0.358-0.13,0.404-0.316l0.417-1.667c0.056-0.224-0.08-0.45-0.303-0.505
					c-0.033-0.008-0.067-0.012-0.101-0.012h-0.833v-1.25c0-0.111-0.044-0.217-0.122-0.295l-0.836-0.836
					c0.082-0.167,0.125-0.35,0.125-0.536c0-0.69-0.56-1.25-1.25-1.25s-1.25,0.56-1.25,1.25s0.56,1.25,1.25,1.25
					c0.186,0,0.369-0.043,0.536-0.125l0.714,0.714v1.078h-6.667v-1.078l0.714-0.714c0.167,0.082,0.35,0.125,0.536,0.125
					c0.69,0,1.25-0.56,1.25-1.25s-0.56-1.25-1.25-1.25s-1.25,0.56-1.25,1.25c0,0.186,0.043,0.369,0.125,0.536l-0.837,0.836
					c-0.078,0.078-0.122,0.184-0.122,0.295v1.25H48c-0.23,0-0.417,0.187-0.417,0.417c0,0.034,0.004,0.068,0.013,0.101l0.417,1.667
					c0.046,0.186,0.213,0.315,0.404,0.316h0.892l0.385,2.5h-7.11v-15.208h20.833V154.973z"/>
			</g>
		</g>
	</g>
</g>
<g display="none">
	<path display="inline" fill="#FFFFFF" d="M63,335.636H43c-2.761,0-5-2.238-5-5v-20c0-2.761,2.239-5,5-5h20c2.761,0,5,2.239,5,5v20
		C68,333.398,65.761,335.636,63,335.636z"/>
	<g display="inline">
		<text transform="matrix(1 0 0 1 18.5728 349.3076)" font-family="'Gilroy-Regular'" font-size="12">Презентации</text>
	</g>
	<g display="inline">
		<g transform="translate(0.000000,250.000000) scale(0.100000,-0.100000)">
			<path d="M410-636.553v-41.064h43.53h43.53v41.064v41.069h-43.53H410V-636.553z M483.921-636.553v-27.925H453.53H423.14v27.925
				v27.93h30.391h30.391V-636.553z"/>
			<path d="M511.846-650.513v-27.104l28.418,0.327l28.257,0.493v26.284v26.279l-28.257,0.493l-28.418,0.327V-650.513z"/>
			<path d="M592.339-650.513v-27.104l28.418,0.327l28.257,0.493v26.284v26.279l-28.257,0.498l-28.418,0.327V-650.513z"/>
			<path d="M431.353-720.332v-26.279h28.75h28.911l-0.493,25.952l-0.493,25.791l-28.252,0.493l-28.423,0.332V-720.332z"/>
			<path d="M511.846-720.332v-26.279h28.75h28.911l-0.493,25.952l-0.493,25.791l-28.257,0.493l-28.418,0.332V-720.332
				L511.846-720.332z"/>
			<path d="M592.339-720.332v-26.279h28.75H650l-0.493,25.952l-0.493,25.791l-28.257,0.493l-28.418,0.332V-720.332L592.339-720.332z
				"/>
			<path d="M431.353-790.967v-26.279l28.423,0.327l28.252,0.493l0.493,25.952l0.493,25.796h-28.911h-28.75V-790.967z"/>
			<path d="M511.846-790.967v-26.279l28.418,0.327l28.257,0.493l0.493,25.952l0.493,25.796h-28.911h-28.75V-790.967L511.846-790.967
				z"/>
			<path d="M592.339-790.967v-26.279l28.418,0.327l28.257,0.493l0.493,25.952L650-764.678h-28.911h-28.75V-790.967L592.339-790.967z
				"/>
		</g>
	</g>
</g>
<g display="none">
	<g display="inline">
		<circle fill="#F4004D" cx="37.448" cy="38" r="17.5"/>
	</g>
	<g display="inline">
		<g>
			<path d="M36.509,26.575h0.987v3.4c0,0.344-0.046,0.641-0.137,0.892c-0.091,0.25-0.219,0.458-0.383,0.622
				c-0.165,0.165-0.36,0.288-0.588,0.368c-0.228,0.081-0.478,0.122-0.751,0.122c-0.658,0-1.145-0.159-1.461-0.478
				c-0.316-0.319-0.474-0.784-0.474-1.396v-3.529h1.04v3.324c0,0.405,0.073,0.698,0.22,0.88c0.146,0.182,0.377,0.273,0.69,0.273
				c0.304,0,0.522-0.098,0.656-0.292c0.134-0.195,0.201-0.482,0.201-0.861V26.575z"/>
		</g>
		<g>
			<path d="M41.249,29.671H40.71v2.216h-1.04v-5.312h1.04v2.17h0.539l1.214-2.17h1.184l-1.495,2.565l1.685,2.747h-1.282
				L41.249,29.671z"/>
		</g>
		<g>
			<path d="M45.776,26.628c0.117-0.02,0.242-0.039,0.376-0.057c0.134-0.018,0.268-0.032,0.402-0.042
				c0.134-0.01,0.265-0.018,0.391-0.022c0.126-0.005,0.243-0.008,0.349-0.008c0.248,0,0.492,0.024,0.732,0.072
				c0.24,0.048,0.456,0.13,0.645,0.247c0.19,0.116,0.342,0.273,0.456,0.47s0.171,0.443,0.171,0.736c0,0.217-0.022,0.406-0.064,0.565
				c-0.043,0.159-0.103,0.3-0.179,0.421c-0.076,0.122-0.168,0.227-0.277,0.315c-0.109,0.089-0.227,0.168-0.353,0.239l1.283,2.322
				h-1.199l-1.07-2.079h-0.622v2.079h-1.04V26.628z M47.37,27.425c-0.106,0-0.211,0.003-0.315,0.008s-0.184,0.015-0.239,0.03v1.541
				h0.41c0.288,0,0.523-0.066,0.706-0.197c0.182-0.132,0.273-0.349,0.273-0.653c0-0.228-0.071-0.406-0.212-0.535
				C47.85,27.49,47.643,27.425,47.37,27.425z"/>
		</g>
		<g>
			<path d="M54.422,30.711h-1.586l-0.364,1.176h-1.04l1.715-5.312h1.04l1.708,5.312h-1.093L54.422,30.711z M53.079,29.876h1.139
				l-0.539-1.776H53.61L53.079,29.876z"/>
		</g>
		<g>
			<path d="M57.883,30.961h1.343v-3.46h-1.343v-0.926h3.734v0.926h-1.351v3.46h1.351v0.926h-3.734V30.961z"/>
		</g>
		<g>
			<path d="M64.954,28.746h-0.038l0.045,0.63v2.512h-0.986v-5.312h0.911l1.836,3.248h0.038l-0.068-0.637v-2.611h0.986v5.312h-0.911
				L64.954,28.746z"/>
		</g>
		<g>
			<path d="M70.042,30.961h1.343v-3.46h-1.343v-0.926h3.733v0.926h-1.351v3.46h1.351v0.926h-3.733V30.961z"/>
		</g>
		<g>
			<path d="M78.749,30.711h-1.586l-0.364,1.176h-1.04l1.715-5.312h1.04l1.708,5.312h-1.093L78.749,30.711z M77.405,29.876h1.138
				l-0.539-1.776h-0.068L77.405,29.876z"/>
		</g>
		<g>
			<path d="M83.206,28.746h-0.038l0.045,0.63v2.512h-0.986v-5.312h0.911l1.836,3.248h0.038l-0.068-0.637v-2.611h0.986v5.312H85.02
				L83.206,28.746z"/>
		</g>
		<g>
			<path d="M36.532,37.671l0.038-0.827h-0.046l-0.85,1.389h-0.182l-0.888-1.389h-0.038l0.045,0.744v2.914h-0.986v-5.312h1.055
				l0.911,1.473h0.03l0.903-1.473h1.047v5.312h-1.04V37.671z"/>
		</g>
		<g>
			<path d="M42.341,39.325h-1.586l-0.364,1.176h-1.04l1.715-5.312h1.04l1.707,5.312h-1.092L42.341,39.325z M40.999,38.491h1.138
				l-0.539-1.776H41.53L40.999,38.491z"/>
		</g>
		<g>
			<path d="M45.776,35.243c0.117-0.02,0.242-0.039,0.376-0.057c0.134-0.018,0.268-0.032,0.402-0.042
				c0.134-0.01,0.265-0.018,0.391-0.022c0.126-0.005,0.243-0.008,0.349-0.008c0.248,0,0.492,0.024,0.732,0.072
				c0.24,0.048,0.456,0.13,0.645,0.247c0.19,0.116,0.342,0.273,0.456,0.47s0.171,0.443,0.171,0.736c0,0.217-0.022,0.406-0.064,0.565
				c-0.043,0.159-0.103,0.299-0.179,0.421c-0.076,0.122-0.168,0.227-0.277,0.315s-0.227,0.168-0.353,0.239l1.283,2.322h-1.199
				l-1.07-2.079h-0.622v2.079h-1.04V35.243z M47.37,36.04c-0.106,0-0.211,0.002-0.315,0.007c-0.104,0.005-0.184,0.016-0.239,0.031
				v1.541h0.41c0.288,0,0.523-0.066,0.706-0.197c0.182-0.132,0.273-0.349,0.273-0.653c0-0.228-0.071-0.406-0.212-0.535
				C47.85,36.104,47.643,36.04,47.37,36.04z"/>
		</g>
		<g>
			<path d="M53.33,38.286h-0.539v2.216h-1.04v-5.312h1.04v2.17h0.539l1.214-2.17h1.184l-1.495,2.565l1.685,2.747h-1.283
				L53.33,38.286z"/>
		</g>
		<g>
			<path d="M57.99,35.189h3.483v0.926h-2.443v1.237h2.254v0.926h-2.254v1.297h2.481v0.926H57.99V35.189z"/>
		</g>
		<g>
			<path d="M64.445,39.667h0.865v-3.643h-0.729v0.918h-0.835v-1.753h4.159v1.753h-0.834v-0.918H66.35v3.643h0.858v0.834h-2.763
				V39.667z"/>
		</g>
		<g>
			<path d="M70.042,39.576h1.343v-3.46h-1.343v-0.926h3.733v0.926h-1.351v3.46h1.351v0.926h-3.733V39.576z"/>
		</g>
		<g>
			<path d="M77.117,37.36h-0.038l0.045,0.63v2.512h-0.986v-5.312h0.91l1.836,3.248h0.038L78.854,37.8v-2.611h0.987v5.312h-0.911
				L77.117,37.36z"/>
		</g>
		<g>
			<path d="M84.238,37.732h1.814v2.398c-0.172,0.157-0.396,0.276-0.672,0.356c-0.275,0.081-0.558,0.122-0.846,0.122
				c-0.339,0-0.657-0.058-0.953-0.175c-0.296-0.116-0.553-0.292-0.77-0.527c-0.218-0.235-0.39-0.526-0.516-0.873
				c-0.126-0.346-0.19-0.752-0.19-1.218c0-0.491,0.076-0.908,0.228-1.252c0.151-0.344,0.348-0.626,0.588-0.846
				c0.24-0.22,0.51-0.381,0.808-0.482c0.299-0.102,0.595-0.152,0.888-0.152c0.303,0,0.556,0.024,0.759,0.072
				c0.202,0.048,0.387,0.11,0.554,0.186v1.571h-0.834V36.07c-0.041-0.01-0.081-0.02-0.122-0.03c-0.101-0.02-0.212-0.03-0.334-0.03
				c-0.208,0-0.399,0.036-0.577,0.106c-0.177,0.071-0.33,0.181-0.459,0.331c-0.129,0.149-0.229,0.34-0.3,0.573
				c-0.071,0.233-0.106,0.511-0.106,0.835c0,0.288,0.036,0.546,0.106,0.773c0.071,0.228,0.169,0.42,0.296,0.577
				s0.277,0.276,0.452,0.356c0.174,0.081,0.363,0.122,0.565,0.122c0.131,0,0.251-0.015,0.36-0.045
				c0.109-0.031,0.183-0.061,0.224-0.091v-1.055h-0.964V37.732z"/>
		</g>
		<g>
			<path d="M33.914,43.968h3.37v0.926h-2.33v1.313h2.163v0.926h-2.163v2.147h-1.04V43.968z"/>
		</g>
		<g>
			<path d="M39.579,46.624c0-0.43,0.041-0.817,0.122-1.161s0.205-0.634,0.372-0.869c0.167-0.235,0.376-0.416,0.626-0.542
				s0.545-0.189,0.884-0.189c0.364,0,0.673,0.068,0.926,0.205s0.459,0.326,0.619,0.569c0.159,0.243,0.276,0.534,0.349,0.873
				s0.11,0.711,0.11,1.116c0,0.865-0.166,1.542-0.497,2.03c-0.331,0.488-0.833,0.732-1.506,0.732c-0.364,0-0.674-0.068-0.93-0.205
				s-0.462-0.326-0.622-0.569c-0.159-0.243-0.274-0.534-0.345-0.873C39.615,47.4,39.579,47.029,39.579,46.624z M40.672,46.624
				c0,0.258,0.012,0.498,0.034,0.721c0.023,0.223,0.066,0.417,0.129,0.581c0.063,0.165,0.154,0.295,0.273,0.391
				c0.119,0.096,0.277,0.145,0.474,0.145c0.177,0,0.324-0.037,0.44-0.11c0.116-0.073,0.21-0.186,0.281-0.337
				c0.071-0.152,0.12-0.343,0.148-0.573c0.028-0.23,0.042-0.502,0.042-0.815c0-0.248-0.009-0.483-0.026-0.706
				c-0.018-0.222-0.058-0.417-0.122-0.584c-0.063-0.167-0.155-0.3-0.277-0.398s-0.283-0.148-0.486-0.148
				c-0.354,0-0.594,0.154-0.721,0.463S40.672,46.017,40.672,46.624z"/>
		</g>
		<g>
			<path d="M45.776,44.021c0.117-0.02,0.242-0.039,0.376-0.057c0.134-0.018,0.268-0.031,0.402-0.042
				c0.134-0.01,0.265-0.018,0.391-0.023c0.126-0.005,0.243-0.007,0.349-0.007c0.248,0,0.492,0.024,0.732,0.072
				c0.24,0.048,0.456,0.13,0.645,0.247c0.19,0.116,0.342,0.273,0.456,0.47s0.171,0.443,0.171,0.736c0,0.217-0.022,0.406-0.064,0.565
				c-0.043,0.159-0.103,0.299-0.179,0.421c-0.076,0.122-0.168,0.227-0.277,0.315s-0.227,0.168-0.353,0.239l1.283,2.322h-1.199
				l-1.07-2.079h-0.622v2.079h-1.04V44.021z M47.37,44.818c-0.106,0-0.211,0.002-0.315,0.007c-0.104,0.005-0.184,0.016-0.239,0.031
				v1.54h0.41c0.288,0,0.523-0.065,0.706-0.197c0.182-0.131,0.273-0.349,0.273-0.652c0-0.228-0.071-0.406-0.212-0.535
				C47.85,44.882,47.643,44.818,47.37,44.818z"/>
		</g>
		<g>
			<path d="M54.574,43.968h0.987v3.4c0,0.344-0.046,0.641-0.137,0.892c-0.091,0.25-0.219,0.458-0.383,0.622
				c-0.165,0.165-0.36,0.287-0.588,0.368c-0.228,0.081-0.478,0.122-0.751,0.122c-0.658,0-1.145-0.16-1.461-0.478
				c-0.316-0.319-0.474-0.784-0.474-1.396v-3.529h1.04v3.324c0,0.405,0.073,0.698,0.22,0.88c0.146,0.182,0.376,0.273,0.69,0.273
				c0.303,0,0.522-0.098,0.656-0.292c0.134-0.194,0.201-0.482,0.201-0.861V43.968z"/>
		</g>
		<g>
			<path d="M60.684,46.449l0.038-0.827h-0.046l-0.85,1.389h-0.182l-0.888-1.389h-0.038l0.045,0.744v2.914h-0.986v-5.312h1.055
				l0.911,1.472h0.03l0.903-1.472h1.047v5.312h-1.04V46.449z"/>
		</g>
	</g>
</g>
<g display="none">
	<g display="inline">
		<text transform="matrix(1 0 0 1 18.2305 578.9424)" font-family="'Gilroy-Regular'" font-size="12">Переговорки</text>
	</g>
	<path display="inline" fill="#FFFFFF" d="M63,565.271H43c-2.761,0-5-2.239-5-5v-20c0-2.762,2.239-5,5-5h20c2.761,0,5,2.238,5,5v20
		C68,563.033,65.761,565.271,63,565.271z"/>
	<g display="inline">
		<path d="M42.603,545.034c0-1.647,1.335-2.983,2.983-2.983s2.983,1.336,2.983,2.983s-1.336,2.983-2.983,2.983
			S42.603,546.682,42.603,545.034z M60.415,548.017c1.647,0,2.983-1.335,2.983-2.983s-1.336-2.983-2.983-2.983
			s-2.983,1.336-2.983,2.983S58.768,548.017,60.415,548.017z M65.5,551.394v3.097h-0.021l-0.2,0.101
			c-0.097,0.05-1.631,0.8-4.279,0.847c-1.328,1.795-4.341,3.053-7.839,3.053c-3.503,0-6.52-1.261-7.845-3.062
			c-0.581-0.023-1.205-0.082-1.871-0.185l-0.818-0.149c-0.606-0.124-1.24-0.282-1.905-0.49l-0.213-0.067l-0.008-0.048v-3.097
			c0-1.769,1.211-3.257,2.847-3.688c0.587,0.548,1.374,0.886,2.238,0.886c0.866,0,1.651-0.338,2.239-0.886
			c0.682,0.18,1.286,0.549,1.762,1.041c1.089-0.3,2.299-0.468,3.575-0.468c1.174,0,2.294,0.142,3.315,0.398
			c0.467-0.458,1.049-0.799,1.7-0.971c0.587,0.548,1.373,0.886,2.238,0.886s1.651-0.338,2.239-0.886
			c1.271,0.335,2.284,1.311,2.672,2.56l0.159,0.792C65.495,551.168,65.5,551.281,65.5,551.394z M60.217,555.433
			c-0.601-0.021-1.249-0.08-1.942-0.188l-0.818-0.149c-0.606-0.124-1.24-0.282-1.906-0.49l-0.213-0.067l-0.008-0.048v-3.097
			c0-0.814,0.259-1.566,0.695-2.186c-0.888-0.195-1.854-0.303-2.863-0.303c-1.118,0-2.182,0.132-3.147,0.368
			c0.205,0.304,0.371,0.635,0.482,0.992l0.159,0.792c0.01,0.111,0.015,0.224,0.015,0.336v3.097l-0.021,0l-0.2,0.102
			c-0.098,0.05-1.654,0.812-4.338,0.848c1.322,1.438,3.985,2.425,7.05,2.425C56.23,557.865,58.897,556.875,60.217,555.433z"/>
	</g>
</g>
<g display="none">
	<path display="inline" fill="#FFFFFF" d="M63,278.228H43c-2.761,0-5-2.238-5-5v-20c0-2.761,2.239-5,5-5h20c2.761,0,5,2.239,5,5v20
		C68,275.989,65.761,278.228,63,278.228z"/>
	<g display="inline">
		<text transform="matrix(1 0 0 1 29.6665 291.8989)" font-family="'Gilroy-Regular'" font-size="12">Спикеры</text>
	</g>
	<g display="inline">
		<g>
			<defs>
				<rect id="SVGID_3_" x="42.672" y="250.728" width="20.656" height="25"/>
			</defs>
			<clipPath id="SVGID_4_">
				<use xlink:href="#SVGID_3_"  overflow="visible"/>
			</clipPath>
			<path clip-path="url(#SVGID_4_)" d="M61.333,252.696c-1.27-1.269-2.958-1.969-4.754-1.969c-1.373,0-2.692,0.41-3.815,1.186
				c-0.191,0.132-0.296,0.288-0.312,0.462c-0.009,0.107,0.012,0.267,0.167,0.422l8.614,8.614c0.102,0.102,0.228,0.156,0.365,0.156
				c0.244,0,0.428-0.171,0.499-0.272C63.962,258.622,63.642,255.005,61.333,252.696L61.333,252.696z M61.333,252.696"/>
			<path clip-path="url(#SVGID_4_)" d="M51.899,253.868c-0.198-0.198-0.396-0.24-0.528-0.24c-0.403,0-0.672,0.368-0.744,0.48
				c-0.82,1.271-1.187,2.805-1.034,4.317c0.021,0.208,0.072,0.41,0.093,0.616c0.011,0.106-0.104,0.241-0.158,0.316l-4.9,6.778
				c-0.386,0.532-0.32,1.344,0.144,1.81l0.133,0.133c0,0,0.082,0.079-0.018,0.186c-0.292,0.314-1.214,1.213-1.214,1.213
				c-1.39,1.39-1.325,3.717,0.145,5.187c0.661,0.661,1.55,1.016,2.529,1.016c0.089,0,0.178-0.003,0.268-0.009
				c1.053-0.069,2.063-0.538,2.846-1.319l4.036-4.036c1.311-1.31,3.104-1.782,3.896-1.385l2.071,1.039
				c0.306,0.153,0.678,0.03,0.831-0.276c0.153-0.306,0.03-0.678-0.276-0.832l-2.071-1.039c-1.385-0.694-3.725,0.016-5.326,1.617
				l-4.036,4.036c-0.569,0.569-1.297,0.91-2.05,0.959c-0.723,0.047-1.376-0.182-1.841-0.647c-0.987-0.987-1.051-2.528-0.144-3.435
				c0,0,0.906-0.926,1.222-1.222c0.098-0.092,0.171-0.016,0.171-0.016l0.141,0.141c0.253,0.253,0.617,0.398,0.999,0.398
				c0.297,0,0.585-0.09,0.812-0.254l6.777-4.901c0.2-0.136,0.401-0.139,0.503-0.122c0.363,0.06,0.733,0.091,1.107,0.091h0
				c1.334,0,2.623-0.39,3.727-1.126c0.133-0.089,0.366-0.322,0.397-0.63c0.02-0.203-0.051-0.39-0.204-0.543L51.899,253.868z
				 M51.899,253.868"/>
		</g>
	</g>
</g>
<g display="none">
	<path display="inline" fill="#FFFFFF" d="M63,106H43c-2.761,0-5-2.239-5-5V81c0-2.761,2.239-5,5-5h20c2.761,0,5,2.239,5,5v20
		C68,103.761,65.761,106,63,106z"/>
	<g display="inline">
		<text transform="matrix(1 0 0 1 31.6104 119.6719)" font-family="'Gilroy-Regular'" font-size="12">Infodesk</text>
	</g>
	<g display="inline">
		<circle cx="55.147" cy="83.103" r="3.603"/>
		<path d="M48.595,90.846c0,0,1.682-0.484,1.932,0.323s-0.778,2.481-1.116,3.201C49.073,95.09,48.042,96.71,48,98.1
			c-0.039,1.302,0.265,2.688,1.282,3.437c1.224,0.9,2.87,1.132,4.416,0.852c1.615-0.294,2.778-0.967,3.289-1.439
			c0.646-0.598,0.162-1.601-0.764-1.292c-0.925,0.309-2.276,0.573-2.291-0.47s1.613-3.657,1.968-4.494
			c0.519-1.224,0.969-2.878,0.293-4.229c-0.609-1.219-1.395-1.851-2.79-2.173c-1.395-0.323-3.187-0.162-4.787,0.705
			c-0.6,0.325-1.128,0.623-1.292,0.999C47.052,90.621,47.543,91.232,48.595,90.846z"/>
	</g>
</g>
<g display="none">
	<g display="inline">
		<text transform="matrix(1 0 0 1 10.7666 464.125)" font-family="'Gilroy-Regular'" font-size="12">Мои сообщения</text>
	</g>
	<path display="inline" fill="#FFFFFF" d="M63,450.454H43c-2.761,0-5-2.239-5-5v-20c0-2.762,2.239-5,5-5h20c2.761,0,5,2.238,5,5v20
		C68,448.215,65.761,450.454,63,450.454z"/>
	<g display="inline">
		<path d="M53.549,437.972c-0.168,0.104-0.359,0.155-0.549,0.155s-0.381-0.051-0.549-0.155L42,431.56v10.394
			c0,0.829,0.671,1.5,1.5,1.5h19c0.829,0,1.5-0.671,1.5-1.5V431.56L53.549,437.972z"/>
		<path d="M53,435.845l11-6.75v-0.142c0-0.828-0.671-1.5-1.5-1.5h-19c-0.829,0-1.5,0.672-1.5,1.5v0.142L53,435.845z"/>
	</g>
</g>
<g display="none">
	<g display="inline">
		<text transform="matrix(1 0 0 1 24.8667 693.7598)" font-family="'Gilroy-Regular'" font-size="12">Вечеринка</text>
	</g>
	<path display="inline" fill="#FFFFFF" d="M63,680.089H43c-2.761,0-5-2.238-5-5v-20c0-2.762,2.239-5,5-5h20c2.761,0,5,2.238,5,5v20
		C68,677.851,65.761,680.089,63,680.089z"/>
	<g display="inline">
		<circle cx="46.723" cy="654.867" r="0.954"/>
		<circle cx="53.615" cy="652.797" r="0.954"/>
		<circle cx="55.476" cy="657.278" r="0.954"/>
		<circle cx="60.769" cy="659.495" r="0.626"/>
		<circle cx="58.433" cy="657.929" r="0.626"/>
		<circle cx="54.294" cy="659.438" r="0.626"/>
		<circle cx="53.278" cy="655.555" r="0.627"/>
		<circle cx="57.114" cy="654.768" r="0.627"/>
		<circle cx="50.306" cy="653.837" r="0.627"/>
		<path d="M54.279,661.012c0,0,0.578,4.448,1.771,6.277c1.193,1.83,2.6,3.365,2.93,4.574c0.33,1.209,0.914,3.027,0.782,3.625
			c-0.132,0.597-0.306,1.205-1.132,1.695c-0.825,0.491-1.265,0.611-1.449,0.75s-0.303,0.348,0.492,0.396s2.715-0.327,3.107-0.404
			s1.978-0.579,2.465-0.811c0.488-0.231,0.83-0.491,0.964-0.577s0.487-0.271-0.368-0.304c-0.855-0.032-2.371,0.293-3.192-0.989
			c-0.822-1.281-1.321-5.17-1.116-6.328c0.206-1.158,0.551-2.925,0.257-4.399s-1.28-4.512-1.334-4.675
			C57.558,659.901,55.151,660.203,54.279,661.012z"/>
		<path d="M48.92,655.668c0,0-2.016,4.007-2.055,6.19c-0.039,2.185,0.266,4.244-0.139,5.431c-0.405,1.186-0.941,3.02-1.385,3.439
			c-0.445,0.42-0.929,0.826-1.888,0.77s-1.39-0.204-1.62-0.192c-0.23,0.012-0.447,0.118,0.185,0.604s2.432,1.252,2.799,1.408
			c0.368,0.155,1.962,0.63,2.496,0.712c0.534,0.082,0.963,0.058,1.123,0.063c0.159,0.004,0.555,0.049-0.135-0.458
			c-0.689-0.506-2.126-1.087-2.088-2.609c0.039-1.521,1.806-5.021,2.625-5.864c0.82-0.844,2.096-2.113,2.68-3.499
			c0.584-1.386,1.471-4.453,1.518-4.618C52.257,656.588,50.095,655.488,48.92,655.668z"/>
	</g>
</g>
<g display="none">
	<path display="inline" fill="#FFFFFF" d="M63,507.863H43c-2.761,0-5-2.239-5-5v-20c0-2.762,2.239-5,5-5h20c2.761,0,5,2.238,5,5v20
		C68,505.624,65.761,507.863,63,507.863z"/>
	<g display="inline">
		<text transform="matrix(1 0 0 1 25.4424 521.5337)" font-family="'Gilroy-Regular'" font-size="12">Экспозона</text>
	</g>
	<g display="inline">
		<g>
			<circle cx="53.491" cy="484.912" r="0.484"/>
			<circle cx="55.206" cy="485.394" r="0.484"/>
			<circle cx="56.92" cy="485.876" r="0.484"/>
			<circle cx="58.635" cy="486.357" r="0.484"/>
			<circle cx="60.35" cy="486.839" r="0.484"/>
		</g>
		<path d="M60.018,495.209l-6.555-2.596c-0.146-0.058-0.241-0.198-0.241-0.355v-6.063c0-0.196,0.19-0.336,0.377-0.277l6.569,2.069
			c0.112,0.035,0.188,0.139,0.188,0.256v6.736C60.357,495.154,60.181,495.274,60.018,495.209z"/>
		<path d="M51.919,482.38l12.571,3.252v11.014l-1.7,1.099l-12.537-5.426l-0.169-0.073l-0.177,0.054l-2.309,0.706l-0.356,0.109v0.372
			v1.578l-3.112,1.157l-1.74-0.723v-10.831L51.919,482.38 M51.924,481.862l-10.036,2.408v11.562l2.232,0.928l3.625-1.347v-1.927
			l2.309-0.706l12.783,5.533l2.156-1.393v-11.676L51.924,481.862L51.924,481.862z"/>
		<polygon points="62.886,486.623 51.94,483.69 44.109,485.611 42.171,484.678 42.389,484.226 44.164,485.08 51.946,483.172 
			62.827,486.087 64.421,485.258 64.653,485.704 		"/>
		<polygon points="47.749,493.305 47.247,493.305 47.247,488.727 51.683,487.339 51.692,483.431 52.194,483.432 52.185,487.708 
			47.749,489.096 		"/>
		<polygon points="62.589,497.893 63.028,497.893 64.726,496.844 64.726,485.396 62.589,486.355 		"/>
		<polygon points="44.369,496.291 43.949,496.405 42.099,495.659 42.099,484.538 44.369,485.289 		"/>
		<polygon points="50.321,488.182 47.498,488.754 47.631,493.162 50.321,492.513 		"/>
		<g>
			<g>
				<ellipse cx="55.747" cy="500.52" rx="3.298" ry="0.941"/>
			</g>
			<g>
				<ellipse fill="#FFFFFF" cx="55.747" cy="495.659" rx="3.298" ry="1.102"/>
				<path d="M55.747,495.059c1.64,0,2.573,0.393,2.772,0.6c-0.199,0.206-1.132,0.599-2.772,0.599s-2.573-0.393-2.772-0.599
					C53.174,495.452,54.107,495.059,55.747,495.059 M55.747,494.557c-1.822,0-3.298,0.493-3.298,1.102
					c0,0.608,1.477,1.102,3.298,1.102s3.298-0.493,3.298-1.102C59.045,495.05,57.569,494.557,55.747,494.557L55.747,494.557z"/>
			</g>
			<polygon points="59.045,500.52 52.449,500.52 52.449,495.73 54.18,496.41 57.872,496.324 59.045,495.73 			"/>
		</g>
		<path d="M66.01,497.323l-1.689-0.697c-0.095,0.146-0.194,0.288-0.31,0.416l1.802,0.743c0.211,0.09,0.236,0.278,0.236,0.355
			s-0.021,0.265-0.231,0.358l-10.116,4.5c-0.542,0.241-1.117,0.363-1.71,0.363c-0.71,0-1.415-0.182-2.036-0.525l-11.716-6.48
			c-0.198-0.11-0.307-0.311-0.289-0.537c0.018-0.224,0.152-0.404,0.362-0.483l2.015-0.658c-0.017-0.17-0.04-0.339-0.062-0.508
			l-2.118,0.692c-0.859,0.313-0.952,1.491-0.151,1.934l11.716,6.48c0.707,0.391,1.492,0.588,2.279,0.588
			c0.651,0,1.304-0.135,1.914-0.406l10.116-4.499C66.734,498.641,66.727,497.628,66.01,497.323z"/>
	</g>
</g>
<g display="none">
	<g display="inline">
		<text transform="matrix(1 0 0 1 38.5889 636.3516)" font-family="'Gilroy-Regular'" font-size="12">Квест</text>
	</g>
	<path display="inline" fill="#FFFFFF" d="M63,622.68H43c-2.762,0-5-2.238-5-5v-20c0-2.761,2.238-5,5-5h20c2.761,0,5,2.238,5,5v20
		C68,620.441,65.762,622.68,63,622.68z"/>
	<g display="inline">
		<path d="M57.028,618.026c0.03-0.201,0.046-0.405,0.046-0.611c0-2.246-1.828-4.073-4.074-4.073s-4.074,1.827-4.074,4.073
			c0,0.206,0.016,0.41,0.046,0.611h-4.03v-5.896l-0.972,0.409c-0.33,0.14-0.68,0.21-1.04,0.21c-1.474,0-2.673-1.199-2.673-2.674
			c0-1.474,1.199-2.673,2.673-2.673c0.361,0,0.711,0.07,1.039,0.209l0.973,0.412v-6.006h6.003l-0.41-0.972
			c-0.139-0.33-0.209-0.68-0.209-1.04c0-1.474,1.199-2.673,2.673-2.673s2.673,1.199,2.673,2.673c0,0.36-0.07,0.71-0.209,1.039
			l-0.411,0.973h6.004v6.006l0.973-0.412c0.328-0.139,0.677-0.209,1.039-0.209c1.474,0,2.673,1.199,2.673,2.673
			c0,1.475-1.199,2.674-2.673,2.674c-0.359,0-0.709-0.07-1.04-0.21l-0.972-0.409v5.896H57.028z"/>
		<path d="M53,598.032c1.088,0,1.973,0.886,1.973,1.974c0,0.267-0.052,0.524-0.154,0.767l-0.822,1.945h2.111h4.249v4.249v2.11
			l1.945-0.821c0.242-0.103,0.5-0.154,0.767-0.154c1.088,0,1.974,0.886,1.974,1.974c0,1.089-0.885,1.974-1.974,1.974
			c-0.267,0-0.524-0.052-0.767-0.154l-1.945-0.821v2.111v4.143h-2.585c-0.047-2.592-2.17-4.686-4.772-4.686
			c-2.603,0-4.726,2.094-4.773,4.686h-2.585v-4.143v-2.111l-1.944,0.821c-0.242,0.103-0.5,0.154-0.767,0.154
			c-1.088,0-1.974-0.885-1.974-1.974c0-1.088,0.885-1.974,1.974-1.974c0.267,0,0.525,0.052,0.767,0.154l1.944,0.821v-2.11v-4.249
			h4.249h2.111l-0.821-1.945c-0.103-0.242-0.154-0.5-0.154-0.767C51.027,598.918,51.912,598.032,53,598.032 M53,596.633
			c-1.863,0-3.374,1.51-3.374,3.373c0,0.465,0.094,0.908,0.264,1.312h-5.649v5.649c-0.403-0.171-0.846-0.265-1.312-0.265
			c-1.863,0-3.374,1.51-3.374,3.373s1.51,3.374,3.374,3.374c0.465,0,0.908-0.095,1.312-0.265v5.542h5.649
			c-0.17-0.403-0.264-0.846-0.264-1.312c0-1.863,1.51-3.373,3.374-3.373c1.863,0,3.374,1.51,3.374,3.373
			c0,0.466-0.094,0.908-0.265,1.312h5.649v-5.542l0,0c0.403,0.17,0.846,0.265,1.312,0.265c1.863,0,3.374-1.511,3.374-3.374
			s-1.51-3.373-3.374-3.373c-0.465,0-0.908,0.094-1.312,0.265v-5.649h-5.649c0.17-0.403,0.265-0.847,0.265-1.312
			C56.374,598.143,54.863,596.633,53,596.633L53,596.633z"/>
	</g>
</g>
</svg>
