<svg width="553" height="68" viewBox="0 0 553 68" fill="none" xmlns="http://www.w3.org/2000/svg">
<g filter="url(#filter0_dd)">
<rect x="6" y="6" width="541" height="56" rx="10" fill="#C3D600"/>
</g>
<path d="M195.078 33.9883V40H191.562V22.9375H198.219C199.5 22.9375 200.625 23.1719 201.594 23.6406C202.57 24.1094 203.32 24.7773 203.844 25.6445C204.367 26.5039 204.629 27.4844 204.629 28.5859C204.629 30.2578 204.055 31.5781 202.906 32.5469C201.766 33.5078 200.184 33.9883 198.16 33.9883H195.078ZM195.078 31.1406H198.219C199.148 31.1406 199.855 30.9219 200.34 30.4844C200.832 30.0469 201.078 29.4219 201.078 28.6094C201.078 27.7734 200.832 27.0977 200.34 26.582C199.848 26.0664 199.168 25.8008 198.301 25.7852H195.078V31.1406ZM214.602 36.4844H208.438L207.266 40H203.527L209.879 22.9375H213.137L219.523 40H215.785L214.602 36.4844ZM209.387 33.6367H213.652L211.508 27.25L209.387 33.6367ZM234.254 34.3164C234.121 36.1523 233.441 37.5977 232.215 38.6523C230.996 39.707 229.387 40.2344 227.387 40.2344C225.199 40.2344 223.477 39.5 222.219 38.0312C220.969 36.5547 220.344 34.5312 220.344 31.9609V30.918C220.344 29.2773 220.633 27.832 221.211 26.582C221.789 25.332 222.613 24.375 223.684 23.7109C224.762 23.0391 226.012 22.7031 227.434 22.7031C229.402 22.7031 230.988 23.2305 232.191 24.2852C233.395 25.3398 234.09 26.8203 234.277 28.7266H230.762C230.676 27.625 230.367 26.8281 229.836 26.3359C229.312 25.8359 228.512 25.5859 227.434 25.5859C226.262 25.5859 225.383 26.0078 224.797 26.8516C224.219 27.6875 223.922 28.9883 223.906 30.7539V32.043C223.906 33.8867 224.184 35.2344 224.738 36.0859C225.301 36.9375 226.184 37.3633 227.387 37.3633C228.473 37.3633 229.281 37.1172 229.812 36.625C230.352 36.125 230.66 35.3555 230.738 34.3164H234.254ZM250.461 40H246.934V25.7852H240.102V40H236.586V22.9375H250.461V40ZM263.785 22.9375H267.312V40H263.785V28.668L256.953 40H253.438V22.9375H256.953V34.293L263.785 22.9375ZM283.754 34.3164C283.621 36.1523 282.941 37.5977 281.715 38.6523C280.496 39.707 278.887 40.2344 276.887 40.2344C274.699 40.2344 272.977 39.5 271.719 38.0312C270.469 36.5547 269.844 34.5312 269.844 31.9609V30.918C269.844 29.2773 270.133 27.832 270.711 26.582C271.289 25.332 272.113 24.375 273.184 23.7109C274.262 23.0391 275.512 22.7031 276.934 22.7031C278.902 22.7031 280.488 23.2305 281.691 24.2852C282.895 25.3398 283.59 26.8203 283.777 28.7266H280.262C280.176 27.625 279.867 26.8281 279.336 26.3359C278.812 25.8359 278.012 25.5859 276.934 25.5859C275.762 25.5859 274.883 26.0078 274.297 26.8516C273.719 27.6875 273.422 28.9883 273.406 30.7539V32.043C273.406 33.8867 273.684 35.2344 274.238 36.0859C274.801 36.9375 275.684 37.3633 276.887 37.3633C277.973 37.3633 278.781 37.1172 279.312 36.625C279.852 36.125 280.16 35.3555 280.238 34.3164H283.754ZM295.695 36.4844H289.531L288.359 40H284.621L290.973 22.9375H294.23L300.617 40H296.879L295.695 36.4844ZM290.48 33.6367H294.746L292.602 27.25L290.48 33.6367ZM316.098 40H312.582V32.6875H305.727V40H302.211V22.9375H305.727V29.8516H312.582V22.9375H316.098V40ZM329.41 22.9375H332.938V40H329.41V28.668L322.578 40H319.062V22.9375H322.578V34.293L329.41 22.9375ZM346.25 32.6055H339.5V37.1758H347.422V40H335.984V22.9375H347.398V25.7852H339.5V29.8516H346.25V32.6055Z" fill="white"/>
<defs>
<filter id="filter0_dd" x="0" y="0" width="553" height="68" filterUnits="userSpaceOnUse" color-interpolation-filters="sRGB">
<feFlood flood-opacity="0" result="BackgroundImageFix"/>
<feColorMatrix in="SourceAlpha" type="matrix" values="0 0 0 0 0 0 0 0 0 0 0 0 0 0 0 0 0 0 127 0"/>
<feOffset dx="-2" dy="-2"/>
<feGaussianBlur stdDeviation="2"/>
<feColorMatrix type="matrix" values="0 0 0 0 0 0 0 0 0 0 0 0 0 0 0 0 0 0 0.25 0"/>
<feBlend mode="normal" in2="BackgroundImageFix" result="effect1_dropShadow"/>
<feColorMatrix in="SourceAlpha" type="matrix" values="0 0 0 0 0 0 0 0 0 0 0 0 0 0 0 0 0 0 127 0"/>
<feOffset dx="2" dy="2"/>
<feGaussianBlur stdDeviation="2"/>
<feColorMatrix type="matrix" values="0 0 0 0 0 0 0 0 0 0 0 0 0 0 0 0 0 0 0.25 0"/>
<feBlend mode="normal" in2="effect1_dropShadow" result="effect2_dropShadow"/>
<feBlend mode="normal" in="SourceGraphic" in2="effect2_dropShadow" result="shape"/>
</filter>
</defs>
</svg>
