<svg width="553" height="68" viewBox="0 0 553 68" fill="none" xmlns="http://www.w3.org/2000/svg">
<g filter="url(#filter0_dd)">
<rect x="6" y="6" width="541" height="56" rx="10" fill="#C3D600"/>
</g>
<path d="M209.723 40H206.195V25.7852H199.363V40H195.848V22.9375H209.723V40ZM216.332 33.9883V40H212.816V22.9375H219.473C220.754 22.9375 221.879 23.1719 222.848 23.6406C223.824 24.1094 224.574 24.7773 225.098 25.6445C225.621 26.5039 225.883 27.4844 225.883 28.5859C225.883 30.2578 225.309 31.5781 224.16 32.5469C223.02 33.5078 221.438 33.9883 219.414 33.9883H216.332ZM216.332 31.1406H219.473C220.402 31.1406 221.109 30.9219 221.594 30.4844C222.086 30.0469 222.332 29.4219 222.332 28.6094C222.332 27.7734 222.086 27.0977 221.594 26.582C221.102 26.0664 220.422 25.8008 219.555 25.7852H216.332V31.1406ZM242.324 31.8555C242.324 33.5352 242.027 35.0078 241.434 36.2734C240.84 37.5391 239.988 38.5156 238.879 39.2031C237.777 39.8906 236.512 40.2344 235.082 40.2344C233.668 40.2344 232.406 39.8945 231.297 39.2148C230.188 38.5352 229.328 37.5664 228.719 36.3086C228.109 35.043 227.801 33.5898 227.793 31.9492V31.1055C227.793 29.4258 228.094 27.9492 228.695 26.6758C229.305 25.3945 230.16 24.4141 231.262 23.7344C232.371 23.0469 233.637 22.7031 235.059 22.7031C236.48 22.7031 237.742 23.0469 238.844 23.7344C239.953 24.4141 240.809 25.3945 241.41 26.6758C242.02 27.9492 242.324 29.4219 242.324 31.0938V31.8555ZM238.762 31.082C238.762 29.293 238.441 27.9336 237.801 27.0039C237.16 26.0742 236.246 25.6094 235.059 25.6094C233.879 25.6094 232.969 26.0703 232.328 26.9922C231.688 27.9062 231.363 29.25 231.355 31.0234V31.8555C231.355 33.5977 231.676 34.9492 232.316 35.9102C232.957 36.8711 233.879 37.3516 235.082 37.3516C236.262 37.3516 237.168 36.8906 237.801 35.9688C238.434 35.0391 238.754 33.6875 238.762 31.9141V31.082ZM256.07 25.7852H248.418V40H244.902V22.9375H256.07V25.7852ZM261.777 33.9883V40H258.262V22.9375H264.918C266.199 22.9375 267.324 23.1719 268.293 23.6406C269.27 24.1094 270.02 24.7773 270.543 25.6445C271.066 26.5039 271.328 27.4844 271.328 28.5859C271.328 30.2578 270.754 31.5781 269.605 32.5469C268.465 33.5078 266.883 33.9883 264.859 33.9883H261.777ZM261.777 31.1406H264.918C265.848 31.1406 266.555 30.9219 267.039 30.4844C267.531 30.0469 267.777 29.4219 267.777 28.6094C267.777 27.7734 267.531 27.0977 267.039 26.582C266.547 26.0664 265.867 25.8008 265 25.7852H261.777V31.1406ZM281.301 36.4844H275.137L273.965 40H270.227L276.578 22.9375H279.836L286.223 40H282.484L281.301 36.4844ZM276.086 33.6367H280.352L278.207 27.25L276.086 33.6367ZM292.41 22.9375L296.793 35.3125L301.152 22.9375H305.77V40H302.242V35.3359L302.594 27.2852L297.988 40H295.574L290.98 27.2969L291.332 35.3359V40H287.816V22.9375H292.41ZM313.434 22.9375L317.816 35.3125L322.176 22.9375H326.793V40H323.266V35.3359L323.617 27.2852L319.012 40H316.598L312.004 27.2969L312.355 35.3359V40H308.84V22.9375H313.434ZM339.707 36.4844H333.543L332.371 40H328.633L334.984 22.9375H338.242L344.629 40H340.891L339.707 36.4844ZM334.492 33.6367H338.758L336.613 27.25L334.492 33.6367Z" fill="white"/>
<defs>
<filter id="filter0_dd" x="0" y="0" width="553" height="68" filterUnits="userSpaceOnUse" color-interpolation-filters="sRGB">
<feFlood flood-opacity="0" result="BackgroundImageFix"/>
<feColorMatrix in="SourceAlpha" type="matrix" values="0 0 0 0 0 0 0 0 0 0 0 0 0 0 0 0 0 0 127 0"/>
<feOffset dx="-2" dy="-2"/>
<feGaussianBlur stdDeviation="2"/>
<feColorMatrix type="matrix" values="0 0 0 0 0 0 0 0 0 0 0 0 0 0 0 0 0 0 0.25 0"/>
<feBlend mode="normal" in2="BackgroundImageFix" result="effect1_dropShadow"/>
<feColorMatrix in="SourceAlpha" type="matrix" values="0 0 0 0 0 0 0 0 0 0 0 0 0 0 0 0 0 0 127 0"/>
<feOffset dx="2" dy="2"/>
<feGaussianBlur stdDeviation="2"/>
<feColorMatrix type="matrix" values="0 0 0 0 0 0 0 0 0 0 0 0 0 0 0 0 0 0 0.25 0"/>
<feBlend mode="normal" in2="effect1_dropShadow" result="effect2_dropShadow"/>
<feBlend mode="normal" in="SourceGraphic" in2="effect2_dropShadow" result="shape"/>
</filter>
</defs>
</svg>
