<svg width="27" height="27" viewBox="0 0 27 27" fill="none" xmlns="http://www.w3.org/2000/svg">
<path fill-rule="evenodd" clip-rule="evenodd" d="M17.6209 17.6219C17.7777 17.465 17.9638 17.3405 18.1686 17.2556C18.3735 17.1707 18.5931 17.127 18.8148 17.127C19.0366 17.127 19.2562 17.1707 19.4611 17.2556C19.6659 17.3405 19.852 17.465 20.0088 17.6219L26.5057 24.1188C26.8224 24.4353 27.0003 24.8645 27.0005 25.3122C27.0007 25.7598 26.823 26.1892 26.5066 26.5058C26.1901 26.8225 25.7609 27.0005 25.3132 27.0006C24.8656 27.0008 24.4362 26.8231 24.1196 26.5067L17.6226 20.0097C17.4657 19.853 17.3412 19.6669 17.2563 19.462C17.1714 19.2572 17.1277 19.0376 17.1277 18.8158C17.1277 18.594 17.1714 18.3744 17.2563 18.1696C17.3412 17.9647 17.4657 17.7786 17.6226 17.6219H17.6209Z" fill="white"/>
<path fill-rule="evenodd" clip-rule="evenodd" d="M10.9689 20.2502C12.1877 20.2502 13.3946 20.0102 14.5207 19.5437C15.6468 19.0773 16.6699 18.3937 17.5318 17.5318C18.3937 16.6699 19.0773 15.6468 19.5437 14.5207C20.0102 13.3946 20.2502 12.1877 20.2502 10.9689C20.2502 9.75004 20.0102 8.54313 19.5437 7.41706C19.0773 6.29099 18.3937 5.26782 17.5318 4.40597C16.6699 3.54412 15.6468 2.86045 14.5207 2.39402C13.3946 1.92759 12.1877 1.68752 10.9689 1.68752C8.50731 1.68752 6.14656 2.66538 4.40597 4.40597C2.66538 6.14656 1.68752 8.50731 1.68752 10.9689C1.68752 13.4305 2.66538 15.7912 4.40597 17.5318C6.14656 19.2724 8.50731 20.2502 10.9689 20.2502ZM21.9378 10.9689C21.9378 13.878 20.7821 16.668 18.7251 18.7251C16.668 20.7821 13.878 21.9378 10.9689 21.9378C8.05976 21.9378 5.26978 20.7821 3.21271 18.7251C1.15565 16.668 0 13.878 0 10.9689C0 8.05976 1.15565 5.26978 3.21271 3.21271C5.26978 1.15565 8.05976 0 10.9689 0C13.878 0 16.668 1.15565 18.7251 3.21271C20.7821 5.26978 21.9378 8.05976 21.9378 10.9689Z" fill="white"/>
</svg>
