<svg width="40" height="40" viewBox="0 0 40 40" fill="none" xmlns="http://www.w3.org/2000/svg">
<path d="M38.125 26.25H36.875V23.125C36.8727 21.6339 36.2793 20.2045 35.2249 19.1501C34.1705 18.0957 32.7411 17.5023 31.25 17.5H30V15.6562C30.8468 15.2359 31.5741 14.609 32.1148 13.8335C32.6555 13.0579 32.9922 12.1587 33.0938 11.2188C33.6173 11.1535 34.0992 10.9002 34.4499 10.5061C34.8005 10.1119 34.996 9.60374 34.9998 9.0762C35.0036 8.54865 34.8156 8.0377 34.4706 7.6385C34.1258 7.23929 33.6475 6.97906 33.125 6.90625V6.25C33.2908 6.25 33.4497 6.18415 33.5669 6.06694C33.6842 5.94973 33.75 5.79076 33.75 5.625V1.875C33.75 1.70924 33.6842 1.55027 33.5669 1.43306C33.4497 1.31585 33.2908 1.25 33.125 1.25H21.875C21.7092 1.25 21.5503 1.31585 21.4331 1.43306C21.3158 1.55027 21.25 1.70924 21.25 1.875V5.625C21.25 5.79076 21.3158 5.94973 21.4331 6.06694C21.5503 6.18415 21.7092 6.25 21.875 6.25V6.90625C21.3525 6.97906 20.8743 7.23929 20.5293 7.6385C20.1844 8.0377 19.9964 8.54865 20.0002 9.0762C20.004 9.60374 20.1995 10.1119 20.5501 10.5061C20.9008 10.9002 21.3827 11.1535 21.9062 11.2188C22.0078 12.1587 22.3445 13.0579 22.8852 13.8335C23.4259 14.609 24.1532 15.2359 25 15.6562V17.5H23.125C21.6339 17.5023 20.2045 18.0957 19.1501 19.1501C18.0957 20.2045 17.5023 21.6339 17.5 23.125V26.25H1.875C1.70924 26.25 1.55027 26.3158 1.43306 26.4331C1.31585 26.5503 1.25 26.7092 1.25 26.875V29.375C1.25 29.5408 1.31585 29.6997 1.43306 29.8169C1.55027 29.9342 1.70924 30 1.875 30H2.5V38.125C2.5 38.2908 2.56585 38.4497 2.68306 38.5669C2.80027 38.6842 2.95924 38.75 3.125 38.75H36.875C37.0408 38.75 37.1997 38.6842 37.3169 38.5669C37.4342 38.4497 37.5 38.2908 37.5 38.125V30H38.125C38.2908 30 38.4497 29.9342 38.5669 29.8169C38.6842 29.6997 38.75 29.5408 38.75 29.375V26.875C38.75 26.7092 38.6842 26.5503 38.5669 26.4331C38.4497 26.3158 38.2908 26.25 38.125 26.25ZM33.125 8.18125C33.3077 8.24524 33.466 8.36441 33.5779 8.52229C33.6899 8.68017 33.7501 8.86894 33.7501 9.0625C33.7501 9.25606 33.6899 9.44483 33.5779 9.60271C33.466 9.76059 33.3077 9.87976 33.125 9.94375V8.18125ZM21.875 9.94375C21.6923 9.87976 21.534 9.76059 21.4221 9.60271C21.3101 9.44483 21.2499 9.25606 21.2499 9.0625C21.2499 8.86894 21.3101 8.68017 21.4221 8.52229C21.534 8.36441 21.6923 8.24524 21.875 8.18125V9.94375ZM32.3187 22.0563L31.5063 21.25L32.3187 20.4437C32.4196 20.3424 32.4826 20.2096 32.4974 20.0675C32.5122 19.9253 32.4778 19.7824 32.4 19.6625L31.8375 18.7938C32.8858 18.9358 33.8471 19.4529 34.5434 20.2492C35.2398 21.0455 35.624 22.0672 35.625 23.125V26.25H33.125V24.375H31.875V26.25H28.125V24.7875L32.1187 23.075C32.2136 23.036 32.2971 22.9738 32.3615 22.8941C32.4259 22.8143 32.4693 22.7196 32.4875 22.6187C32.5062 22.5183 32.5007 22.4149 32.4713 22.317C32.4419 22.2192 32.3896 22.1298 32.3187 22.0563ZM29.6437 18.75L27.5 22.9875L25.3563 18.75H29.6437ZM26.25 17.5V16.1063C27.0723 16.2979 27.9277 16.2979 28.75 16.1063V17.5H26.25ZM30.725 19.375L31.075 19.9125L30.1813 20.8063C30.0642 20.9243 29.9984 21.0838 29.9984 21.25C29.9984 21.4162 30.0642 21.5757 30.1813 21.6937L30.7812 22.2875L28.8313 23.125L30.725 19.375ZM22.5 2.5H32.5V5H22.5V2.5ZM31.575 6.25L30.825 8.125H24.175L23.425 6.25H31.575ZM23.125 10.625V8.86875L23.1688 8.98125C23.2151 9.09754 23.2952 9.19725 23.3989 9.26745C23.5025 9.33765 23.6248 9.37512 23.75 9.375H31.25C31.3752 9.37512 31.4975 9.33765 31.6011 9.26745C31.7048 9.19725 31.7849 9.09754 31.8312 8.98125L31.875 8.86875V10.625C31.875 11.7853 31.4141 12.8981 30.5936 13.7186C29.7731 14.5391 28.6603 15 27.5 15C26.3397 15 25.2269 14.5391 24.4064 13.7186C23.5859 12.8981 23.125 11.7853 23.125 10.625ZM24.275 19.375L26.1687 23.125L24.2188 22.2875L24.8187 21.6937C24.9358 21.5757 25.0016 21.4162 25.0016 21.25C25.0016 21.0838 24.9358 20.9243 24.8187 20.8063L23.925 19.9125L24.275 19.375ZM18.75 23.125C18.7513 21.9651 19.2127 20.8531 20.0329 20.0329C20.8531 19.2127 21.9651 18.7513 23.125 18.75H23.1875L22.6 19.6625C22.5222 19.7824 22.4878 19.9253 22.5026 20.0675C22.5174 20.2096 22.5804 20.3424 22.6813 20.4437L23.4937 21.25L22.6813 22.0563C22.6104 22.1298 22.5581 22.2192 22.5287 22.317C22.4993 22.4149 22.4938 22.5183 22.5125 22.6187C22.5307 22.7196 22.5741 22.8143 22.6385 22.8941C22.7029 22.9738 22.7864 23.036 22.8813 23.075L26.875 24.7875V26.25H22.5V24.375H21.25V26.25H18.75V23.125ZM36.25 37.5H3.75V30H36.25V37.5ZM37.5 28.75H2.5V27.5H37.5V28.75Z" fill="#3F4545"/>
<path d="M13.75 22.5H13.0688C12.9392 21.7332 12.5741 21.0257 12.0242 20.4758C11.4743 19.9259 10.7668 19.5608 10 19.4313V18.75H11.25V17.5H7.5V18.75H8.75V19.4313C7.98318 19.5608 7.27571 19.9259 6.7258 20.4758C6.17589 21.0257 5.81081 21.7332 5.68125 22.5H5C4.83424 22.5 4.67527 22.5658 4.55806 22.6831C4.44085 22.8003 4.375 22.9592 4.375 23.125V25C4.375 25.1658 4.44085 25.3247 4.55806 25.4419C4.67527 25.5592 4.83424 25.625 5 25.625H13.75C13.9158 25.625 14.0747 25.5592 14.1919 25.4419C14.3092 25.3247 14.375 25.1658 14.375 25V23.125C14.375 22.9592 14.3092 22.8003 14.1919 22.6831C14.0747 22.5658 13.9158 22.5 13.75 22.5ZM9.375 20.625C9.92785 20.6268 10.4645 20.8118 10.901 21.1511C11.3375 21.4903 11.6493 21.9647 11.7875 22.5H6.9625C7.10071 21.9647 7.41246 21.4903 7.84897 21.1511C8.28549 20.8118 8.82215 20.6268 9.375 20.625ZM13.125 24.375H5.625V23.75H13.125V24.375Z" fill="#3F4545"/>
</svg>
