<svg width="40" height="40" viewBox="0 0 40 40" fill="none" xmlns="http://www.w3.org/2000/svg">
<path d="M37.1149 24.1563V1.66243C37.1149 1.22233 36.7726 0.880035 36.3325 0.880035H3.66748C3.22738 0.880035 2.88509 1.22233 2.88509 1.66243V24.1563C1.27139 24.2052 0 25.3299 0 26.748C0 28.1661 1.32029 29.3397 2.98288 29.3397H12.8606L8.94866 38.0438C8.75306 38.4351 8.94866 38.8751 9.33985 39.0707C9.43765 39.1196 9.53545 39.1196 9.63325 39.1196C9.92665 39.1196 10.22 38.9729 10.3178 38.6795L14.5232 29.3397H25.4768L29.6822 38.6795C29.8289 38.9729 30.0733 39.1196 30.3667 39.1196C30.4645 39.1196 30.5623 39.1196 30.6601 39.0707C31.0513 38.8751 31.198 38.4351 31.0513 38.0438L27.1394 29.3397H37.0171C38.6308 29.3397 40 28.1661 40 26.748C40 25.3299 38.7286 24.1563 37.1149 24.1563ZM4.40098 2.39593H35.599V24.1074H33.8875V5.13431C33.8875 4.69422 33.5452 4.35192 33.1051 4.35192H6.89487C6.45477 4.35192 6.11247 4.69422 6.11247 5.13431V24.1074H4.40098V2.39593ZM32.3227 5.91671V24.1563H7.67726V5.91671H32.3227ZM37.0171 27.7749H25.9658H2.98288C2.20049 27.7749 1.56479 27.2859 1.56479 26.6991C1.56479 26.1123 2.20049 25.6233 2.98288 25.6233H37.066C37.8484 25.6233 38.4841 26.1123 38.4841 26.6991C38.4841 27.2859 37.7995 27.7749 37.0171 27.7749Z" fill="#3F4545"/>
<path d="M17.7016 8.60602H11.8337C11.3936 8.60602 11.0513 8.94831 11.0513 9.38841C11.0513 9.82851 11.3936 10.1708 11.8337 10.1708H17.7016C18.1417 10.1708 18.484 9.82851 18.484 9.38841C18.484 8.94831 18.1417 8.60602 17.7016 8.60602Z" fill="#3F4545"/>
<path d="M28.1662 12.4209H11.8337C11.3936 12.4209 11.0513 12.7632 11.0513 13.2033C11.0513 13.6434 11.3936 13.9857 11.8337 13.9857H28.1662C28.6063 13.9857 28.9486 13.6434 28.9486 13.2033C28.9486 12.7632 28.6063 12.4209 28.1662 12.4209Z" fill="#3F4545"/>
<path d="M28.1662 16.1855H11.8337C11.3936 16.1855 11.0513 16.5278 11.0513 16.9679C11.0513 17.408 11.3936 17.7503 11.8337 17.7503H28.1662C28.6063 17.7503 28.9486 17.408 28.9486 16.9679C28.9486 16.5278 28.6063 16.1855 28.1662 16.1855Z" fill="#3F4545"/>
</svg>
