<svg width="40" height="40" viewBox="0 0 40 40" fill="none" xmlns="http://www.w3.org/2000/svg">
<path d="M30.7755 18.5597C30.7755 11.2549 23.0753 6.46674 15.3877 6.46674C7.66945 6.46674 0 11.2774 0 18.5597C0 21.3148 1.20664 24.0089 3.39773 26.146C3.48156 26.2278 3.51367 26.3519 3.48148 26.4699C2.79328 28.991 1.16328 31.2685 0.494453 32.1307C0.286406 32.3989 0.252187 32.7536 0.405234 33.0565C0.554844 33.3527 0.850625 33.5341 1.18109 33.5341C1.18859 33.5341 1.19602 33.534 1.20352 33.5338C4.47641 33.4522 8.27008 32.5285 10.6151 30.223C10.697 30.1424 10.8146 30.1105 10.9298 30.1379C12.3705 30.4796 13.8705 30.6528 15.3877 30.6528C23.1038 30.6527 30.7755 25.844 30.7755 18.5597ZM11.2002 28.9975C10.6907 28.8765 10.1647 29.0223 9.79352 29.3872C7.44844 31.6929 3.61914 32.2171 1.80641 32.3335C2.63445 31.1905 3.98078 29.0912 4.61203 26.7784C4.75633 26.2498 4.60453 25.686 4.21594 25.307C2.22453 23.3647 1.17188 21.0315 1.17188 18.5597C1.17188 12.5378 7.54906 7.63861 15.3877 7.63861C23.2264 7.63861 29.6036 12.5378 29.6036 18.5597C29.6036 24.5817 23.2264 29.4808 15.3877 29.4808C13.9614 29.4808 12.5526 29.3181 11.2002 28.9975Z" fill="#3F4545"/>
<path d="M34.5442 28.2954C37.9605 26.5689 40 23.6264 40 20.424C40 15.8982 35.9089 12.031 30.2721 11.2285C29.9521 11.1831 29.655 11.4057 29.6095 11.726C29.5639 12.0464 29.7866 12.3431 30.107 12.3887C35.1604 13.1081 38.8281 16.4874 38.8281 20.424C38.8281 23.175 37.0291 25.7266 34.0156 27.2496C33.4296 27.5457 33.1157 28.2004 33.2521 28.8418C33.5378 30.1844 34.146 31.4276 34.6325 32.2703C31.1723 31.6943 29.8608 30.034 29.4461 29.3154C29.1901 28.8718 28.7114 28.5968 28.1947 28.5968C28.1932 28.5968 28.1917 28.5968 28.1902 28.5968L28.1472 28.5969C27.4975 28.5969 26.8468 28.5518 26.2136 28.4628C25.894 28.4179 25.5969 28.6411 25.5519 28.9616C25.5069 29.2821 25.7302 29.5783 26.0507 29.6233C26.7377 29.7198 27.4431 29.7687 28.1472 29.7687L28.1949 29.7686H28.1957C28.2938 29.7686 28.3838 29.8193 28.431 29.9011C30.018 32.6514 33.666 33.3535 35.1608 33.5278C35.491 33.5662 35.8055 33.4153 35.9817 33.1332C36.1574 32.8518 36.1552 32.5033 35.9758 32.2239C35.5256 31.5226 34.7221 30.1192 34.3984 28.5979C34.3725 28.4764 34.4324 28.3519 34.5442 28.2954Z" fill="#3F4545"/>
<path d="M6.27021 16.4641C5.15044 16.4641 4.2395 17.3751 4.2395 18.4948C4.2395 19.6144 5.15044 20.5255 6.27021 20.5255C7.38997 20.5255 8.30091 19.6144 8.30091 18.4948C8.30091 17.3751 7.38997 16.4641 6.27021 16.4641ZM6.27021 19.3537C5.79661 19.3537 5.41138 18.9683 5.41138 18.4948C5.41138 18.0213 5.79669 17.636 6.27021 17.636C6.74372 17.636 7.12903 18.0213 7.12903 18.4948C7.12903 18.9683 6.74372 19.3537 6.27021 19.3537Z" fill="#3F4545"/>
<path d="M12.0634 16.4641C10.9437 16.4641 10.0327 17.3751 10.0327 18.4948C10.0327 19.6144 10.9437 20.5255 12.0634 20.5255C13.1832 20.5255 14.0941 19.6144 14.0941 18.4948C14.0941 17.3751 13.1832 16.4641 12.0634 16.4641ZM12.0634 19.3537C11.5898 19.3537 11.2046 18.9683 11.2046 18.4948C11.2046 18.0213 11.5899 17.636 12.0634 17.636C12.5369 17.636 12.9222 18.0213 12.9222 18.4948C12.9222 18.9683 12.537 19.3537 12.0634 19.3537Z" fill="#3F4545"/>
<path d="M17.8564 16.4641C16.7366 16.4641 15.8257 17.3751 15.8257 18.4948C15.8257 19.6144 16.7366 20.5255 17.8564 20.5255C18.9762 20.5255 19.8871 19.6144 19.8871 18.4948C19.8871 17.3751 18.9762 16.4641 17.8564 16.4641ZM17.8564 19.3537C17.3828 19.3537 16.9976 18.9683 16.9976 18.4948C16.9976 18.0213 17.3829 17.636 17.8564 17.636C18.3299 17.636 18.7152 18.0213 18.7152 18.4948C18.7152 18.9683 18.33 19.3537 17.8564 19.3537Z" fill="#3F4545"/>
<path d="M23.6498 16.4641C22.5301 16.4641 21.6191 17.3751 21.6191 18.4948C21.6191 19.6144 22.5301 20.5255 23.6498 20.5255C24.7696 20.5255 25.6805 19.6144 25.6805 18.4948C25.6805 17.3751 24.7696 16.4641 23.6498 16.4641ZM23.6498 19.3537C23.1763 19.3537 22.791 18.9683 22.791 18.4948C22.791 18.0213 23.1763 17.636 23.6498 17.636C24.1234 17.636 24.5087 18.0213 24.5087 18.4948C24.5087 18.9683 24.1234 19.3537 23.6498 19.3537Z" fill="#3F4545"/>
</svg>
