<svg width="40" height="40" viewBox="0 0 40 40" fill="none" xmlns="http://www.w3.org/2000/svg">
<g clip-path="url(#clip0)">
<path d="M36.3726 32.6868C37.0117 32.0971 37.4197 31.2598 37.4197 30.3236V29.0333C37.4197 27.2547 35.9725 25.8076 34.194 25.8076C32.6365 25.8076 31.3333 26.918 31.0331 28.3881H28.914C28.6469 27.639 27.9372 27.0978 27.0973 27.0978C26.2572 27.0978 25.5475 27.639 25.2804 28.3881H23.1613C22.9039 27.1262 21.9075 26.1301 20.6459 25.8728V24.4256C21.756 24.1374 22.5813 23.1359 22.5813 21.9367H23.2265C23.5831 21.9367 23.8716 21.6484 23.8716 21.2915V19.3561H25.1619V18.0658H23.8716V18.0589C23.8716 16.8247 24.4566 15.6115 25.4766 14.733C27.3264 13.1374 28.3876 10.8252 28.3876 8.38862C28.3876 6.0843 27.4719 3.93592 25.8096 2.33912C24.1482 0.742321 21.9522 -0.0912019 19.6549 0.00897207C15.3001 0.184434 11.6929 3.87512 11.6151 8.23584C11.5704 10.704 12.6112 13.0549 14.4704 14.686C15.4935 15.5826 16.0883 16.8092 16.1233 18.0658H14.8396V19.3561H16.1299V21.2915C16.1299 21.6484 16.4181 21.9367 16.775 21.9367H17.4202C17.4202 23.1359 18.2452 24.1374 19.3556 24.4256V25.8728C18.0937 26.1301 17.0976 27.1262 16.8399 28.3881H14.7208C14.4537 27.639 13.744 27.0978 12.9041 27.0978C12.064 27.0978 11.3543 27.639 11.0871 28.3881H8.96806C8.66785 26.918 7.36527 25.8076 5.80753 25.8076C4.02866 25.8076 2.5818 27.2547 2.5818 29.0333V30.3236C2.5818 31.2598 2.98943 32.0971 3.62859 32.6868C1.50415 33.5506 0.0012207 35.6344 0.0012207 38.0653V39.3556C0.0012207 39.7125 0.289457 40.0008 0.646367 40.0008H10.9687C11.3253 40.0008 11.6138 39.7125 11.6138 39.3556V38.0653C11.6138 35.6344 10.1106 33.5506 7.98616 32.6868C8.62532 32.0971 9.03326 31.2598 9.03326 30.3236V29.6784H11.0871C11.3543 30.4275 12.064 30.9687 12.9041 30.9687C13.744 30.9687 14.4537 30.4275 14.7208 29.6784H16.775V30.3236C16.775 31.2598 17.1826 32.0971 17.8218 32.6868C15.6974 33.5506 14.1944 35.6344 14.1944 38.0653V39.3556C14.1944 39.7125 14.4827 40.0008 14.8396 40.0008H25.1619C25.5185 40.0008 25.8071 39.7125 25.8071 39.3556V38.0653C25.8071 35.6344 24.3038 33.5506 22.1794 32.6868C22.8185 32.0971 23.2265 31.2598 23.2265 30.3236V29.6784H25.2804C25.5475 30.4275 26.2572 30.9687 27.0973 30.9687C27.9372 30.9687 28.6469 30.4275 28.914 29.6784H30.9682V30.3236C30.9682 31.2598 31.3759 32.0971 32.015 32.6868C29.8906 33.5506 28.3876 35.6344 28.3876 38.0653V39.3556C28.3876 39.7125 28.6759 40.0008 29.0328 40.0008H39.3551C39.7117 40.0008 40.0003 39.7125 40.0003 39.3556V38.0653C40.0003 35.6344 38.497 33.5506 36.3726 32.6868ZM10.3236 38.0653V38.7105H9.03326V37.4202H7.74297V38.7105H3.8721V37.4202H2.5818V38.7105H1.29151V38.0653C1.29151 35.5758 3.31767 33.5493 5.80753 33.5493C8.29708 33.5493 10.3236 35.5758 10.3236 38.0653ZM3.8721 30.3236V29.0333C3.8721 27.9663 4.74027 27.0978 5.80753 27.0978C6.87448 27.0978 7.74297 27.9663 7.74297 29.0333V30.3236C7.74297 31.3905 6.87448 32.259 5.80753 32.259C4.74027 32.259 3.8721 31.3905 3.8721 30.3236ZM12.9041 29.6784C12.5479 29.6784 12.259 29.3896 12.259 29.0333C12.259 28.6773 12.5479 28.3881 12.9041 28.3881C13.2601 28.3881 13.5493 28.6773 13.5493 29.0333C13.5493 29.3896 13.2601 29.6784 12.9041 29.6784ZM15.3206 13.7155C13.7477 12.3357 12.8673 10.3467 12.9054 8.25821C12.9719 4.56878 16.0228 1.44637 19.7065 1.29769C21.6747 1.22618 23.5103 1.91984 24.9153 3.26998C26.3224 4.62044 27.0973 6.43901 27.0973 8.38862C27.0973 10.4497 26.1992 12.406 24.6339 13.7549C23.3295 14.8801 22.5813 16.4485 22.5813 18.0589V18.0658H17.4135C17.3786 16.4381 16.6238 14.8574 15.3206 13.7155ZM22.5813 19.3561V20.6464H17.4202V19.3561H22.5813ZM18.7105 21.9367H21.291C21.291 22.6483 20.712 23.227 20.0007 23.227C19.2891 23.227 18.7105 22.6483 18.7105 21.9367ZM24.5168 38.0653V38.7105H23.2265V37.4202H21.9362V38.7105H18.0653V37.4202H16.775V38.7105H15.4847V38.0653C15.4847 35.5758 17.5109 33.5493 20.0007 33.5493C22.4903 33.5493 24.5168 35.5758 24.5168 38.0653ZM18.0653 30.3236V29.0333C18.0653 27.9663 18.9335 27.0978 20.0007 27.0978C21.0677 27.0978 21.9362 27.9663 21.9362 29.0333V30.3236C21.9362 31.3905 21.0677 32.259 20.0007 32.259C18.9335 32.259 18.0653 31.3905 18.0653 30.3236ZM27.0973 29.6784C26.7411 29.6784 26.4522 29.3896 26.4522 29.0333C26.4522 28.6773 26.7411 28.3881 27.0973 28.3881C27.4533 28.3881 27.7425 28.6773 27.7425 29.0333C27.7425 29.3896 27.4533 29.6784 27.0973 29.6784ZM32.2585 30.3236V29.0333C32.2585 27.9663 33.1267 27.0978 34.194 27.0978C35.2609 27.0978 36.1294 27.9663 36.1294 29.0333V30.3236C36.1294 31.3905 35.2609 32.259 34.194 32.259C33.1267 32.259 32.2585 31.3905 32.2585 30.3236ZM38.71 38.7105H37.4197V37.4202H36.1294V38.7105H32.2585V37.4202H30.9682V38.7105H29.6779V38.0653C29.6779 35.5758 31.7041 33.5493 34.194 33.5493C36.6835 33.5493 38.71 35.5758 38.71 38.0653V38.7105Z" fill="#3F4545"/>
<path d="M18.7102 15.4843H21.2909V16.7746H18.7102V15.4843Z" fill="#3F4545"/>
<path d="M19.3555 11.5482V12.9037H20.6458V11.5482C21.0566 11.4645 21.4387 11.3006 21.7767 11.076L22.7702 12.0696L23.6822 11.1573L22.689 10.1638C22.9132 9.82576 23.077 9.44396 23.1612 9.03287H24.5167V7.74258H23.1612C23.077 7.33149 22.9132 6.94969 22.689 6.61168L23.6822 5.61813L22.7702 4.70586L21.7767 5.69941C21.4387 5.4748 21.0566 5.311 20.6458 5.2272V3.8717H19.3555V5.2272C18.9444 5.311 18.5626 5.4748 18.2243 5.69941L17.2307 4.70586L16.3188 5.61813L17.3123 6.61168C17.0877 6.94969 16.9239 7.33149 16.8398 7.74258H15.4846V9.03287H16.8398C16.9239 9.44396 17.0877 9.82576 17.3123 10.1638L16.3188 11.1573L17.2307 12.0696L18.2243 11.076C18.5626 11.3006 18.9444 11.4645 19.3555 11.5482ZM20.0006 6.45229C21.0676 6.45229 21.9361 7.32078 21.9361 8.38772C21.9361 9.45467 21.0676 10.3232 20.0006 10.3232C18.9334 10.3232 18.0652 9.45467 18.0652 8.38772C18.0652 7.32078 18.9334 6.45229 20.0006 6.45229Z" fill="#3F4545"/>
</g>
<defs>
<clipPath id="clip0">
<rect width="40" height="40" fill="white"/>
</clipPath>
</defs>
</svg>
