<svg width="30" height="30" viewBox="0 0 30 30" fill="none" xmlns="http://www.w3.org/2000/svg">
<path d="M26.7956 5.5C26.7967 5.36806 26.7457 5.241 26.6536 5.1465L21.6536 0.1465C21.5595 0.05375 21.4321 0.002625 21.3001 0.0045V0H6.30005C5.47161 0 4.80005 0.671562 4.80005 1.5V28.5C4.80005 29.3284 5.47161 30 6.30005 30H25.3001C26.1285 30 26.8001 29.3284 26.8001 28.5V5.5H26.7956ZM21.8001 1.707L25.0931 5H22.3001C22.0239 5 21.8001 4.77612 21.8001 4.5V1.707ZM25.8001 28.5C25.8001 28.7761 25.5762 29 25.3001 29H6.30005C6.02392 29 5.80005 28.7761 5.80005 28.5V1.5C5.80005 1.22388 6.02392 1 6.30005 1H20.8001V4.5C20.8001 5.32844 21.4716 6 22.3001 6H25.8001V28.5Z" fill="#3F4545"/>
<path d="M9.80005 13.5C8.97161 13.5 8.30005 14.1716 8.30005 15C8.30005 15.8284 8.97161 16.5 9.80005 16.5C10.6285 16.5 11.3 15.8284 11.3 15C11.3 14.1716 10.6285 13.5 9.80005 13.5ZM9.80005 15.5C9.52392 15.5 9.30005 15.2761 9.30005 15C9.30005 14.7239 9.52392 14.5 9.80005 14.5C10.0762 14.5 10.3 14.7239 10.3 15C10.3 15.2761 10.0762 15.5 9.80005 15.5Z" fill="#3F4545"/>
<path d="M23.3003 14.5H13.3003V15.5H23.3003V14.5Z" fill="#3F4545"/>
<path d="M9.80005 8.50006C8.97161 8.50006 8.30005 9.17162 8.30005 10.0001C8.30005 10.8285 8.97161 11.5001 9.80005 11.5001C10.6285 11.5001 11.3 10.8285 11.3 10.0001C11.3 9.17162 10.6285 8.50006 9.80005 8.50006ZM9.80005 10.5001C9.52392 10.5001 9.30005 10.2762 9.30005 10.0001C9.30005 9.72394 9.52392 9.50006 9.80005 9.50006C10.0762 9.50006 10.3 9.72394 10.3 10.0001C10.3 10.2762 10.0762 10.5001 9.80005 10.5001Z" fill="#3F4545"/>
<path d="M23.3003 9.49994H13.3003V10.4999H23.3003V9.49994Z" fill="#3F4545"/>
<path d="M9.80005 18.5C8.97161 18.5 8.30005 19.1716 8.30005 20C8.30005 20.8284 8.97161 21.5 9.80005 21.5C10.6285 21.5 11.3 20.8284 11.3 20C11.3 19.1716 10.6285 18.5 9.80005 18.5ZM9.80005 20.5C9.52392 20.5 9.30005 20.2761 9.30005 20C9.30005 19.7239 9.52392 19.5 9.80005 19.5C10.0762 19.5 10.3 19.7239 10.3 20C10.3 20.2761 10.0762 20.5 9.80005 20.5Z" fill="#3F4545"/>
<path d="M23.3003 19.5H13.3003V20.5H23.3003V19.5Z" fill="#3F4545"/>
<path d="M9.80005 23.5001C8.97161 23.5001 8.30005 24.1716 8.30005 25.0001C8.30005 25.8285 8.97161 26.5001 9.80005 26.5001C10.6285 26.5001 11.3 25.8285 11.3 25.0001C11.3 24.1716 10.6285 23.5001 9.80005 23.5001ZM9.80005 25.5001C9.52392 25.5001 9.30005 25.2762 9.30005 25.0001C9.30005 24.7239 9.52392 24.5001 9.80005 24.5001C10.0762 24.5001 10.3 24.7239 10.3 25.0001C10.3 25.2762 10.0762 25.5001 9.80005 25.5001Z" fill="#3F4545"/>
<path d="M23.3003 24.4999H13.3003V25.4999H23.3003V24.4999Z" fill="#3F4545"/>
</svg>
