<svg width="40" height="40" viewBox="0 0 40 40" fill="none" xmlns="http://www.w3.org/2000/svg">
<path d="M36.6332 2.28528H3.2887C2.76167 2.28528 2.33276 2.71411 2.33276 3.24122V21.4494C2.33276 21.9764 2.76151 22.4054 3.2887 22.4054H36.6332C37.1603 22.4054 37.5892 21.9765 37.5892 21.4494V3.24122C37.5891 2.71411 37.1603 2.28528 36.6332 2.28528ZM36.4171 21.2333H3.50472V3.45723H36.4171V21.2333Z" fill="#3F4545"/>
<path d="M19.9608 6.138C16.5171 6.138 13.7156 8.93956 13.7156 12.3832C13.7156 15.8269 16.5171 18.6285 19.9608 18.6285C23.4045 18.6285 26.206 15.8269 26.206 12.3832C26.206 8.93956 23.4045 6.138 19.9608 6.138ZM19.9608 17.4565C17.1634 17.4565 14.8875 15.1807 14.8875 12.3832C14.8875 9.58581 17.1634 7.30995 19.9608 7.30995C22.7582 7.30995 25.0341 9.58581 25.0341 12.3832C25.0341 15.1807 22.7583 17.4565 19.9608 17.4565Z" fill="#3F4545"/>
<path d="M22.3486 11.6304L18.9293 9.7031C18.3757 9.39092 17.7073 9.80943 17.7073 10.4562V14.3111C17.7073 14.9589 18.3767 15.3758 18.9292 15.0642L20.68 14.0773L22.3485 13.1367C22.9228 12.8131 22.923 11.9542 22.3486 11.6304ZM18.8793 13.747V11.0202L21.2981 12.3836L18.8793 13.747Z" fill="#3F4545"/>
<path d="M38.5519 33.4632V32.7292C38.5519 31.7499 37.8473 30.9331 36.9205 30.761C37.3383 30.2397 37.5892 29.578 37.5892 28.8582C37.5892 27.1816 36.2306 25.8174 34.5606 25.8174C32.8906 25.8174 31.532 27.1815 31.532 28.8582C31.532 29.578 31.7829 30.2396 32.2008 30.761C31.2738 30.9331 30.5694 31.7499 30.5694 32.7292V33.4632C30.2421 33.517 29.9456 33.6632 29.7072 33.8743C29.4688 33.6632 29.1723 33.517 28.845 33.4632V32.7292C28.845 31.7499 28.1405 30.9331 27.2135 30.761C27.6313 30.2397 27.8823 29.578 27.8823 28.8582C27.8823 27.1816 26.5237 25.8174 24.8537 25.8174C23.1837 25.8174 21.8251 27.1815 21.8251 28.8582C21.8251 29.578 22.0759 30.2396 22.4938 30.761C21.5668 30.9331 20.8624 31.7499 20.8624 32.7292V33.4632C20.5352 33.517 20.2387 33.6632 20.0002 33.8743C19.7619 33.6632 19.4654 33.517 19.138 33.4632V32.7292C19.138 31.7499 18.4335 30.9331 17.5066 30.761C17.9245 30.2397 18.1754 29.578 18.1754 28.8582C18.1754 27.1816 16.8168 25.8174 15.1468 25.8174C13.4769 25.8174 12.1183 27.1815 12.1183 28.8582C12.1183 29.578 12.3691 30.2396 12.787 30.761C11.86 30.9331 11.1555 31.7499 11.1555 32.7292V33.4632C10.8283 33.517 10.5318 33.6632 10.2934 33.8743C10.0551 33.6632 9.75859 33.517 9.43125 33.4632V32.7292C9.43125 31.7499 8.72672 30.9331 7.79984 30.761C8.21766 30.2397 8.46859 29.578 8.46859 28.8582C8.46859 27.1816 7.11 25.8174 5.44 25.8174C3.77008 25.8174 2.41148 27.1815 2.41148 28.8582C2.41148 29.578 2.66234 30.2396 3.08023 30.761C2.1532 30.9331 1.44875 31.7499 1.44875 32.7292V33.4632C0.628047 33.5979 0 34.3135 0 35.1738V38.7981C0 39.4609 0.539141 40.0001 1.20195 40.0001H9.61016C9.85148 40.0001 10.0765 39.9311 10.2688 39.8137C10.4544 39.9311 10.6735 40.0001 10.9089 40.0001H19.3631C19.5934 40.0001 19.8083 39.9349 19.9924 39.8238C20.1745 39.9349 20.3875 40.0001 20.6159 40.0001H29.1778C29.3823 40.0001 29.5734 39.9438 29.7383 39.8474C29.9115 39.9443 30.1106 40.0001 30.3228 40.0001H38.6018C39.3727 40.0001 39.9998 39.373 39.9998 38.6021V35.1738C40 34.3135 39.372 33.5978 38.5519 33.4632ZM5.43945 26.9894C6.46328 26.9894 7.29609 27.8278 7.29609 28.8582C7.29609 29.8888 6.4632 30.7271 5.43945 30.7271C4.4157 30.7271 3.58289 29.8888 3.58289 28.8582C3.58289 27.8278 4.4157 26.9894 5.43945 26.9894ZM2.62008 32.7292C2.62008 32.2715 2.9893 31.899 3.44328 31.899H7.43586C7.88977 31.899 8.25906 32.2714 8.25906 32.7292V33.4402H2.62008V32.7292ZM9.70703 38.7313C9.70703 38.7847 9.66359 38.8281 9.61023 38.8281H1.20195C1.18547 38.8281 1.17195 38.8147 1.17195 38.7981V35.1738C1.17195 34.8642 1.42141 34.6121 1.72797 34.6121C2.64469 34.6121 8.40094 34.6121 9.15094 34.6121C9.4575 34.6121 9.70695 34.8642 9.70695 35.1738V38.7313H9.70703ZM15.1465 26.9894C16.1703 26.9894 17.0031 27.8278 17.0031 28.8582C17.0031 29.8888 16.1702 30.7271 15.1465 30.7271C14.1227 30.7271 13.2899 29.8888 13.2899 28.8582C13.2898 27.8278 14.1227 26.9894 15.1465 26.9894ZM12.3271 32.7292C12.3271 32.2715 12.6964 31.899 13.1503 31.899H17.1428C17.5967 31.899 17.966 32.2714 17.966 32.7292V33.4402H12.3272V32.7292H12.3271ZM19.414 38.7772C19.414 38.8053 19.3912 38.8281 19.3631 38.8281H10.9089C10.8924 38.8281 10.8789 38.8147 10.8789 38.7981C10.8789 38.0042 10.8789 36.0281 10.8789 35.1738C10.8789 34.8642 11.1284 34.6121 11.4349 34.6121C12.1855 34.6121 17.9402 34.6121 18.8579 34.6121C19.1645 34.6121 19.4139 34.8642 19.4139 35.1738V38.7772H19.414ZM24.8534 26.9894C25.8773 26.9894 26.7101 27.8278 26.7101 28.8582C26.7101 29.8888 25.8772 30.7271 24.8534 30.7271C23.8297 30.7271 22.9968 29.8888 22.9968 28.8582C22.9968 27.8278 23.8298 26.9894 24.8534 26.9894ZM22.8573 31.8991H26.8498C27.3037 31.8991 27.673 32.2715 27.673 32.7293V33.4403H22.0341V32.7293C22.0341 32.2715 22.4033 31.8991 22.8573 31.8991ZM29.1211 38.7981V38.8281H20.6159C20.5995 38.8281 20.5859 38.8147 20.5859 38.7981V38.7772V35.1738C20.5859 34.8642 20.8353 34.6121 21.142 34.6121C21.8925 34.6121 27.6472 34.6121 28.565 34.6121C28.8716 34.6121 29.121 34.8642 29.121 35.1738V38.7981H29.1211ZM34.5605 26.9894C35.5844 26.9894 36.4172 27.8278 36.4172 28.8582C36.4172 29.8888 35.5843 30.7271 34.5605 30.7271C33.5368 30.7271 32.7039 29.8888 32.7039 28.8582C32.7038 27.8278 33.5367 26.9894 34.5605 26.9894ZM32.5642 31.8991H36.5568C37.0107 31.8991 37.38 32.2715 37.38 32.7293V33.4403H31.7412V32.7293H31.7411C31.7411 32.2715 32.1103 31.8991 32.5642 31.8991ZM38.8281 38.6021H38.828C38.828 38.7267 38.7266 38.8281 38.602 38.8281H30.3229C30.3064 38.8281 30.293 38.8147 30.293 38.7981V35.1738C30.293 34.8642 30.5423 34.6121 30.849 34.6121C31.7657 34.6121 37.522 34.6121 38.272 34.6121C38.5786 34.6121 38.828 34.8642 38.828 35.1738V38.6021H38.8281Z" fill="#3F4545"/>
<path d="M38.4764 0H21.3672C21.0436 0 20.7812 0.262344 20.7812 0.585938C20.7812 0.909531 21.0436 1.17188 21.3672 1.17188H38.4763C38.6669 1.17188 38.8279 1.33289 38.8279 1.52344V10.9779C38.8279 11.3015 39.0902 11.5638 39.4138 11.5638C39.7374 11.5638 39.9998 11.3015 39.9998 10.9779V1.52352C39.9999 0.683516 39.3164 0 38.4764 0Z" fill="#3F4545"/>
<path d="M39.4141 13.1275C39.0905 13.1275 38.8281 13.3898 38.8281 13.7134V23.1678C38.8281 23.3583 38.6671 23.5193 38.4766 23.5193H1.52352C1.33297 23.5193 1.17195 23.3583 1.17195 23.1678V1.52441C1.17195 1.33387 1.33297 1.17285 1.52352 1.17285H18.6327C18.9562 1.17285 19.2186 0.910508 19.2186 0.586914C19.2186 0.26332 18.9562 0.000976569 18.6327 0.000976569H1.52352C0.683516 0.000898444 0 0.684414 0 1.52441V23.1679C0 24.0079 0.683516 24.6914 1.52352 24.6914H38.4765C39.3166 24.6914 40 24.0079 40 23.1679V13.7135C40 13.3898 39.7377 13.1275 39.4141 13.1275Z" fill="#3F4545"/>
</svg>
