<svg width="30" height="30" viewBox="0 0 30 30" fill="none" xmlns="http://www.w3.org/2000/svg">
<path d="M20.782 11.8001L15 17.5821L9.21804 11.8001C8.82804 11.4101 8.19404 11.4101 7.80404 11.8001C7.41404 12.1901 7.41404 12.8241 7.80404 13.2141L14.29 19.7001C14.486 19.8961 14.744 19.9941 15 19.9921C15.258 19.9921 15.514 19.8961 15.71 19.7001L22.196 13.2141C22.586 12.8241 22.586 12.1901 22.196 11.8001C21.806 11.4101 21.172 11.4101 20.782 11.8001ZM15.072 0.14209C6.82804 0.14209 0.144043 6.82609 0.144043 15.0701C0.142043 23.3161 6.82604 30.0001 15.072 30.0001C23.316 30.0001 30 23.3161 30 15.0721C30 6.82609 23.316 0.14209 15.072 0.14209ZM15.072 28.0001C7.94404 28.0001 2.14404 22.2001 2.14404 15.0721C2.14404 7.94409 7.94404 2.14409 15.072 2.14409C22.2 2.14209 28 7.94209 28 15.0721C28 22.2001 22.2 28.0001 15.072 28.0001Z" fill="#00AAFF"/>
</svg>
