<svg width="17" height="17" viewBox="0 0 17 17" fill="none" xmlns="http://www.w3.org/2000/svg">
<path d="M14.5051 2.4907C12.8986 0.884144 10.7673 0 8.49581 0C6.22435 0 4.09306 0.884144 2.48651 2.4907C-0.618776 5.59598 -0.83442 10.5666 1.95099 13.9199C1.67784 14.4698 1.23936 15.1095 0.588836 15.4294C0.276151 15.5839 0.100041 15.9182 0.153952 16.2632C0.207863 16.6082 0.473825 16.8778 0.818857 16.9317C0.98059 16.9569 1.21061 16.982 1.49095 16.982C2.24211 16.982 3.34909 16.8059 4.48122 15.9901C5.74275 16.6693 7.12287 17 8.49222 17C10.6918 17 12.8698 16.1482 14.5087 14.5093C16.1153 12.9027 16.9994 10.7715 16.9994 8.5C16.9994 6.22854 16.1117 4.09725 14.5051 2.4907ZM13.8186 13.8228C11.3926 16.2488 7.63683 16.7304 4.68249 14.9945C4.48841 14.8795 4.24761 14.9154 4.09306 15.07C4.07869 15.0772 4.06431 15.0879 4.05353 15.0987C3.07953 15.8535 2.12351 16.0116 1.49095 16.0116H1.48736C2.21695 15.4797 2.677 14.689 2.94655 14.0744C2.98968 13.9702 2.99687 13.8624 2.97171 13.7617C2.96093 13.6647 2.92139 13.5677 2.85311 13.4886C0.222239 10.5163 0.358814 5.98774 3.16939 3.17717C6.10575 0.240804 10.8823 0.240804 13.8151 3.17717C16.755 6.11353 16.755 10.8865 13.8186 13.8228Z" fill="#3F4545"/>
<path d="M8.49573 9.09654C8.82523 9.09654 9.09234 8.82943 9.09234 8.49993C9.09234 8.17043 8.82523 7.90332 8.49573 7.90332C8.16622 7.90332 7.89911 8.17043 7.89911 8.49993C7.89911 8.82943 8.16622 9.09654 8.49573 9.09654Z" fill="#3F4545"/>
<path d="M11.5723 9.09654C11.9018 9.09654 12.1689 8.82943 12.1689 8.49993C12.1689 8.17043 11.9018 7.90332 11.5723 7.90332C11.2428 7.90332 10.9756 8.17043 10.9756 8.49993C10.9756 8.82943 11.2428 9.09654 11.5723 9.09654Z" fill="#3F4545"/>
<path d="M5.41922 9.09654C5.74872 9.09654 6.01584 8.82943 6.01584 8.49993C6.01584 8.17043 5.74872 7.90332 5.41922 7.90332C5.08972 7.90332 4.8226 8.17043 4.8226 8.49993C4.8226 8.82943 5.08972 9.09654 5.41922 9.09654Z" fill="#3F4545"/>
</svg>
