<svg xmlns="http://www.w3.org/2000/svg" viewBox="0 0 30 30"><defs><style>.cls-1{fill:#fff;}</style></defs><title>Ресурс 1</title><g id="Слой_2" data-name="Слой 2"><g id="Layer_1" data-name="Layer 1"><rect class="cls-1" width="30" height="30" rx="5"/><circle cx="17.15" cy="7.1" r="3.6"/><path d="M10.59,14.85s1.69-.49,1.94.32-.78,2.48-1.12,3.2A10.24,10.24,0,0,0,10,22.1a4,4,0,0,0,1.28,3.44,5.77,5.77,0,0,0,4.42.85A7,7,0,0,0,19,25a.75.75,0,0,0-.77-1.29c-.92.31-2.27.57-2.29-.47s1.62-3.66,2-4.5a5.19,5.19,0,0,0,.29-4.23,3.71,3.71,0,0,0-2.79-2.17,7,7,0,0,0-4.78.71,2.86,2.86,0,0,0-1.29,1C9.05,14.62,9.54,15.23,10.59,14.85Z"/></g></g></svg>