<svg width="100" height="100" viewBox="0 0 100 100" fill="none" xmlns="http://www.w3.org/2000/svg">
<rect width="100" height="100" fill="#C4C4C4"/>
<rect x="5" y="5" width="90" height="90" fill="#989898"/>
<path d="M51.734 94.7572C50.2298 90.5976 20.3912 34.0128 5 5H95C80.5397 33.7593 52.3444 90.5859 51.734 94.7572C51.8022 94.9459 51.8121 95.0267 51.7598 94.9922C51.7229 94.9679 51.7147 94.8887 51.734 94.7572Z" fill="#E6E0E0"/>
<path d="M51.5 95L37.5 4.5H63L51.5 95Z" fill="white"/>
<rect x="15" y="43" width="72" height="43" rx="3" fill="black"/>
<rect x="34" y="32" width="34" height="16" rx="3" fill="black"/>
<rect x="39" y="36" width="24" height="7" fill="#E5E0E0"/>
<circle cx="21" cy="50" r="3" fill="#22D671"/>
<circle cx="31" cy="50" r="3" fill="#22D671"/>
<circle cx="41" cy="50" r="3" fill="#22D671"/>
<circle cx="51" cy="50" r="3" fill="#22D671"/>
<circle cx="81" cy="50" r="3" fill="#22D671"/>
<circle cx="71" cy="50" r="3" fill="#22D671"/>
<circle cx="61" cy="50" r="3" fill="#22D671"/>
<circle cx="21" cy="70" r="3" fill="#22D671"/>
<circle cx="31" cy="70" r="3" fill="#22D671"/>
<circle cx="41" cy="70" r="3" fill="#22D671"/>
<circle cx="51" cy="70" r="3" fill="#22D671"/>
<circle cx="81" cy="70" r="3" fill="#22D671"/>
<circle cx="71" cy="70" r="3" fill="#22D671"/>
<circle cx="61" cy="70" r="3" fill="#22D671"/>
<circle cx="21" cy="80" r="3" fill="#22D671"/>
<circle cx="31" cy="80" r="3" fill="#22D671"/>
<circle cx="41" cy="80" r="3" fill="#22D671"/>
<circle cx="51" cy="80" r="3" fill="#22D671"/>
<circle cx="81" cy="80" r="3" fill="#22D671"/>
<circle cx="71" cy="80" r="3" fill="#22D671"/>
<circle cx="61" cy="80" r="3" fill="#22D671"/>
<circle cx="21" cy="60" r="3" fill="#22D671"/>
<circle cx="31" cy="60" r="3" fill="#22D671"/>
<circle cx="41" cy="60" r="3" fill="#22D671"/>
<circle cx="51" cy="60" r="3" fill="#22D671"/>
<circle cx="81" cy="60" r="3" fill="#22D671"/>
<circle cx="71" cy="60" r="3" fill="#22D671"/>
<circle cx="61" cy="60" r="3" fill="#22D671"/>
<g filter="url(#filter0_d)">
<path d="M15 58L51 68.5L87 58" stroke="#AEAAAA"/>
</g>
<rect x="48" y="67" width="6" height="6" fill="#A9A7A7"/>
<rect x="50" y="69" width="2" height="3" fill="#818181"/>
<path d="M59 36H42.5L44 43H58L59 36Z" fill="white"/>
<defs>
<filter id="filter0_d" x="4.85999" y="51.52" width="92.28" height="31.5008" filterUnits="userSpaceOnUse" color-interpolation-filters="sRGB">
<feFlood flood-opacity="0" result="BackgroundImageFix"/>
<feColorMatrix in="SourceAlpha" type="matrix" values="0 0 0 0 0 0 0 0 0 0 0 0 0 0 0 0 0 0 127 0"/>
<feOffset dy="4"/>
<feGaussianBlur stdDeviation="5"/>
<feColorMatrix type="matrix" values="0 0 0 0 0 0 0 0 0 0 0 0 0 0 0 0 0 0 0.25 0"/>
<feBlend mode="normal" in2="BackgroundImageFix" result="effect1_dropShadow"/>
<feBlend mode="normal" in="SourceGraphic" in2="effect1_dropShadow" result="shape"/>
</filter>
</defs>
</svg>
