<svg xmlns="http://www.w3.org/2000/svg" viewBox="0 0 30 30"><defs><style>.cls-1{fill:#fff;}</style></defs><title>Ресурс 8</title><g id="Слой_2" data-name="Слой 2"><g id="Layer_1" data-name="Layer 1"><rect class="cls-1" width="30" height="30" rx="5"/><circle cx="15.49" cy="7.05" r="0.48"/><circle cx="17.21" cy="7.53" r="0.48"/><path d="M18.92,8.5A.49.49,0,1,1,19.4,8,.48.48,0,0,1,18.92,8.5Z"/><circle cx="20.64" cy="8.49" r="0.48"/><path d="M22.35,9.46A.49.49,0,1,1,22.83,9,.48.48,0,0,1,22.35,9.46Z"/><path d="M22,17.35l-6.56-2.6a.39.39,0,0,1-.24-.35V8.33a.29.29,0,0,1,.38-.27l6.57,2.06a.28.28,0,0,1,.19.26v6.74A.25.25,0,0,1,22,17.35Z"/><path d="M13.92,4.52,26.49,7.77v11l-1.7,1.1L12.25,14.46l-.17-.08-.17.06-2.31.7-.36.11V17.2L6.13,18.36l-1.74-.73V6.8l9.53-2.28m0-.52-10,2.41V18l2.23.93,3.63-1.35V15.62l2.3-.7,12.79,5.53L27,19.06V7.38L13.92,4Z"/><polygon points="24.89 8.76 13.94 5.83 6.11 7.75 4.17 6.82 4.39 6.36 6.16 7.22 13.95 5.31 24.83 8.22 26.42 7.39 26.65 7.84 24.89 8.76"/><polygon points="9.75 15.44 9.25 15.44 9.25 10.86 13.68 9.48 13.69 5.57 14.19 5.57 14.18 9.85 9.75 11.23 9.75 15.44"/><polygon points="24.59 20.03 25.03 20.03 26.73 18.98 26.73 7.53 24.59 8.49 24.59 20.03"/><polygon points="6.37 18.43 5.95 18.54 4.1 17.8 4.1 6.67 6.37 7.43 6.37 18.43"/><polygon points="12.32 10.32 9.5 10.89 9.63 15.3 12.32 14.65 12.32 10.32"/><path d="M21.05,22.66c0,.52-1.48.94-3.3.94s-3.3-.42-3.3-.94,1.48-.94,3.3-.94S21.05,22.14,21.05,22.66Z"/><ellipse class="cls-1" cx="17.75" cy="17.8" rx="3.3" ry="1.1"/><path d="M17.75,17.2a4.69,4.69,0,0,1,2.77.6,4.77,4.77,0,0,1-2.77.6A4.75,4.75,0,0,1,15,17.8a4.66,4.66,0,0,1,2.77-.6m0-.51c-1.82,0-3.3.5-3.3,1.11s1.48,1.1,3.3,1.1,3.3-.5,3.3-1.1-1.48-1.11-3.3-1.11Z"/><polygon points="21.05 22.66 14.45 22.66 14.45 17.87 16.18 18.55 19.87 18.46 21.05 17.87 21.05 22.66"/><path d="M28,19.46l-1.69-.7a2.53,2.53,0,0,1-.31.42l1.8.74a.39.39,0,0,1,0,.72L17.7,25.13A4,4,0,0,1,16,25.5,4.13,4.13,0,0,1,14,25L2.24,18.49A.54.54,0,0,1,2,18a.55.55,0,0,1,.36-.49l2-.66-.06-.5L2.15,17A1.06,1.06,0,0,0,2,18.93l11.71,6.48a4.7,4.7,0,0,0,4.2.18L28,21.09A.89.89,0,0,0,28,19.46Z"/></g></g></svg>