<svg width="29" height="25" viewBox="0 0 29 25" fill="none" xmlns="http://www.w3.org/2000/svg">
<rect x="6" width="23" height="5" rx="2" fill="white"/>
<path d="M2.37319 0.0112005C2.53836 0.00750419 2.70473 0.00454936 2.8696 0.00260474C4.12729 -0.0122301 5 0.98524 5 2.24302V2.5C5 3.88071 3.88071 5 2.5 5C1.11929 5 0 3.87116 0 2.49045C0 1.15675 1.03981 0.0410395 2.37319 0.0112005Z" fill="white"/>
<rect x="6" y="10" width="23" height="5" rx="2" fill="white"/>
<rect x="6" y="20" width="23" height="5" rx="2" fill="white"/>
<path d="M2.37319 10.0112C2.53836 10.0075 2.70473 10.0046 2.8696 10.0026C4.12729 9.98777 5 10.9852 5 12.243V12.5C5 13.8807 3.88071 15 2.5 15C1.11929 15 0 13.8712 0 12.4905C0 11.1567 1.03981 10.041 2.37319 10.0112Z" fill="white"/>
<path d="M2.37319 20.0112C2.53836 20.0075 2.70473 20.0045 2.8696 20.0026C4.12729 19.9878 5 20.9852 5 22.243V22.5C5 23.8807 3.88071 25 2.5 25C1.11929 25 0 23.8712 0 22.4905C0 21.1567 1.03981 20.041 2.37319 20.0112Z" fill="white"/>
</svg>
