<svg width="67" height="35" viewBox="0 0 67 35" fill="none" xmlns="http://www.w3.org/2000/svg">
<g clip-path="url(#clip0)">
<path d="M17.5 35C27.165 35 35 27.165 35 17.5C35 7.83502 27.165 0 17.5 0C7.83502 0 0 7.83502 0 17.5C0 27.165 7.83502 35 17.5 35Z" fill="#F4004D"/>
<path d="M16.6 6.09998H17.6V9.49998C17.6 9.79998 17.6 10.1 17.5 10.4C17.4 10.7 17.3 10.9 17.1 11C16.9 11.2 16.7 11.3 16.5 11.4C16.3 11.5 16 11.5 15.7 11.5C15 11.5 14.6 11.3 14.2 11C13.9 10.7 13.7 10.2 13.7 9.59998V6.09998H14.7V9.39998C14.7 9.79998 14.8 10.1 14.9 10.3C15 10.5 15.3 10.6 15.6 10.6C15.9 10.6 16.1 10.5 16.3 10.3C16.4 10.1 16.5 9.79998 16.5 9.39998V6.09998H16.6Z" fill="black"/>
<path d="M21.3 9.19998H20.8V11.4H19.8V6.09998H20.8V8.29998H21.3L22.5 6.09998H23.7L22.2 8.69998L23.9 11.4H22.6L21.3 9.19998Z" fill="black"/>
<path d="M25.8 6.1C25.9 6.1 26 6.1 26.2 6C26.3 6 26.5 6 26.6 6C26.7 6 26.9 6 27 6C27.1 6 27.2 6 27.3 6C27.5 6 27.8 6 28 6.1C28.2 6.1 28.5 6.2 28.6 6.3C28.8 6.4 28.9 6.6 29.1 6.8C29.2 7 29.3 7.2 29.3 7.5C29.3 7.7 29.3 7.9 29.2 8.1C29.2 8.3 29.1 8.4 29 8.5C28.9 8.6 28.8 8.7 28.7 8.8C28.6 8.9 28.5 9 28.3 9L29.6 11.3H28.4L27.3 9.2H26.7V11.3H25.7V6.1H25.8ZM27.4 6.9C27.3 6.9 27.2 6.9 27.1 6.9C27 6.9 26.9 6.9 26.9 6.9V8.4H27.3C27.6 8.4 27.8 8.3 28 8.2C28.2 8.1 28.3 7.9 28.3 7.5C28.3 7.3 28.2 7.1 28.1 7C27.9 7 27.7 6.9 27.4 6.9Z" fill="black"/>
<path d="M34.5 10.2H32.9L32.5 11.4H31.5L33.2 6.09998H34.2L35.9 11.4H34.8L34.5 10.2ZM33.1 9.39998H34.2L33.7 7.59998H33.6L33.1 9.39998Z" fill="black"/>
<path d="M37.9 10.5H39.2V6.99998H37.9V6.09998H41.6V6.99998H40.2V10.5H41.6V11.4H37.9V10.5Z" fill="black"/>
<path d="M45 8.19998V8.79998V11.3H44V6.09998H44.9L46.7 9.29998L46.6 8.69998V6.09998H47.6V11.4H46.7L45 8.19998Z" fill="black"/>
<path d="M50.1 10.5H51.4V6.99998H50.1V6.09998H53.8V6.99998H52.4V10.5H53.8V11.4H50.1V10.5Z" fill="black"/>
<path d="M58.8 10.2H57.2L56.8 11.4H55.8L57.5 6.09998H58.5L60.2 11.4H59.1L58.8 10.2ZM57.5 9.39998H58.6L58.1 7.59998H58L57.5 9.39998Z" fill="black"/>
<path d="M63.3 8.19998V8.79998V11.3H62.3V6.09998H63.2L65 9.29998V8.69998V6.09998H66V11.4H65.1L63.3 8.19998Z" fill="black"/>
<path d="M16.6 17.2V16.4L15.8 17.8H15.6L14.7 16.4V17.1V20H13.7V14.7H14.8L15.7 16.2L16.6 14.7H17.6V20H16.6V17.2Z" fill="black"/>
<path d="M22.4 18.8H20.8L20.4 20H19.4L21.1 14.7H22.1L23.8 20H22.7L22.4 18.8ZM21 18H22.1L21.6 16.2H21.5L21 18Z" fill="black"/>
<path d="M25.8 14.7C25.9 14.7 26 14.7 26.2 14.6C26.3 14.6 26.5 14.6 26.6 14.6C26.7 14.6 26.9 14.6 27 14.6C27.1 14.6 27.2 14.6 27.3 14.6C27.5 14.6 27.8 14.6 28 14.7C28.2 14.7 28.5 14.8 28.6 14.9C28.8 15 28.9 15.2 29.1 15.4C29.2 15.6 29.3 15.8 29.3 16.1C29.3 16.3 29.3 16.5 29.2 16.7C29.2 16.9 29.1 17 29 17.1C28.9 17.2 28.8 17.3 28.7 17.4C28.6 17.5 28.5 17.6 28.3 17.6L29.6 19.9H28.4L27.3 17.8H26.7V20H25.7V14.7H25.8ZM27.4 15.5C27.3 15.5 27.2 15.5 27.1 15.5C27 15.5 26.9 15.5 26.9 15.5V17H27.3C27.6 17 27.8 16.9 28 16.8C28.2 16.7 28.3 16.5 28.3 16.1C28.3 15.9 28.2 15.7 28.1 15.6C27.9 15.6 27.7 15.5 27.4 15.5Z" fill="black"/>
<path d="M33.4 17.8H32.9V20H31.9V14.7H32.9V16.9H33.4L34.6 14.7H35.8L34.3 17.3L36 20H34.7L33.4 17.8Z" fill="black"/>
<path d="M38 14.7H41.5V15.6H39.1V16.8H41.4V17.7H39.1V19H41.6V20H38V14.7Z" fill="black"/>
<path d="M44.5 19.2H45.4V15.6H44.7V16.5H43.9V14.7H48V16.5H47.2V15.6H46.5V19.2H47.4V20H44.6V19.2H44.5Z" fill="black"/>
<path d="M50.1 19.1H51.4V15.6H50.1V14.7H53.8V15.6H52.4V19.1H53.8V20H50.1V19.1Z" fill="black"/>
<path d="M57.2 16.9V17.5V20H56.2V14.7H57.1L58.9 17.9L58.8 17.3V14.7H59.8V20H59L57.2 16.9Z" fill="black"/>
<path d="M64.3 17.2H66.1V19.6C65.9 19.8 65.7 19.9 65.4 20C65.1 20.1 64.8 20.1 64.6 20.1C64.3 20.1 63.9 20 63.6 19.9C63.3 19.8 63 19.6 62.8 19.4C62.6 19.2 62.4 18.9 62.3 18.5C62.2 18.2 62.1 17.7 62.1 17.3C62.1 16.8 62.2 16.4 62.3 16C62.5 15.7 62.6 15.4 62.9 15.2C63.1 15 63.4 14.8 63.7 14.7C64 14.6 64.3 14.5 64.6 14.5C64.9 14.5 65.2 14.5 65.4 14.6C65.6 14.6 65.8 14.7 66 14.8V16.4H65.2V15.6H65.1C65 15.6 64.9 15.6 64.8 15.6C64.6 15.6 64.4 15.6 64.2 15.7C64 15.8 63.9 15.9 63.7 16C63.6 16.1 63.5 16.3 63.4 16.6C63.3 16.8 63.3 17.1 63.3 17.4C63.3 17.7 63.3 17.9 63.4 18.2C63.5 18.4 63.6 18.6 63.7 18.8C63.8 19 64 19.1 64.2 19.2C64.4 19.3 64.6 19.3 64.8 19.3C64.9 19.3 65.1 19.3 65.2 19.3C65.3 19.3 65.4 19.2 65.4 19.2V18H64.4V17.2H64.3Z" fill="black"/>
<path d="M14 23.5H17.4V24.4H15V25.7H17.2V26.6H15V28.7H14V23.5Z" fill="black"/>
<path d="M19.6 26.1C19.6 25.7 19.6 25.3 19.7 24.9C19.8 24.6 19.9 24.3 20.1 24C20.3 23.8 20.5 23.6 20.7 23.5C21 23.4 21.2 23.3 21.6 23.3C22 23.3 22.3 23.4 22.5 23.5C22.8 23.6 23 23.8 23.1 24.1C23.3 24.3 23.4 24.6 23.4 25C23.5 25.3 23.5 25.7 23.5 26.1C23.5 27 23.3 27.6 23 28.1C22.7 28.6 22.2 28.8 21.5 28.8C21.1 28.8 20.8 28.7 20.6 28.6C20.3 28.5 20.1 28.3 20 28C19.8 27.8 19.7 27.5 19.7 27.1C19.7 26.9 19.6 26.5 19.6 26.1ZM20.7 26.1C20.7 26.4 20.7 26.6 20.7 26.8C20.7 27 20.8 27.2 20.8 27.4C20.9 27.6 21 27.7 21.1 27.8C21.2 27.9 21.4 27.9 21.6 27.9C21.8 27.9 21.9 27.9 22 27.8C22.1 27.7 22.2 27.6 22.3 27.5C22.4 27.3 22.4 27.2 22.4 26.9C22.4 26.7 22.4 26.4 22.4 26.1C22.4 25.9 22.4 25.6 22.4 25.4C22.4 25.2 22.3 25 22.3 24.8C22.2 24.6 22.1 24.5 22 24.4C21.9 24.3 21.7 24.3 21.5 24.3C21.1 24.3 20.9 24.5 20.8 24.8C20.8 25.1 20.7 25.5 20.7 26.1Z" fill="black"/>
<path d="M25.8 23.5C25.9 23.5 26 23.5 26.2 23.4C26.3 23.4 26.5 23.4 26.6 23.4C26.7 23.4 26.9 23.4 27 23.4C27.1 23.4 27.2 23.4 27.3 23.4C27.5 23.4 27.8 23.4 28 23.5C28.2 23.5 28.5 23.6 28.6 23.7C28.8 23.8 28.9 24 29.1 24.2C29.2 24.4 29.3 24.6 29.3 24.9C29.3 25.1 29.3 25.3 29.2 25.5C29.2 25.7 29.1 25.8 29 25.9C28.9 26 28.8 26.1 28.7 26.2C28.6 26.3 28.5 26.4 28.3 26.4L29.6 28.7H28.4L27.3 26.6H26.7V28.7H25.7V23.5H25.8ZM27.4 24.3C27.3 24.3 27.2 24.3 27.1 24.3C27 24.3 26.9 24.3 26.9 24.3V25.8H27.3C27.6 25.8 27.8 25.7 28 25.6C28.2 25.5 28.3 25.3 28.3 24.9C28.3 24.7 28.2 24.5 28.1 24.4C27.9 24.4 27.7 24.3 27.4 24.3Z" fill="black"/>
<path d="M34.6 23.5H35.6V26.9C35.6 27.2 35.6 27.5 35.5 27.8C35.4 28.1 35.3 28.3 35.1 28.4C34.9 28.6 34.7 28.7 34.5 28.8C34.3 28.9 34 28.9 33.7 28.9C33 28.9 32.6 28.7 32.2 28.4C31.9 28.1 31.7 27.6 31.7 27V23.5H32.7V26.8C32.7 27.2 32.8 27.5 32.9 27.7C33 27.9 33.3 28 33.6 28C33.9 28 34.1 27.9 34.3 27.7C34.4 27.5 34.5 27.2 34.5 26.8V23.5H34.6Z" fill="black"/>
<path d="M40.7 25.9V25.1L39.9 26.5H39.7L38.8 25.1V25.8V28.7H37.8V23.4H38.9L39.8 24.9L40.7 23.4H41.7V28.7H40.7V25.9Z" fill="black"/>
</g>
<defs>
<clipPath id="clip0">
<rect width="66.1" height="35" fill="white"/>
</clipPath>
</defs>
</svg>
