<svg width="100" height="100" viewBox="0 0 100 100" fill="none" xmlns="http://www.w3.org/2000/svg">
<rect width="100" height="100" fill="#C4C4C4"/>
<rect x="5" y="5" width="90" height="90" fill="#565656"/>
<path d="M95 14.5L65 37L33.5 94.5H95V14.5Z" fill="black"/>
<path d="M95 14.5L65 37L33.5 94.5H95V14.5Z" stroke="black"/>
<path d="M5.5 67.5V44.7365L43.9388 13.1969L79.2924 54.4428L31.8172 94.5H21.25H5.5V67.5Z" fill="#E5E5E5" stroke="#171717"/>
<path d="M37 29.5L45.5 22.5" stroke="#22D671"/>
<path d="M38 31L46.5 24" stroke="#22D671"/>
<path d="M38 31L46.5 24" stroke="#22D671"/>
<path d="M40 33L48.5 26" stroke="#22D671"/>
<circle cx="31" cy="37" r="6" fill="#22D671"/>
<path d="M44 13L37 65.5L5.5 68" stroke="#585858"/>
<path d="M79 54.5L39 52" stroke="#585858"/>
<path d="M21.5 66.5V94.5" stroke="#585858"/>
</svg>
