<svg xmlns="http://www.w3.org/2000/svg" viewBox="0 0 30 30"><defs><style>.cls-1{fill:#fff;}</style></defs><title>Ресурс 6</title><g id="Слой_2" data-name="Слой 2"><g id="Layer_1" data-name="Layer 1"><rect class="cls-1" width="30" height="30" rx="5"/><path d="M17.59,8.09a4.57,4.57,0,0,1,2.11,3.38,3.67,3.67,0,1,0-2.11-3.38ZM15.18,15.6a3.67,3.67,0,1,0-3.66-3.67A3.67,3.67,0,0,0,15.18,15.6Zm1.56.25H13.63a4.7,4.7,0,0,0-4.7,4.69v3.87l.27.08a21.4,21.4,0,0,0,6.38,1,12.9,12.9,0,0,0,5.57-1.05l.25-.12h0V20.54A4.69,4.69,0,0,0,16.74,15.85Zm6.07-3.79H19.72a4.48,4.48,0,0,1-1.4,3.15,5.58,5.58,0,0,1,4,5.34v1.17a12.61,12.61,0,0,0,4.92-1l.24-.13h0v-3.8A4.71,4.71,0,0,0,22.81,12.06ZM8.75,11.81a3.68,3.68,0,0,0,1.95-.56,4.56,4.56,0,0,1,1.71-2.9c0-.07,0-.13,0-.2a3.67,3.67,0,1,0-3.67,3.66ZM12,15.21a4.53,4.53,0,0,1-1.39-3.13l-.34,0H7.19a4.71,4.71,0,0,0-4.69,4.7v3.86l.26.08a22,22,0,0,0,5.29,1V20.55A5.58,5.58,0,0,1,12,15.21Z"/></g></g></svg>