<svg width="100" height="100" viewBox="0 0 100 100" fill="none" xmlns="http://www.w3.org/2000/svg">
<rect width="100" height="100" fill="#C4C4C4"/>
<rect x="5" y="5" width="90" height="90" fill="white"/>
<rect x="5" y="5" width="45" height="45" fill="black"/>
<rect x="50" y="5" width="45" height="45" fill="#22D671"/>
<g filter="url(#filter0_i)">
<path d="M14 37C14 31.4772 18.4772 27 24 27H32C37.5228 27 42 31.4772 42 37V50H14V37Z" fill="#C4C4C4"/>
</g>
<ellipse cx="28" cy="20.5" rx="7" ry="6.5" fill="#C4C4C4"/>
<circle cx="25" cy="20" r="1" fill="black"/>
<circle cx="30" cy="20" r="1" fill="black"/>
<path d="M26 24C27.5 24.1667 30.6 24.1 31 22.5" stroke="black"/>
<rect x="5" y="50" width="45" height="45" fill="#464646"/>
<g filter="url(#filter1_i)">
<path d="M14 82C14 76.4772 18.4772 72 24 72H32C37.5228 72 42 76.4772 42 82V95H14V82Z" fill="#22D671"/>
</g>
<ellipse cx="28" cy="65.5" rx="7" ry="6.5" fill="#22D671"/>
<circle cx="25" cy="65" r="1" fill="black"/>
<circle cx="30" cy="65" r="1" fill="black"/>
<path d="M26 69C27.5 69.1667 30.6 69.1 31 67.5" stroke="black"/>
<rect x="50" y="50" width="45" height="45" fill="#EBEBEB"/>
<path d="M59 82C59 76.4772 63.4772 72 69 72H77C82.5228 72 87 76.4772 87 82V95H59V82Z" fill="black"/>
<ellipse cx="73" cy="65.5" rx="7" ry="6.5" fill="black"/>
<circle cx="70" cy="65" r="1" fill="#22D671"/>
<circle cx="75" cy="65" r="1" fill="#22D671"/>
<path d="M71 69C72.5 69.1667 75.6 69.1 76 67.5" stroke="#22D671"/>
<g filter="url(#filter2_i)">
<path d="M58 37C58 31.4772 62.4772 27 68 27H76C81.5228 27 86 31.4772 86 37V50H58V37Z" fill="#464646"/>
</g>
<ellipse cx="72" cy="20.5" rx="7" ry="6.5" fill="#464646"/>
<circle cx="69" cy="20" r="1" fill="white"/>
<circle cx="74" cy="20" r="1" fill="white"/>
<path d="M70 24C71.5 24.1667 74.6 24.1 75 22.5" stroke="white"/>
<defs>
<filter id="filter0_i" x="14" y="27" width="28" height="23" filterUnits="userSpaceOnUse" color-interpolation-filters="sRGB">
<feFlood flood-opacity="0" result="BackgroundImageFix"/>
<feBlend mode="normal" in="SourceGraphic" in2="BackgroundImageFix" result="shape"/>
<feColorMatrix in="SourceAlpha" type="matrix" values="0 0 0 0 0 0 0 0 0 0 0 0 0 0 0 0 0 0 127 0" result="hardAlpha"/>
<feOffset/>
<feGaussianBlur stdDeviation="2"/>
<feComposite in2="hardAlpha" operator="arithmetic" k2="-1" k3="1"/>
<feColorMatrix type="matrix" values="0 0 0 0 0 0 0 0 0 0 0 0 0 0 0 0 0 0 0.35 0"/>
<feBlend mode="darken" in2="shape" result="effect1_innerShadow"/>
</filter>
<filter id="filter1_i" x="14" y="72" width="28" height="23" filterUnits="userSpaceOnUse" color-interpolation-filters="sRGB">
<feFlood flood-opacity="0" result="BackgroundImageFix"/>
<feBlend mode="normal" in="SourceGraphic" in2="BackgroundImageFix" result="shape"/>
<feColorMatrix in="SourceAlpha" type="matrix" values="0 0 0 0 0 0 0 0 0 0 0 0 0 0 0 0 0 0 127 0" result="hardAlpha"/>
<feOffset/>
<feGaussianBlur stdDeviation="2"/>
<feComposite in2="hardAlpha" operator="arithmetic" k2="-1" k3="1"/>
<feColorMatrix type="matrix" values="0 0 0 0 0 0 0 0 0 0 0 0 0 0 0 0 0 0 0.25 0"/>
<feBlend mode="normal" in2="shape" result="effect1_innerShadow"/>
</filter>
<filter id="filter2_i" x="58" y="27" width="28" height="23" filterUnits="userSpaceOnUse" color-interpolation-filters="sRGB">
<feFlood flood-opacity="0" result="BackgroundImageFix"/>
<feBlend mode="normal" in="SourceGraphic" in2="BackgroundImageFix" result="shape"/>
<feColorMatrix in="SourceAlpha" type="matrix" values="0 0 0 0 0 0 0 0 0 0 0 0 0 0 0 0 0 0 127 0" result="hardAlpha"/>
<feOffset/>
<feGaussianBlur stdDeviation="2"/>
<feComposite in2="hardAlpha" operator="arithmetic" k2="-1" k3="1"/>
<feColorMatrix type="matrix" values="0 0 0 0 0 0 0 0 0 0 0 0 0 0 0 0 0 0 0.25 0"/>
<feBlend mode="normal" in2="shape" result="effect1_innerShadow"/>
</filter>
</defs>
</svg>
