<svg xmlns="http://www.w3.org/2000/svg" viewBox="0 0 30 30"><defs><style>.cls-1{fill:#fff;}</style></defs><title>Ресурс 5</title><g id="Слой_2" data-name="Слой 2"><g id="Layer_1" data-name="Layer 1"><rect class="cls-1" width="30" height="30" rx="5"/><path d="M3,8v4.11h8.71V3.91H3Zm7.39,0v2.79H4.31V5.23h6.08Z"/><path d="M13.18,9.42v2.71l2.85,0L18.85,12V6.79L16,6.74l-2.85,0Z"/><path d="M21.23,9.42v2.71l2.85,0L26.9,12V6.79l-2.82,0-2.85,0Z"/><path d="M5.14,16.4V19H10.9l-.05-2.59,0-2.58L8,13.8l-2.84,0Z"/><path d="M13.18,16.4V19H19l-.05-2.59,0-2.58L16,13.8l-2.85,0V16.4Z"/><path d="M21.23,16.4V19H27L27,16.43l-.05-2.58-2.82,0-2.85,0V16.4Z"/><path d="M5.14,23.46v2.63l2.84,0,2.82,0,0-2.6.05-2.58H5.14Z"/><path d="M13.18,23.46v2.63l2.85,0,2.82,0,0-2.6L19,20.83H13.18v2.63Z"/><path d="M21.23,23.46v2.63l2.85,0,2.82,0,.05-2.6L27,20.83H21.23v2.63Z"/></g></g></svg>