<svg xmlns="http://www.w3.org/2000/svg" viewBox="0 0 30 30"><defs><style>.cls-1{fill:#fff;}</style></defs><title>Ресурс 2</title><g id="Слой_2" data-name="Слой 2"><g id="Layer_1" data-name="Layer 1"><rect class="cls-1" width="30" height="30" rx="5"/><rect x="14.58" y="19.9" width="0.83" height="0.83"/><rect x="13.75" y="21.56" width="2.5" height="0.83"/><path d="M27.08,3.85H2.92a.42.42,0,0,0-.42.42V5.94a.41.41,0,0,0,.42.41h.83V22a.42.42,0,0,0,.42.42h7.65L12,23.65h-.34a.41.41,0,0,0-.42.41v1.67a.42.42,0,0,0,.42.42h6.66a.42.42,0,0,0,.42-.42V24.06a.41.41,0,0,0-.42-.41H18l.19-1.25h7.65a.42.42,0,0,0,.42-.42V6.35h.83a.41.41,0,0,0,.42-.41V4.27A.42.42,0,0,0,27.08,3.85ZM12.15,19.06h5.7l-.71,4.59H12.86Zm13.27,2.5H18.31l.38-2.5h.89a.43.43,0,0,0,.41-.31l.41-1.67a.41.41,0,0,0-.3-.5l-.1,0h-.83V15.31A.41.41,0,0,0,19,15l-.83-.84a1.25,1.25,0,1,0-1.13.72,1.26,1.26,0,0,0,.54-.13l.71.72v1.07H11.67V15.49l.71-.72a1.25,1.25,0,1,0-.71-1.12,1.24,1.24,0,0,0,.12.53L11,15a.41.41,0,0,0-.13.29v1.25H10a.42.42,0,0,0-.42.42.36.36,0,0,0,0,.1L10,18.75a.43.43,0,0,0,.41.31h.89l.38,2.5H4.58V6.35H25.42Z"/></g></g></svg>