<svg width="100" height="100" viewBox="0 0 100 100" fill="none" xmlns="http://www.w3.org/2000/svg">
<rect width="100" height="100" fill="#C4C4C4"/>
<rect x="5" y="5" width="90" height="90" fill="#565656"/>
<path d="M31 26.305L47.5 94H95V22.3806C92.2 5.50595 51.1667 17.9658 31 26.305Z" fill="#2B2B2B"/>
<mask id="mask0" mask-type="alpha" maskUnits="userSpaceOnUse" x="5" y="47" width="90" height="48">
<path d="M95 95V75.5C79.6163 97.195 29.0803 66.5928 5 47.5V95H95Z" fill="black"/>
</mask>
<g mask="url(#mask0)">
<path d="M4 95H95V85.5V76C79.6163 97.695 28.0803 67.0928 4 48V95Z" fill="black"/>
<rect x="2" y="59.7516" width="9" height="6" rx="2" transform="rotate(-59.4622 2 59.7516)" fill="#565656"/>
<rect x="7.93082" y="64.6026" width="9" height="6" rx="2" transform="rotate(-57.7214 7.93082 64.6026)" fill="#565656"/>
<rect x="15" y="68.749" width="9" height="6" rx="2" transform="rotate(-59.4285 15 68.749)" fill="#565656"/>
<rect x="-7.62982" y="89.3578" width="25.9673" height="16.9918" rx="2" transform="rotate(-59.4285 -7.62982 89.3578)" fill="#242323"/>
<rect x="10.2828" y="100.904" width="25.9673" height="16.9918" rx="2" transform="rotate(-61.7003 10.2828 100.904)" fill="#1C1B1B"/>
<rect x="30" y="110.75" width="25.9673" height="16.9918" rx="2" transform="rotate(-66.1502 30 110.75)" fill="#363636"/>
<rect x="22" y="72.749" width="9" height="6" rx="2" transform="rotate(-59.4285 22 72.749)" fill="#565656"/>
<rect x="29.2281" y="77.1729" width="9" height="6" rx="2" transform="rotate(-64.5297 29.2281 77.1729)" fill="#565656"/>
<rect x="36" y="81.1253" width="9" height="6" rx="2" transform="rotate(-64.5297 36 81.1253)" fill="#565656"/>
<rect x="43.151" y="84.3638" width="9" height="6" rx="2" transform="rotate(-67.5202 43.151 84.3638)" fill="#565656"/>
<rect x="50.2053" y="87.6019" width="9" height="6" rx="2" transform="rotate(-71.2483 50.2053 87.6019)" fill="#565656"/>
<rect x="58" y="90.79" width="9" height="6" rx="2" transform="rotate(-77.6001 58 90.79)" fill="#565656"/>
<rect x="66.2909" y="93.0705" width="9" height="6" rx="2" transform="rotate(-81.8816 66.2909 93.0705)" fill="#565656"/>
<rect x="75" y="93.9994" width="9" height="5.55399" rx="2" transform="rotate(-89.3113 75 93.9994)" fill="#565656"/>
<rect x="83.2571" y="94.1523" width="9" height="5.22862" rx="2" transform="rotate(-92.5538 83.2571 94.1523)" fill="#565656"/>
<rect x="90.224" y="91.2897" width="9" height="3.76424" rx="1.88212" transform="rotate(-90.0596 90.224 91.2897)" fill="#565656"/>
</g>
<path d="M5 57C25.3333 72.8333 71.7 101.1 94.5 87.5" stroke="black"/>
<path d="M75.8291 41.5135C69.9962 46.4136 56.5627 57.8271 49.0793 64.194L41.3687 33.3518L75.8291 41.5135Z" fill="#22D671" stroke="#0D6433" stroke-width="2"/>
</svg>
