<svg xmlns="http://www.w3.org/2000/svg" xmlns:xlink="http://www.w3.org/1999/xlink" viewBox="0 0 30 30"><defs><style>.cls-1{fill:none;}.cls-2{fill:#fff;}.cls-3{clip-path:url(#clip-path);}</style><clipPath id="clip-path"><rect class="cls-1" x="4.67" y="2.5" width="20.66" height="25"/></clipPath></defs><title>Ресурс 4</title><g id="Слой_2" data-name="Слой 2"><g id="Layer_1" data-name="Layer 1"><rect class="cls-2" width="30" height="30" rx="5"/><g class="cls-3"><path d="M23.33,4.47a6.72,6.72,0,0,0-8.57-.78.64.64,0,0,0-.31.46.51.51,0,0,0,.17.42l8.61,8.61a.49.49,0,0,0,.37.16.68.68,0,0,0,.5-.27,6.72,6.72,0,0,0-.77-8.6Z"/><path d="M13.9,5.64a.74.74,0,0,0-.53-.24,1,1,0,0,0-.74.48,6.77,6.77,0,0,0-1,4.32c0,.21.08.41.1.61s-.11.25-.16.32l-4.9,6.78a1.45,1.45,0,0,0,.14,1.81l.13.13a.13.13,0,0,1,0,.19c-.29.31-1.22,1.21-1.22,1.21a3.68,3.68,0,0,0,.15,5.19,3.52,3.52,0,0,0,2.53,1h.26a4.36,4.36,0,0,0,2.85-1.32l4-4c1.31-1.31,3.1-1.78,3.89-1.39l2.07,1a.62.62,0,1,0,.56-1.1L20,19.6c-1.39-.7-3.73,0-5.33,1.61l-4,4a3.18,3.18,0,0,1-2.05,1,2.32,2.32,0,0,1-1.84-.65,2.44,2.44,0,0,1-.14-3.43s.91-.93,1.22-1.23c.1-.09.17,0,.17,0l.14.14a1.45,1.45,0,0,0,1,.4,1.33,1.33,0,0,0,.81-.26l6.78-4.9a.72.72,0,0,1,.5-.12,6.92,6.92,0,0,0,1.11.09h0A6.75,6.75,0,0,0,22,15.12a1,1,0,0,0,.4-.63.66.66,0,0,0-.21-.55Z"/></g></g></g></svg>