<svg width="19" height="19" viewBox="0 0 19 19" fill="none" xmlns="http://www.w3.org/2000/svg">
<g clip-path="url(#clip0)">
<path d="M16.2175 16.2175C14.4232 18.0118 12.0376 19 9.5 19C6.9625 19 4.57677 18.0118 2.78248 16.2175C0.988182 14.4232 0 12.0375 0 9.5C0 6.9625 0.988182 4.57677 2.78248 2.78248C4.57677 0.988182 6.9625 0 9.5 0C12.0376 0 14.4232 0.988182 16.2175 2.78248C18.0118 4.57677 19 6.9625 19 9.5C19 12.0375 18.0118 14.4232 16.2175 16.2175ZM9.5 1.11328C4.87553 1.11328 1.11328 4.87553 1.11328 9.5C1.11328 14.1245 4.87553 17.8867 9.5 17.8867C14.1245 17.8867 17.8867 14.1245 17.8867 9.5C17.8867 4.87553 14.1245 1.11328 9.5 1.11328Z" fill="#3F4545"/>
<path d="M14.7613 12.4576C14.5972 12.5591 14.3923 12.5683 14.2197 12.4819L12.2428 11.4936V11.5867C12.2428 12.7155 11.3244 13.6338 10.1955 13.6338H6.02201C4.89322 13.6338 3.97476 12.7155 3.97476 11.5867V7.41304C3.97476 6.28425 4.89322 5.36579 6.02201 5.36579H10.1955C11.3244 5.36579 12.2428 6.28425 12.2428 7.41304V7.5061L14.2197 6.51778C14.2983 6.47849 14.3835 6.45892 14.4686 6.45892C14.5704 6.45892 14.6718 6.4869 14.7613 6.54213C14.9254 6.64346 15.0252 6.82262 15.0252 7.01556V11.9842C15.0252 12.1771 14.9254 12.3563 14.7613 12.4576ZM11.1295 7.41304C11.1295 6.89815 10.7105 6.47922 10.1955 6.47922H6.02201C5.50697 6.47922 5.08804 6.89815 5.08804 7.41304V11.5867C5.08804 12.1016 5.50697 12.5205 6.02201 12.5205H10.1955C10.7105 12.5205 11.1295 12.1016 11.1295 11.5867V7.41304ZM13.912 7.91634L12.2429 8.75086V10.249L13.912 11.0835V7.91634Z" fill="#3F4545"/>
</g>
<defs>
<clipPath id="clip0">
<rect width="19" height="19" fill="white" transform="matrix(1 0 0 -1 0 19)"/>
</clipPath>
</defs>
</svg>
