<svg width="103" height="55" viewBox="0 0 103 55" fill="none" xmlns="http://www.w3.org/2000/svg">
<path d="M33.5202 53.8829H29.0299V36.0263H33.5202V53.8829ZM69.8598 36.3396C69.4421 36.2352 67.8757 35.7131 65.7872 35.7131C60.2527 35.7131 56.2846 39.6812 56.2846 45.0068C56.2846 50.7502 60.7749 54.3006 65.7872 54.3006C67.7713 54.3006 69.3376 53.7785 69.8598 53.674V48.8705C69.6509 48.9749 68.189 49.8103 66.1005 49.8103C63.0722 49.8103 61.1926 47.7219 61.1926 45.0068C61.1926 42.2918 63.1766 40.2033 66.1005 40.2033C68.2934 40.2033 69.7553 41.0387 69.8598 41.1431V36.3396ZM22.7645 36.3396C22.3468 36.2352 20.7804 35.7131 18.6919 35.7131C13.1574 35.7131 9.18933 39.6812 9.18933 45.0068C9.18933 50.7502 13.6796 54.3006 18.6919 54.3006C20.676 54.3006 22.2423 53.7785 22.7645 53.674V48.8705C22.5556 48.9749 21.0937 49.8103 19.0052 49.8103C15.9769 49.8103 14.0973 47.7219 14.0973 45.0068C14.0973 42.2918 16.0813 40.2033 19.0052 40.2033C21.1981 40.2033 22.66 41.0387 22.7645 41.1431V36.3396ZM84.0615 35.7131C78.527 35.7131 74.6633 39.89 74.6633 45.0068C74.6633 50.1236 78.6314 54.3006 84.0615 54.3006C89.5959 54.3006 93.5641 50.1236 93.5641 45.0068C93.5641 39.7856 89.5959 35.7131 84.0615 35.7131ZM88.7606 44.9024C88.7606 47.513 86.7765 49.6015 84.0615 49.6015C81.3464 49.6015 79.3624 47.513 79.3624 44.9024C79.3624 42.2918 81.3464 40.2033 84.0615 40.2033C86.7765 40.2033 88.7606 42.2918 88.7606 44.9024ZM50.6457 36.2352C50.5413 36.2352 48.4528 35.7131 46.2599 35.7131C42.0829 35.7131 39.5768 38.0104 39.5768 41.352C39.5768 44.2759 41.6652 45.7378 44.1714 46.5732C44.4847 46.6776 44.9024 46.782 45.1112 46.8865C46.2599 47.1997 47.0953 47.7219 47.0953 48.6617C47.0953 49.7059 46.0511 50.3325 43.8582 50.3325C41.8741 50.3325 39.9945 49.8103 39.5768 49.7059V53.7784C39.7856 53.7784 42.0829 54.3006 44.4847 54.3006C47.9307 54.3006 51.8988 52.8386 51.8988 48.3484C51.8988 46.1555 50.5413 44.1714 47.6174 43.2316L46.3643 42.8139C45.6334 42.6051 44.2758 42.1874 44.2758 41.1431C44.2758 40.3077 45.2157 39.6812 47.0953 39.6812C48.6617 39.6812 50.5413 40.2033 50.6457 40.2033V36.2352ZM4.38581 16.7079C4.38581 15.4548 3.34157 14.515 2.19291 14.515C0.939816 14.515 0 15.5592 0 16.7079V21.407C0 22.66 1.04424 23.5999 2.19291 23.5999C3.446 23.5999 4.38581 22.5556 4.38581 21.407V16.7079ZM16.7079 10.5468C16.7079 9.29375 15.6636 8.35393 14.515 8.35393C13.2619 8.35393 12.3221 9.39817 12.3221 10.5468V21.407C12.3221 22.66 13.3663 23.5999 14.515 23.5999C15.768 23.5999 16.7079 22.5556 16.7079 21.407V10.5468ZM28.9255 2.19291C28.9255 0.939816 27.8813 0 26.7326 0C25.4795 0 24.5397 1.04424 24.5397 2.19291V25.8972C24.5397 27.1503 25.5839 28.0901 26.7326 28.0901C27.9857 28.0901 28.9255 27.0459 28.9255 25.8972V2.19291ZM41.2475 10.5468C41.2475 9.29375 40.2033 8.35393 39.0546 8.35393C37.906 8.35393 36.8617 9.39817 36.8617 10.5468V21.407C36.8617 22.66 37.906 23.5999 39.0546 23.5999C40.2033 23.5999 41.2475 22.5556 41.2475 21.407V10.5468ZM53.5696 16.7079C53.5696 15.4548 52.5254 14.515 51.3767 14.515C50.1236 14.515 49.1838 15.5592 49.1838 16.7079V21.407C49.1838 22.66 50.228 23.5999 51.3767 23.5999C52.6298 23.5999 53.5696 22.5556 53.5696 21.407V16.7079ZM65.8917 10.5468C65.8917 9.29375 64.8474 8.35393 63.6987 8.35393C62.4457 8.35393 61.5058 9.39817 61.5058 10.5468V21.407C61.5058 22.66 62.5501 23.5999 63.6987 23.5999C64.9518 23.5999 65.8917 22.5556 65.8917 21.407V10.5468ZM78.2137 2.19291C78.2137 0.939816 77.1695 0 76.0208 0C74.8721 0 73.8279 1.04424 73.8279 2.19291V25.8972C73.8279 27.1503 74.8721 28.0901 76.0208 28.0901C77.1695 28.0901 78.2137 27.0459 78.2137 25.8972V2.19291ZM90.5358 10.5468C90.5358 9.29375 89.4915 8.35393 88.2384 8.35393C86.9853 8.35393 86.0455 9.39817 86.0455 10.5468V21.407C86.0455 22.66 87.0898 23.5999 88.2384 23.5999C89.4915 23.5999 90.5358 22.5556 90.5358 21.407V10.5468ZM102.858 16.7079C102.858 15.4548 101.814 14.515 100.665 14.515C99.4118 14.515 98.472 15.5592 98.472 16.7079V21.407C98.472 22.66 99.5162 23.5999 100.665 23.5999C101.918 23.5999 102.858 22.5556 102.858 21.407V16.7079Z" fill="#5EA2DC"/>
</svg>
