<svg width="73" height="65" viewBox="0 0 73 65" fill="none" xmlns="http://www.w3.org/2000/svg">
<path fill-rule="evenodd" clip-rule="evenodd" d="M0 65L7.34591 52.3741V63.1295H23.8742V59.8561H11.0189V56.1151H23.4151V53.3093H11.0189V49.5683H23.8742L25.7107 46.295H10.5597L36.7296 0L38.1069 2.33813L14.6918 43.9568H16.9874L39.4843 4.20863L40.8616 6.54676L19.7421 43.4892H22.0377L41.7799 8.41727L43.1572 10.7554L24.7924 43.4892H27.0881L44.5346 12.6259L62.8994 45.3597C61.9811 45.3597 61.0629 44.8921 60.1446 44.8921H53.717C51.8805 44.8921 50.9623 44.8921 50.044 45.3597C49.1258 45.8273 48.6667 46.295 48.2075 47.2302C47.7484 48.1655 47.7484 49.1007 47.7484 50.9712V55.6475C47.7484 57.0504 47.7484 58.4532 48.2075 59.3885C48.6667 60.3237 49.1258 60.7914 50.044 61.259C50.9623 61.7266 51.8805 61.7266 53.717 61.7266H61.0629C62.8994 61.7266 63.8176 61.7266 64.7358 61.259C65.6541 60.7914 66.1132 60.3237 66.5723 59.3885C67.0314 58.4532 67.0314 57.518 67.0314 55.6475H62.8994C62.8994 56.1151 62.8994 57.0504 62.4402 57.0504C62.4402 57.518 61.9811 57.518 61.522 57.9856C61.0629 57.9856 60.6038 57.9856 59.6855 57.9856H54.6352C53.717 57.9856 53.2579 57.9856 52.7987 57.518C52.3396 57.518 51.8805 57.0504 51.8805 56.5827C51.8805 56.1151 51.4214 55.6475 51.4214 54.7122V52.3741C51.4214 51.4388 51.4214 50.9712 51.8805 50.5036C51.8805 50.036 52.3396 50.036 52.7987 49.5683C53.2579 49.5683 53.717 49.5683 54.6352 49.5683H59.6855C60.6038 49.5683 61.522 49.5683 61.9811 50.036C62.4402 50.5036 62.4402 50.9712 62.4402 51.9065H65.6541L73 65H0ZM30.761 49.5683V54.7122H39.0252C39.9434 54.7122 40.4025 54.7122 40.8616 54.2446C41.3208 53.777 41.3208 53.3093 41.3208 52.3741C41.3208 51.4388 41.3208 50.9712 40.8616 50.5036C40.4025 50.036 39.9434 50.036 39.0252 50.036H30.761V49.5683ZM44.9937 63.1295H40.8616V60.3237C40.8616 59.3885 40.4025 58.9209 39.9434 58.4532C39.4843 57.9856 38.566 57.9856 37.6478 57.9856H30.3019V63.1295H26.1698V46.295H39.0252C39.9434 46.295 40.8616 46.295 41.3208 46.7626C42.239 46.7626 42.6981 47.2302 43.1572 47.6978C43.6164 48.1655 44.0755 48.6331 44.5346 49.5683C44.9937 50.5036 44.9937 51.4388 44.9937 52.3741C44.9937 53.3093 44.9937 54.2446 44.5346 55.1799C44.0755 55.6475 43.6163 56.5827 42.6981 56.5827C43.1572 57.0504 43.6163 57.0504 44.0755 57.0504C44.5346 57.0504 44.5346 57.518 44.9937 57.9856C45.4528 58.4532 45.4528 58.9209 45.4528 59.3885V63.1295H44.9937Z" fill="#4B7CBE"/>
</svg>
