<svg width="631" height="157" viewBox="0 0 631 157" fill="none" xmlns="http://www.w3.org/2000/svg">
<path d="M43.3619 67.2147L0 110.577L43.3619 153.938L86.7238 110.577L43.3619 67.2147Z" fill="#8DCBFC"/>
<path d="M100.843 10.2893L57.4814 53.6512L100.843 97.0131L144.205 53.6512L100.843 10.2893Z" fill="#84D3B4"/>
<path d="M158.332 67.191L114.97 110.553L158.332 153.915L201.694 110.553L158.332 67.191Z" fill="#6FC4CA"/>
<path d="M254.626 97.0637L242.074 78.8583V97.0637H233.067V57.6825H242.074V74.8339L254.147 57.6825H264.304L251.081 76.8461L264.879 97.0637H254.626Z" fill="#3F4545"/>
<path d="M291.9 68.8932L282.318 96.2013C279.156 105.112 274.173 108.658 266.316 108.274V100.417C270.245 100.417 272.065 99.1717 273.311 95.7222L262.1 68.8932H271.394L277.623 86.1404L282.893 68.8932H291.9Z" fill="#3F4545"/>
<path d="M294.104 61.4194C294.104 58.6406 296.403 56.341 299.182 56.341C301.961 56.341 304.26 58.6406 304.26 61.4194C304.26 64.1981 301.961 66.4977 299.182 66.4977C296.403 66.4977 294.104 64.1981 294.104 61.4194ZM294.966 68.8932H303.398V96.9679H294.966V68.8932Z" fill="#3F4545"/>
<path d="M336.839 68.8932L326.49 97.0637H316.909L306.464 68.8932H315.855L321.699 86.8112L327.544 68.8932H336.839Z" fill="#3F4545"/>
<path d="M352.361 88.1526L360.122 83.6491C361.559 86.907 363.955 89.1108 368.362 89.1108C372.674 89.1108 373.728 87.386 373.728 85.9488C373.728 83.5533 371.524 82.5951 365.584 80.9662C359.739 79.3373 353.99 76.5586 353.99 68.989C353.99 61.4193 360.41 57.0117 367.213 57.0117C373.632 57.0117 378.711 60.0779 381.585 65.9228L374.016 70.3304C372.674 67.5517 370.854 65.7312 367.213 65.7312C364.434 65.7312 362.997 67.1684 362.997 68.7015C362.997 70.5221 363.955 71.7677 370.087 73.5882C376.028 75.4088 382.735 77.421 382.735 85.7571C382.735 93.3268 376.699 97.8302 368.075 97.8302C359.835 97.8302 354.565 93.9017 352.361 88.1526Z" fill="#3F4545"/>
<path d="M429.111 79.8165V97.0637H420.679V80.4872C420.679 77.7085 419.338 75.8879 416.655 75.8879C413.876 75.8879 412.247 77.9001 412.247 81.1579V97.0637H403.815V80.4872C403.815 77.7085 402.474 75.8879 399.791 75.8879C397.012 75.8879 395.383 77.9001 395.383 81.1579V97.0637H386.951V68.989H395.383V71.5761C396.629 69.6597 399.12 68.2225 402.953 68.2225C406.306 68.2225 408.702 69.5639 410.331 71.9594C411.864 69.7556 414.451 68.2225 418.475 68.2225C424.895 68.1267 429.111 72.7259 429.111 79.8165Z" fill="#3F4545"/>
<path d="M463.702 68.8932V96.9679H455.27V94.285C453.449 96.393 450.67 97.7344 446.934 97.7344C439.556 97.7344 433.519 91.2188 433.519 82.8826C433.519 74.5465 439.556 68.0308 446.934 68.0308C450.67 68.0308 453.449 69.2765 455.27 71.4803V68.7974H463.702V68.8932ZM455.27 82.9784C455.27 78.7625 452.491 76.0795 448.562 76.0795C444.73 76.0795 441.855 78.7625 441.855 82.9784C441.855 87.1944 444.634 89.8773 448.562 89.8773C452.491 89.8773 455.27 87.1944 455.27 82.9784Z" fill="#3F4545"/>
<path d="M486.794 68.4141V77.9959C483.344 77.421 478.362 78.8583 478.362 84.4158V97.1595H469.93V69.0849H478.362V74.0674C479.416 70.1389 483.248 68.4141 486.794 68.4141Z" fill="#3F4545"/>
<path d="M502.221 77.0377V87.0028C502.221 89.3983 504.329 89.6857 507.97 89.3983V97.0637C496.951 98.2135 493.789 94.8599 493.789 87.0028V77.0377H489.285V68.8932H493.789V63.5274L502.221 61.0361V68.8932H507.97V77.0377H502.221Z" fill="#3F4545"/>
<path d="M525.983 77.421C525.983 65.827 534.607 56.9159 546.488 56.9159C553.675 56.9159 559.903 60.4612 563.352 66.0186L555.591 70.5221C553.866 67.4559 550.513 65.7312 546.488 65.7312C539.494 65.7312 534.99 70.4262 534.99 77.421C534.99 84.4157 539.494 89.1108 546.488 89.1108C550.513 89.1108 553.866 87.2902 555.591 84.3199L563.352 88.8233C559.999 94.3808 553.675 97.926 546.488 97.926C534.607 97.8302 525.983 88.9191 525.983 77.421Z" fill="#3F4545"/>
<path d="M566.994 61.4194C566.994 58.6406 569.293 56.341 572.072 56.341C574.851 56.341 577.15 58.6406 577.15 61.4194C577.15 64.1981 574.851 66.4977 572.072 66.4977C569.293 66.4977 566.994 64.1981 566.994 61.4194ZM567.856 68.8932H576.288V96.9679H567.856V68.8932Z" fill="#3F4545"/>
<path d="M593.152 77.0377V87.0028C593.152 89.3983 595.26 89.6857 598.901 89.3983V97.0637C587.882 98.2135 584.72 94.8599 584.72 87.0028V77.0377H580.216V68.8932H584.72V63.5274L593.152 61.0361V68.8932H598.901V77.0377H593.152Z" fill="#3F4545"/>
<path d="M631 68.8932L621.418 96.2013C618.256 105.112 613.274 108.658 605.417 108.274V100.417C609.345 100.417 611.166 99.1717 612.411 95.7222L601.201 68.8932H610.495L616.723 86.1404L621.993 68.8932H631Z" fill="#3F4545"/>
<path d="M242.074 125.33V132.9H256.734V141.619H242.074V156.088H233.067V116.706H256.926V125.33H242.074Z" fill="#3F4545"/>
<path d="M260.663 142.002C260.663 133.666 267.275 127.151 275.611 127.151C283.851 127.151 290.558 133.666 290.558 142.002C290.558 150.338 283.947 156.854 275.611 156.854C267.275 156.854 260.663 150.338 260.663 142.002ZM282.031 142.002C282.031 137.978 279.252 135.391 275.611 135.391C271.97 135.391 269.191 138.074 269.191 142.002C269.191 145.931 271.97 148.614 275.611 148.614C279.156 148.614 282.031 146.027 282.031 142.002Z" fill="#3F4545"/>
<path d="M312.118 127.342V136.924C308.668 136.349 303.686 137.786 303.686 143.344V156.088H295.254V128.013H303.686V132.995C304.74 129.163 308.573 127.342 312.118 127.342Z" fill="#3F4545"/>
<path d="M342.588 127.917V155.992H334.156V153.309C332.623 155.417 329.844 156.758 326.107 156.758C320.454 156.758 315.567 152.734 315.567 145.164V127.917H323.999V143.919C323.999 147.368 326.203 148.997 328.886 148.997C331.952 148.997 334.156 147.177 334.156 143.248V127.917H342.588Z" fill="#3F4545"/>
<path d="M390.975 138.744V155.992H382.543V139.415C382.543 136.636 381.202 134.816 378.519 134.816C375.74 134.816 374.111 136.828 374.111 140.086V155.992H365.679V139.415C365.679 136.636 364.338 134.816 361.655 134.816C358.876 134.816 357.247 136.828 357.247 140.086V155.992H348.815V127.917H357.247V130.504C358.493 128.588 360.984 127.151 364.817 127.151C368.171 127.151 370.566 128.492 372.195 130.887C373.728 128.684 376.315 127.151 380.34 127.151C386.759 127.151 390.975 131.75 390.975 138.744Z" fill="#3F4545"/>
<path d="M408.99 149.572L422.213 135.87C424.512 133.475 426.237 131.175 426.237 128.875C426.237 126.384 424.704 124.755 422.021 124.755C419.242 124.755 417.326 126.576 416.272 129.067L408.702 124.659C411.193 118.814 416.559 116.036 422.021 116.036C429.016 116.036 435.34 120.635 435.34 128.588C435.34 133.283 432.848 137.403 429.207 140.948L422.692 147.56H435.723V156.183H408.99V149.572Z" fill="#3F4545"/>
<path d="M438.789 136.349C438.789 124.18 444.634 115.844 454.791 115.844C464.947 115.844 470.792 124.18 470.792 136.349C470.792 148.518 464.947 156.854 454.791 156.854C444.634 156.854 438.789 148.518 438.789 136.349ZM461.881 136.349C461.881 128.779 459.582 124.659 454.886 124.659C450.191 124.659 447.892 128.779 447.892 136.349C447.892 143.919 450.191 148.039 454.886 148.039C459.582 148.039 461.881 143.919 461.881 136.349Z" fill="#3F4545"/>
<path d="M472.612 149.572L485.835 135.87C488.135 133.475 489.859 131.175 489.859 128.875C489.859 126.384 488.326 124.755 485.643 124.755C482.865 124.755 480.948 126.576 479.894 129.067L472.325 124.659C474.816 118.814 480.182 116.036 485.643 116.036C492.638 116.036 498.962 120.635 498.962 128.588C498.962 133.283 496.471 137.403 492.83 140.948L486.314 147.56H499.537V156.183H472.804V149.572H472.612Z" fill="#3F4545"/>
<path d="M502.508 136.349C502.508 124.18 508.353 115.844 518.509 115.844C528.666 115.844 534.511 124.18 534.511 136.349C534.511 148.518 528.666 156.854 518.509 156.854C508.353 156.854 502.508 148.518 502.508 136.349ZM525.6 136.349C525.6 128.779 523.3 124.659 518.605 124.659C513.91 124.659 511.611 128.779 511.611 136.349C511.611 143.919 513.91 148.039 518.605 148.039C523.3 148.039 525.6 143.919 525.6 136.349Z" fill="#3F4545"/>
<path d="M265.454 17.7263C265.454 27.4998 257.501 35.4527 247.728 35.4527C237.954 35.4527 230.001 27.4998 230.001 17.7263C230.001 7.9529 237.954 0 247.728 0C257.501 0 265.454 7.9529 265.454 17.7263Z" fill="#FF0000"/>
<path d="M289.6 28.7454V31.2367H275.228V5.27002H277.815V28.7454H289.6Z" fill="#FF0000"/>
<path d="M295.924 5.27002H293.337V31.1409H295.924V5.27002Z" fill="#FF0000"/>
<path d="M299.278 5.27002H302.057L310.105 27.7873L318.25 5.27002H321.029L311.447 31.2367H308.764L299.278 5.27002Z" fill="#FF0000"/>
<path d="M339.522 28.7454V31.2367H324.382V5.27002H339.33V7.76129H326.969V16.9598H338.468V19.3553H326.969V28.7454H339.522Z" fill="#FF0000"/>
</svg>
