<svg width="74" height="42" viewBox="0 0 74 42" fill="none" xmlns="http://www.w3.org/2000/svg">
<rect y="12" width="74" height="9" fill="#4DD15E"/>
<path d="M7.364 18.216C6.236 18.216 5.312 18.012 4.592 17.604C3.872 17.184 3.278 16.65 2.81 16.002L3.908 15.102C4.4 15.714 4.916 16.17 5.456 16.47C6.008 16.77 6.662 16.92 7.418 16.92C8.33 16.92 9.026 16.71 9.506 16.29C9.986 15.87 10.226 15.282 10.226 14.526C10.226 13.914 10.052 13.44 9.704 13.104C9.356 12.756 8.75 12.51 7.886 12.366L6.482 12.132C5.87 12.024 5.354 11.862 4.934 11.646C4.526 11.43 4.196 11.172 3.944 10.872C3.692 10.56 3.512 10.224 3.404 9.864C3.296 9.492 3.242 9.108 3.242 8.712C3.242 7.56 3.62 6.69 4.376 6.102C5.132 5.514 6.152 5.22 7.436 5.22C8.444 5.22 9.29 5.388 9.974 5.724C10.67 6.06 11.228 6.534 11.648 7.146L10.586 8.064C10.238 7.608 9.818 7.236 9.326 6.948C8.834 6.66 8.198 6.516 7.418 6.516C6.566 6.516 5.912 6.696 5.456 7.056C5 7.416 4.772 7.956 4.772 8.676C4.772 9.24 4.94 9.702 5.276 10.062C5.624 10.41 6.242 10.662 7.13 10.818L8.48 11.052C9.092 11.16 9.608 11.322 10.028 11.538C10.448 11.754 10.784 12.012 11.036 12.312C11.3 12.612 11.486 12.948 11.594 13.32C11.702 13.692 11.756 14.082 11.756 14.49C11.756 15.654 11.372 16.566 10.604 17.226C9.848 17.886 8.768 18.216 7.364 18.216ZM13.765 18V8.712H15.097V9.792H15.169C15.313 9.432 15.517 9.126 15.781 8.874C16.045 8.622 16.435 8.496 16.951 8.496C17.491 8.496 17.893 8.634 18.157 8.91C18.421 9.174 18.583 9.522 18.643 9.954H18.697C18.865 9.534 19.105 9.186 19.417 8.91C19.729 8.634 20.161 8.496 20.713 8.496C21.469 8.496 21.973 8.76 22.225 9.288C22.489 9.816 22.621 10.572 22.621 11.556V18H21.289V11.79C21.289 10.998 21.205 10.452 21.037 10.152C20.881 9.84 20.587 9.684 20.155 9.684C19.771 9.684 19.459 9.81 19.219 10.062C18.979 10.302 18.859 10.674 18.859 11.178V18H17.527V11.79C17.527 10.998 17.443 10.452 17.275 10.152C17.119 9.84 16.831 9.684 16.411 9.684C16.027 9.684 15.709 9.81 15.457 10.062C15.217 10.302 15.097 10.674 15.097 11.178V18H13.765ZM29.5619 6.66C29.1419 6.66 28.8479 6.576 28.6799 6.408C28.5119 6.228 28.4279 6.006 28.4279 5.742V5.454C28.4279 5.19 28.5119 4.974 28.6799 4.806C28.8479 4.626 29.1419 4.536 29.5619 4.536C29.9819 4.536 30.2759 4.626 30.4439 4.806C30.6119 4.974 30.6959 5.19 30.6959 5.454V5.742C30.6959 6.006 30.6119 6.228 30.4439 6.408C30.2759 6.576 29.9819 6.66 29.5619 6.66ZM25.4939 16.776H28.8419V9.936H25.4939V8.712H30.2819V16.776H33.4139V18H25.4939V16.776ZM40.2289 18C39.5209 18 38.9989 17.802 38.6629 17.406C38.3389 17.01 38.1769 16.5 38.1769 15.876V9.936H35.0809V8.712H37.3849C37.6969 8.712 37.9129 8.652 38.0329 8.532C38.1649 8.4 38.2309 8.178 38.2309 7.866V5.436H39.6169V8.712H43.8469V9.936H39.6169V16.776H43.8469V18H40.2289ZM50.5719 18.162C50.0799 18.162 49.7319 18.06 49.5279 17.856C49.3359 17.652 49.2399 17.394 49.2399 17.082V16.758C49.2399 16.446 49.3359 16.188 49.5279 15.984C49.7319 15.78 50.0799 15.678 50.5719 15.678C51.0639 15.678 51.4059 15.78 51.5979 15.984C51.8019 16.188 51.9039 16.446 51.9039 16.758V17.082C51.9039 17.394 51.8019 17.652 51.5979 17.856C51.4059 18.06 51.0639 18.162 50.5719 18.162ZM3.62 41V28.436H11.36V29.75H5.132V33.98H11.144V35.294H5.132V39.686H11.36V41H3.62ZM17.275 41L13.945 31.712H15.403L16.735 35.6L18.175 39.794H18.247L19.687 35.6L21.019 31.712H22.441L19.111 41H17.275ZM29.1479 41.216C28.4759 41.216 27.8699 41.102 27.3299 40.874C26.8019 40.646 26.3459 40.322 25.9619 39.902C25.5899 39.47 25.3019 38.96 25.0979 38.372C24.8939 37.772 24.7919 37.106 24.7919 36.374C24.7919 35.63 24.8939 34.958 25.0979 34.358C25.3139 33.758 25.6079 33.248 25.9799 32.828C26.3519 32.396 26.7959 32.066 27.3119 31.838C27.8399 31.61 28.4219 31.496 29.0579 31.496C29.6819 31.496 30.2459 31.61 30.7499 31.838C31.2659 32.066 31.7039 32.384 32.0639 32.792C32.4239 33.188 32.6999 33.662 32.8919 34.214C33.0839 34.766 33.1799 35.372 33.1799 36.032V36.716H26.3039V37.148C26.3039 37.556 26.3699 37.934 26.5019 38.282C26.6339 38.63 26.8199 38.93 27.0599 39.182C27.3119 39.434 27.6119 39.632 27.9599 39.776C28.3199 39.908 28.7159 39.974 29.1479 39.974C29.7719 39.974 30.3119 39.83 30.7679 39.542C31.2239 39.254 31.5719 38.858 31.8119 38.354L32.8739 39.074C32.5979 39.698 32.1359 40.214 31.4879 40.622C30.8519 41.018 30.0719 41.216 29.1479 41.216ZM29.0579 32.684C28.6619 32.684 28.2959 32.756 27.9599 32.9C27.6239 33.044 27.3299 33.242 27.0779 33.494C26.8379 33.746 26.6459 34.046 26.5019 34.394C26.3699 34.73 26.3039 35.102 26.3039 35.51V35.636H31.6319V35.438C31.6319 35.03 31.5659 34.658 31.4339 34.322C31.3139 33.986 31.1399 33.698 30.9119 33.458C30.6959 33.206 30.4259 33.014 30.1019 32.882C29.7899 32.75 29.4419 32.684 29.0579 32.684ZM36.1429 41V31.712H37.5829V33.224H37.6549C37.7509 32.996 37.8709 32.78 38.0149 32.576C38.1589 32.36 38.3329 32.174 38.5369 32.018C38.7529 31.862 39.0049 31.736 39.2929 31.64C39.5809 31.544 39.9169 31.496 40.3009 31.496C41.2729 31.496 42.0529 31.808 42.6409 32.432C43.2289 33.044 43.5229 33.914 43.5229 35.042V41H42.0829V35.294C42.0829 34.442 41.8969 33.812 41.5249 33.404C41.1529 32.984 40.6069 32.774 39.8869 32.774C39.5989 32.774 39.3169 32.81 39.0409 32.882C38.7649 32.954 38.5189 33.062 38.3029 33.206C38.0869 33.35 37.9129 33.536 37.7809 33.764C37.6489 33.992 37.5829 34.256 37.5829 34.556V41H36.1429ZM51.0219 41C50.3139 41 49.7919 40.802 49.4559 40.406C49.1319 40.01 48.9699 39.5 48.9699 38.876V32.936H45.8739V31.712H48.1779C48.4899 31.712 48.7059 31.652 48.8259 31.532C48.9579 31.4 49.0239 31.178 49.0239 30.866V28.436H50.4099V31.712H54.6399V32.936H50.4099V39.776H54.6399V41H51.0219ZM61.4728 41.216C60.5008 41.216 59.6608 41.054 58.9528 40.73C58.2568 40.394 57.6628 39.95 57.1708 39.398L58.1428 38.552C58.5868 39.02 59.0728 39.38 59.6008 39.632C60.1288 39.884 60.7648 40.01 61.5088 40.01C62.2288 40.01 62.8168 39.884 63.2728 39.632C63.7408 39.368 63.9748 38.96 63.9748 38.408C63.9748 38.168 63.9268 37.97 63.8308 37.814C63.7468 37.646 63.6268 37.514 63.4708 37.418C63.3148 37.322 63.1408 37.25 62.9488 37.202C62.7568 37.142 62.5528 37.094 62.3368 37.058L60.8788 36.842C60.5548 36.794 60.2008 36.728 59.8168 36.644C59.4448 36.56 59.1028 36.428 58.7908 36.248C58.4788 36.056 58.2148 35.804 57.9988 35.492C57.7948 35.18 57.6928 34.772 57.6928 34.268C57.6928 33.8 57.7828 33.398 57.9628 33.062C58.1548 32.714 58.4188 32.426 58.7548 32.198C59.0908 31.958 59.4868 31.784 59.9428 31.676C60.3988 31.556 60.8968 31.496 61.4368 31.496C62.2768 31.496 63.0028 31.628 63.6148 31.892C64.2388 32.156 64.7728 32.522 65.2168 32.99L64.2808 33.872C64.1728 33.74 64.0348 33.608 63.8668 33.476C63.7108 33.332 63.5128 33.206 63.2728 33.098C63.0448 32.978 62.7748 32.882 62.4628 32.81C62.1508 32.738 61.7908 32.702 61.3828 32.702C60.6508 32.702 60.0868 32.828 59.6908 33.08C59.3068 33.332 59.1148 33.698 59.1148 34.178C59.1148 34.418 59.1568 34.622 59.2408 34.79C59.3368 34.946 59.4628 35.072 59.6188 35.168C59.7748 35.264 59.9488 35.342 60.1408 35.402C60.3448 35.45 60.5488 35.492 60.7528 35.528L62.2108 35.744C62.5468 35.792 62.9008 35.858 63.2728 35.942C63.6448 36.026 63.9868 36.164 64.2988 36.356C64.6108 36.536 64.8688 36.782 65.0728 37.094C65.2888 37.406 65.3968 37.814 65.3968 38.318C65.3968 39.242 65.0368 39.956 64.3168 40.46C63.6088 40.964 62.6608 41.216 61.4728 41.216Z" fill="#0B0B0B"/>
</svg>
