<svg xmlns="http://www.w3.org/2000/svg" viewBox="0 0 30 30"><defs><style>.cls-1{fill:#fff;}</style></defs><title>Ресурс 11</title><g id="Слой_2" data-name="Слой 2"><g id="Layer_1" data-name="Layer 1"><rect class="cls-1" width="30" height="30" rx="5"/><circle cx="8.72" cy="4.78" r="0.95"/><path d="M16.57,2.71a1,1,0,0,1-1.91,0,1,1,0,1,1,1.91,0Z"/><circle cx="17.48" cy="7.19" r="0.95"/><path d="M23.4,9.41a.63.63,0,0,1-.63.62.63.63,0,1,1,0-1.25A.63.63,0,0,1,23.4,9.41Z"/><circle cx="20.43" cy="7.84" r="0.63"/><circle cx="16.29" cy="9.35" r="0.63"/><path d="M15.9,5.47a.63.63,0,1,1-.62-.63A.62.62,0,0,1,15.9,5.47Z"/><circle cx="19.11" cy="4.68" r="0.63"/><circle cx="12.31" cy="3.75" r="0.63"/><path d="M16.28,10.92s.58,4.45,1.77,6.28,2.6,3.37,2.93,4.57a14.07,14.07,0,0,1,.78,3.63,2.24,2.24,0,0,1-1.13,1.69c-.82.5-1.26.62-1.45.75s-.3.35.49.4a19,19,0,0,0,3.11-.4A20.21,20.21,0,0,0,25.25,27a7.48,7.48,0,0,0,1-.58c.14-.09.49-.27-.37-.3s-2.37.29-3.19-1S21.33,20,21.53,18.83a12.35,12.35,0,0,0,.26-4.4C21.5,13,20.51,9.92,20.46,9.75,19.56,9.81,17.15,10.11,16.28,10.92Z"/><path d="M10.92,5.58s-2,4-2.05,6.19S9.13,16,8.73,17.2a13.88,13.88,0,0,1-1.39,3.44,2.26,2.26,0,0,1-1.89.77c-1-.06-1.39-.21-1.62-.19s-.44.11.19.6a18.31,18.31,0,0,0,2.8,1.41,18.49,18.49,0,0,0,2.49.71,6.7,6.7,0,0,0,1.13.06c.15,0,.55.05-.14-.45s-2.13-1.09-2.09-2.61,1.81-5,2.63-5.87a12.59,12.59,0,0,0,2.68-3.5C14.1,10.19,15,7.12,15,7,14.26,6.5,12.09,5.4,10.92,5.58Z"/></g></g></svg>