<svg xmlns="http://www.w3.org/2000/svg" viewBox="0 0 30 30"><defs><style>.cls-1{fill:#fff;}</style></defs><title>Ресурс 10</title><g id="Слой_2" data-name="Слой 2"><g id="Layer_1" data-name="Layer 1"><rect class="cls-1" width="30" height="30" rx="5"/><path d="M19,25.35a4.17,4.17,0,0,0,0-.61,4.07,4.07,0,1,0-8.14,0,4.17,4.17,0,0,0,0,.61h-4v-5.9l-1,.41a2.65,2.65,0,0,1-1,.21,2.68,2.68,0,0,1,0-5.35,2.65,2.65,0,0,1,1,.21l1,.41v-6h6l-.41-1a2.65,2.65,0,0,1-.21-1,2.67,2.67,0,1,1,5.34,0,2.56,2.56,0,0,1-.21,1l-.41,1h6v6l1-.41a2.65,2.65,0,0,1,1-.21,2.68,2.68,0,0,1,0,5.35,2.65,2.65,0,0,1-1-.21l-1-.41v5.9Z"/><path d="M15,5.35a2,2,0,0,1,1.82,2.74L16,10h6.36V16.4l1.94-.82a1.83,1.83,0,0,1,.77-.16,2,2,0,0,1,0,4,1.87,1.87,0,0,1-.77-.16l-1.94-.82v6.26H19.77a4.77,4.77,0,0,0-9.54,0H7.64V18.39l-1.94.82a1.83,1.83,0,0,1-.77.16,2,2,0,0,1,0-4,1.83,1.83,0,0,1,.77.16l1.94.82V10H14l-.82-1.95A2,2,0,0,1,15,5.35M15,4a3.39,3.39,0,0,0-3.11,4.69H6.24v5.65A3.33,3.33,0,0,0,4.93,14a3.38,3.38,0,0,0,0,6.75,3.33,3.33,0,0,0,1.31-.27v5.55h5.65a3.37,3.37,0,1,1,6.22,0h5.65V20.5h0a3.33,3.33,0,0,0,1.31.27,3.38,3.38,0,0,0,0-6.75,3.33,3.33,0,0,0-1.31.27V8.64H18.11A3.39,3.39,0,0,0,15,4Z"/></g></g></svg>